%TF.GenerationSoftware,KiCad,Pcbnew,9.0.5-1.fc42*%
%TF.CreationDate,2025-11-09T17:22:24+08:00*%
%TF.ProjectId,b5s4-XA1541-active,62357334-2d58-4413-9135-34312d616374,1.1*%
%TF.SameCoordinates,Original*%
%TF.FileFunction,Soldermask,Bot*%
%TF.FilePolarity,Negative*%
%FSLAX46Y46*%
G04 Gerber Fmt 4.6, Leading zero omitted, Abs format (unit mm)*
G04 Created by KiCad (PCBNEW 9.0.5-1.fc42) date 2025-11-09 17:22:24*
%MOMM*%
%LPD*%
G01*
G04 APERTURE LIST*
%ADD10C,1.600000*%
%ADD11C,3.000000*%
%ADD12R,1.050000X1.500000*%
%ADD13O,1.050000X1.500000*%
%ADD14R,1.846667X3.480000*%
G04 APERTURE END LIST*
D10*
%TO.C,R1*%
X120137600Y-86360000D03*
X130297600Y-86360000D03*
%TD*%
D11*
%TO.C,CN2*%
X126764200Y-114669100D03*
X124264200Y-124669100D03*
X124264200Y-112169100D03*
X114264200Y-124669100D03*
X119264200Y-114669100D03*
X114264200Y-112129100D03*
X111764200Y-114669100D03*
X119264200Y-109669100D03*
%TD*%
D10*
%TO.C,R4*%
X120137600Y-101600000D03*
X130297600Y-101600000D03*
%TD*%
D12*
%TO.C,Q2*%
X111760000Y-91440000D03*
D13*
X113030000Y-91440000D03*
X114300000Y-91440000D03*
%TD*%
D12*
%TO.C,Q1*%
X111760000Y-86360000D03*
D13*
X113030000Y-86360000D03*
X114300000Y-86360000D03*
%TD*%
D14*
%TO.C,CN1*%
X134615000Y-78077500D03*
X131845000Y-78077500D03*
X129075000Y-78077500D03*
X126305000Y-78077500D03*
X123535000Y-78077500D03*
X120765000Y-78077500D03*
X117995000Y-78077500D03*
X115225000Y-78077500D03*
X112455000Y-78077500D03*
X109685000Y-78077500D03*
X106915000Y-78077500D03*
X104145000Y-78077500D03*
%TD*%
D10*
%TO.C,R3*%
X120137600Y-96520000D03*
X130297600Y-96520000D03*
%TD*%
D12*
%TO.C,Q4*%
X111760000Y-101600000D03*
D13*
X113030000Y-101600000D03*
X114300000Y-101600000D03*
%TD*%
D12*
%TO.C,Q3*%
X111760000Y-96520000D03*
D13*
X113030000Y-96520000D03*
X114300000Y-96520000D03*
%TD*%
D10*
%TO.C,R2*%
X120137600Y-91440000D03*
X130297600Y-91440000D03*
%TD*%
M02*
