%TF.GenerationSoftware,KiCad,Pcbnew,9.0.5-1.fc42*%
%TF.CreationDate,2025-11-09T17:22:24+08:00*%
%TF.ProjectId,b5s4-XA1541-active,62357334-2d58-4413-9135-34312d616374,1.1*%
%TF.SameCoordinates,Original*%
%TF.FileFunction,Legend,Bot*%
%TF.FilePolarity,Positive*%
%FSLAX46Y46*%
G04 Gerber Fmt 4.6, Leading zero omitted, Abs format (unit mm)*
G04 Created by KiCad (PCBNEW 9.0.5-1.fc42) date 2025-11-09 17:22:24*
%MOMM*%
%LPD*%
G01*
G04 APERTURE LIST*
%ADD10C,0.100000*%
%ADD11C,1.600000*%
%ADD12C,3.000000*%
%ADD13R,1.050000X1.500000*%
%ADD14O,1.050000X1.500000*%
%ADD15R,1.846667X3.480000*%
G04 APERTURE END LIST*
D10*
X135866457Y-116546720D02*
X135866457Y-116394339D01*
X135866457Y-116394339D02*
X135828362Y-116318149D01*
X135828362Y-116318149D02*
X135752172Y-116241958D01*
X135752172Y-116241958D02*
X135599791Y-116203863D01*
X135599791Y-116203863D02*
X135333124Y-116203863D01*
X135333124Y-116203863D02*
X135180743Y-116241958D01*
X135180743Y-116241958D02*
X135104553Y-116318149D01*
X135104553Y-116318149D02*
X135066457Y-116394339D01*
X135066457Y-116394339D02*
X135066457Y-116546720D01*
X135066457Y-116546720D02*
X135104553Y-116622911D01*
X135104553Y-116622911D02*
X135180743Y-116699101D01*
X135180743Y-116699101D02*
X135333124Y-116737197D01*
X135333124Y-116737197D02*
X135599791Y-116737197D01*
X135599791Y-116737197D02*
X135752172Y-116699101D01*
X135752172Y-116699101D02*
X135828362Y-116622911D01*
X135828362Y-116622911D02*
X135866457Y-116546720D01*
X135066457Y-115861006D02*
X135599791Y-115861006D01*
X135447410Y-115861006D02*
X135523600Y-115822911D01*
X135523600Y-115822911D02*
X135561695Y-115784816D01*
X135561695Y-115784816D02*
X135599791Y-115708625D01*
X135599791Y-115708625D02*
X135599791Y-115632435D01*
X135066457Y-115365768D02*
X135599791Y-115365768D01*
X135866457Y-115365768D02*
X135828362Y-115403864D01*
X135828362Y-115403864D02*
X135790267Y-115365768D01*
X135790267Y-115365768D02*
X135828362Y-115327673D01*
X135828362Y-115327673D02*
X135866457Y-115365768D01*
X135866457Y-115365768D02*
X135790267Y-115365768D01*
X135599791Y-114641959D02*
X134952172Y-114641959D01*
X134952172Y-114641959D02*
X134875981Y-114680054D01*
X134875981Y-114680054D02*
X134837886Y-114718150D01*
X134837886Y-114718150D02*
X134799791Y-114794340D01*
X134799791Y-114794340D02*
X134799791Y-114908626D01*
X134799791Y-114908626D02*
X134837886Y-114984816D01*
X135104553Y-114641959D02*
X135066457Y-114718150D01*
X135066457Y-114718150D02*
X135066457Y-114870531D01*
X135066457Y-114870531D02*
X135104553Y-114946721D01*
X135104553Y-114946721D02*
X135142648Y-114984816D01*
X135142648Y-114984816D02*
X135218838Y-115022912D01*
X135218838Y-115022912D02*
X135447410Y-115022912D01*
X135447410Y-115022912D02*
X135523600Y-114984816D01*
X135523600Y-114984816D02*
X135561695Y-114946721D01*
X135561695Y-114946721D02*
X135599791Y-114870531D01*
X135599791Y-114870531D02*
X135599791Y-114718150D01*
X135599791Y-114718150D02*
X135561695Y-114641959D01*
X135066457Y-114261006D02*
X135599791Y-114261006D01*
X135866457Y-114261006D02*
X135828362Y-114299102D01*
X135828362Y-114299102D02*
X135790267Y-114261006D01*
X135790267Y-114261006D02*
X135828362Y-114222911D01*
X135828362Y-114222911D02*
X135866457Y-114261006D01*
X135866457Y-114261006D02*
X135790267Y-114261006D01*
X135599791Y-113880054D02*
X135066457Y-113880054D01*
X135523600Y-113880054D02*
X135561695Y-113841959D01*
X135561695Y-113841959D02*
X135599791Y-113765769D01*
X135599791Y-113765769D02*
X135599791Y-113651483D01*
X135599791Y-113651483D02*
X135561695Y-113575292D01*
X135561695Y-113575292D02*
X135485505Y-113537197D01*
X135485505Y-113537197D02*
X135066457Y-113537197D01*
X135066457Y-112813387D02*
X135485505Y-112813387D01*
X135485505Y-112813387D02*
X135561695Y-112851482D01*
X135561695Y-112851482D02*
X135599791Y-112927673D01*
X135599791Y-112927673D02*
X135599791Y-113080054D01*
X135599791Y-113080054D02*
X135561695Y-113156244D01*
X135104553Y-112813387D02*
X135066457Y-112889578D01*
X135066457Y-112889578D02*
X135066457Y-113080054D01*
X135066457Y-113080054D02*
X135104553Y-113156244D01*
X135104553Y-113156244D02*
X135180743Y-113194340D01*
X135180743Y-113194340D02*
X135256933Y-113194340D01*
X135256933Y-113194340D02*
X135333124Y-113156244D01*
X135333124Y-113156244D02*
X135371219Y-113080054D01*
X135371219Y-113080054D02*
X135371219Y-112889578D01*
X135371219Y-112889578D02*
X135409314Y-112813387D01*
X135066457Y-112318149D02*
X135104553Y-112394339D01*
X135104553Y-112394339D02*
X135180743Y-112432434D01*
X135180743Y-112432434D02*
X135866457Y-112432434D01*
X135142648Y-110946719D02*
X135104553Y-110984815D01*
X135104553Y-110984815D02*
X135066457Y-111099100D01*
X135066457Y-111099100D02*
X135066457Y-111175291D01*
X135066457Y-111175291D02*
X135104553Y-111289577D01*
X135104553Y-111289577D02*
X135180743Y-111365767D01*
X135180743Y-111365767D02*
X135256933Y-111403862D01*
X135256933Y-111403862D02*
X135409314Y-111441958D01*
X135409314Y-111441958D02*
X135523600Y-111441958D01*
X135523600Y-111441958D02*
X135675981Y-111403862D01*
X135675981Y-111403862D02*
X135752172Y-111365767D01*
X135752172Y-111365767D02*
X135828362Y-111289577D01*
X135828362Y-111289577D02*
X135866457Y-111175291D01*
X135866457Y-111175291D02*
X135866457Y-111099100D01*
X135866457Y-111099100D02*
X135828362Y-110984815D01*
X135828362Y-110984815D02*
X135790267Y-110946719D01*
X135066457Y-110603862D02*
X135599791Y-110603862D01*
X135866457Y-110603862D02*
X135828362Y-110641958D01*
X135828362Y-110641958D02*
X135790267Y-110603862D01*
X135790267Y-110603862D02*
X135828362Y-110565767D01*
X135828362Y-110565767D02*
X135866457Y-110603862D01*
X135866457Y-110603862D02*
X135790267Y-110603862D01*
X135066457Y-110222910D02*
X135599791Y-110222910D01*
X135447410Y-110222910D02*
X135523600Y-110184815D01*
X135523600Y-110184815D02*
X135561695Y-110146720D01*
X135561695Y-110146720D02*
X135599791Y-110070529D01*
X135599791Y-110070529D02*
X135599791Y-109994339D01*
X135104553Y-109384815D02*
X135066457Y-109461006D01*
X135066457Y-109461006D02*
X135066457Y-109613387D01*
X135066457Y-109613387D02*
X135104553Y-109689577D01*
X135104553Y-109689577D02*
X135142648Y-109727672D01*
X135142648Y-109727672D02*
X135218838Y-109765768D01*
X135218838Y-109765768D02*
X135447410Y-109765768D01*
X135447410Y-109765768D02*
X135523600Y-109727672D01*
X135523600Y-109727672D02*
X135561695Y-109689577D01*
X135561695Y-109689577D02*
X135599791Y-109613387D01*
X135599791Y-109613387D02*
X135599791Y-109461006D01*
X135599791Y-109461006D02*
X135561695Y-109384815D01*
X135599791Y-108699101D02*
X135066457Y-108699101D01*
X135599791Y-109041958D02*
X135180743Y-109041958D01*
X135180743Y-109041958D02*
X135104553Y-109003863D01*
X135104553Y-109003863D02*
X135066457Y-108927673D01*
X135066457Y-108927673D02*
X135066457Y-108813387D01*
X135066457Y-108813387D02*
X135104553Y-108737196D01*
X135104553Y-108737196D02*
X135142648Y-108699101D01*
X135066457Y-108318148D02*
X135599791Y-108318148D01*
X135866457Y-108318148D02*
X135828362Y-108356244D01*
X135828362Y-108356244D02*
X135790267Y-108318148D01*
X135790267Y-108318148D02*
X135828362Y-108280053D01*
X135828362Y-108280053D02*
X135866457Y-108318148D01*
X135866457Y-108318148D02*
X135790267Y-108318148D01*
X135599791Y-108051482D02*
X135599791Y-107746720D01*
X135866457Y-107937196D02*
X135180743Y-107937196D01*
X135180743Y-107937196D02*
X135104553Y-107899101D01*
X135104553Y-107899101D02*
X135066457Y-107822911D01*
X135066457Y-107822911D02*
X135066457Y-107746720D01*
X135066457Y-106870529D02*
X135866457Y-106870529D01*
X135866457Y-106870529D02*
X135866457Y-106680053D01*
X135866457Y-106680053D02*
X135828362Y-106565767D01*
X135828362Y-106565767D02*
X135752172Y-106489577D01*
X135752172Y-106489577D02*
X135675981Y-106451482D01*
X135675981Y-106451482D02*
X135523600Y-106413386D01*
X135523600Y-106413386D02*
X135409314Y-106413386D01*
X135409314Y-106413386D02*
X135256933Y-106451482D01*
X135256933Y-106451482D02*
X135180743Y-106489577D01*
X135180743Y-106489577D02*
X135104553Y-106565767D01*
X135104553Y-106565767D02*
X135066457Y-106680053D01*
X135066457Y-106680053D02*
X135066457Y-106870529D01*
X135104553Y-105765767D02*
X135066457Y-105841958D01*
X135066457Y-105841958D02*
X135066457Y-105994339D01*
X135066457Y-105994339D02*
X135104553Y-106070529D01*
X135104553Y-106070529D02*
X135180743Y-106108625D01*
X135180743Y-106108625D02*
X135485505Y-106108625D01*
X135485505Y-106108625D02*
X135561695Y-106070529D01*
X135561695Y-106070529D02*
X135599791Y-105994339D01*
X135599791Y-105994339D02*
X135599791Y-105841958D01*
X135599791Y-105841958D02*
X135561695Y-105765767D01*
X135561695Y-105765767D02*
X135485505Y-105727672D01*
X135485505Y-105727672D02*
X135409314Y-105727672D01*
X135409314Y-105727672D02*
X135333124Y-106108625D01*
X135104553Y-105422911D02*
X135066457Y-105346720D01*
X135066457Y-105346720D02*
X135066457Y-105194339D01*
X135066457Y-105194339D02*
X135104553Y-105118149D01*
X135104553Y-105118149D02*
X135180743Y-105080053D01*
X135180743Y-105080053D02*
X135218838Y-105080053D01*
X135218838Y-105080053D02*
X135295029Y-105118149D01*
X135295029Y-105118149D02*
X135333124Y-105194339D01*
X135333124Y-105194339D02*
X135333124Y-105308625D01*
X135333124Y-105308625D02*
X135371219Y-105384815D01*
X135371219Y-105384815D02*
X135447410Y-105422911D01*
X135447410Y-105422911D02*
X135485505Y-105422911D01*
X135485505Y-105422911D02*
X135561695Y-105384815D01*
X135561695Y-105384815D02*
X135599791Y-105308625D01*
X135599791Y-105308625D02*
X135599791Y-105194339D01*
X135599791Y-105194339D02*
X135561695Y-105118149D01*
X135066457Y-104737196D02*
X135599791Y-104737196D01*
X135866457Y-104737196D02*
X135828362Y-104775292D01*
X135828362Y-104775292D02*
X135790267Y-104737196D01*
X135790267Y-104737196D02*
X135828362Y-104699101D01*
X135828362Y-104699101D02*
X135866457Y-104737196D01*
X135866457Y-104737196D02*
X135790267Y-104737196D01*
X135599791Y-104013387D02*
X134952172Y-104013387D01*
X134952172Y-104013387D02*
X134875981Y-104051482D01*
X134875981Y-104051482D02*
X134837886Y-104089578D01*
X134837886Y-104089578D02*
X134799791Y-104165768D01*
X134799791Y-104165768D02*
X134799791Y-104280054D01*
X134799791Y-104280054D02*
X134837886Y-104356244D01*
X135104553Y-104013387D02*
X135066457Y-104089578D01*
X135066457Y-104089578D02*
X135066457Y-104241959D01*
X135066457Y-104241959D02*
X135104553Y-104318149D01*
X135104553Y-104318149D02*
X135142648Y-104356244D01*
X135142648Y-104356244D02*
X135218838Y-104394340D01*
X135218838Y-104394340D02*
X135447410Y-104394340D01*
X135447410Y-104394340D02*
X135523600Y-104356244D01*
X135523600Y-104356244D02*
X135561695Y-104318149D01*
X135561695Y-104318149D02*
X135599791Y-104241959D01*
X135599791Y-104241959D02*
X135599791Y-104089578D01*
X135599791Y-104089578D02*
X135561695Y-104013387D01*
X135599791Y-103632434D02*
X135066457Y-103632434D01*
X135523600Y-103632434D02*
X135561695Y-103594339D01*
X135561695Y-103594339D02*
X135599791Y-103518149D01*
X135599791Y-103518149D02*
X135599791Y-103403863D01*
X135599791Y-103403863D02*
X135561695Y-103327672D01*
X135561695Y-103327672D02*
X135485505Y-103289577D01*
X135485505Y-103289577D02*
X135066457Y-103289577D01*
X135675981Y-101651481D02*
X135714076Y-101727672D01*
X135714076Y-101727672D02*
X135714076Y-101880053D01*
X135714076Y-101880053D02*
X135675981Y-101956243D01*
X135675981Y-101956243D02*
X135599791Y-102032434D01*
X135599791Y-102032434D02*
X135523600Y-102070529D01*
X135523600Y-102070529D02*
X135371219Y-102070529D01*
X135371219Y-102070529D02*
X135295029Y-102032434D01*
X135295029Y-102032434D02*
X135218838Y-101956243D01*
X135218838Y-101956243D02*
X135180743Y-101880053D01*
X135180743Y-101880053D02*
X135180743Y-101727672D01*
X135180743Y-101727672D02*
X135218838Y-101651481D01*
X135980743Y-101803862D02*
X135942648Y-101994338D01*
X135942648Y-101994338D02*
X135828362Y-102184815D01*
X135828362Y-102184815D02*
X135637886Y-102299100D01*
X135637886Y-102299100D02*
X135447410Y-102337196D01*
X135447410Y-102337196D02*
X135256933Y-102299100D01*
X135256933Y-102299100D02*
X135066457Y-102184815D01*
X135066457Y-102184815D02*
X134952172Y-101994338D01*
X134952172Y-101994338D02*
X134914076Y-101803862D01*
X134914076Y-101803862D02*
X134952172Y-101613386D01*
X134952172Y-101613386D02*
X135066457Y-101422910D01*
X135066457Y-101422910D02*
X135256933Y-101308624D01*
X135256933Y-101308624D02*
X135447410Y-101270529D01*
X135447410Y-101270529D02*
X135637886Y-101308624D01*
X135637886Y-101308624D02*
X135828362Y-101422910D01*
X135828362Y-101422910D02*
X135942648Y-101613386D01*
X135942648Y-101613386D02*
X135980743Y-101803862D01*
X135790267Y-100356243D02*
X135828362Y-100318147D01*
X135828362Y-100318147D02*
X135866457Y-100241957D01*
X135866457Y-100241957D02*
X135866457Y-100051481D01*
X135866457Y-100051481D02*
X135828362Y-99975290D01*
X135828362Y-99975290D02*
X135790267Y-99937195D01*
X135790267Y-99937195D02*
X135714076Y-99899100D01*
X135714076Y-99899100D02*
X135637886Y-99899100D01*
X135637886Y-99899100D02*
X135523600Y-99937195D01*
X135523600Y-99937195D02*
X135066457Y-100394338D01*
X135066457Y-100394338D02*
X135066457Y-99899100D01*
X135866457Y-99403861D02*
X135866457Y-99327671D01*
X135866457Y-99327671D02*
X135828362Y-99251480D01*
X135828362Y-99251480D02*
X135790267Y-99213385D01*
X135790267Y-99213385D02*
X135714076Y-99175290D01*
X135714076Y-99175290D02*
X135561695Y-99137195D01*
X135561695Y-99137195D02*
X135371219Y-99137195D01*
X135371219Y-99137195D02*
X135218838Y-99175290D01*
X135218838Y-99175290D02*
X135142648Y-99213385D01*
X135142648Y-99213385D02*
X135104553Y-99251480D01*
X135104553Y-99251480D02*
X135066457Y-99327671D01*
X135066457Y-99327671D02*
X135066457Y-99403861D01*
X135066457Y-99403861D02*
X135104553Y-99480052D01*
X135104553Y-99480052D02*
X135142648Y-99518147D01*
X135142648Y-99518147D02*
X135218838Y-99556242D01*
X135218838Y-99556242D02*
X135371219Y-99594338D01*
X135371219Y-99594338D02*
X135561695Y-99594338D01*
X135561695Y-99594338D02*
X135714076Y-99556242D01*
X135714076Y-99556242D02*
X135790267Y-99518147D01*
X135790267Y-99518147D02*
X135828362Y-99480052D01*
X135828362Y-99480052D02*
X135866457Y-99403861D01*
X135866457Y-98641956D02*
X135866457Y-98565766D01*
X135866457Y-98565766D02*
X135828362Y-98489575D01*
X135828362Y-98489575D02*
X135790267Y-98451480D01*
X135790267Y-98451480D02*
X135714076Y-98413385D01*
X135714076Y-98413385D02*
X135561695Y-98375290D01*
X135561695Y-98375290D02*
X135371219Y-98375290D01*
X135371219Y-98375290D02*
X135218838Y-98413385D01*
X135218838Y-98413385D02*
X135142648Y-98451480D01*
X135142648Y-98451480D02*
X135104553Y-98489575D01*
X135104553Y-98489575D02*
X135066457Y-98565766D01*
X135066457Y-98565766D02*
X135066457Y-98641956D01*
X135066457Y-98641956D02*
X135104553Y-98718147D01*
X135104553Y-98718147D02*
X135142648Y-98756242D01*
X135142648Y-98756242D02*
X135218838Y-98794337D01*
X135218838Y-98794337D02*
X135371219Y-98832433D01*
X135371219Y-98832433D02*
X135561695Y-98832433D01*
X135561695Y-98832433D02*
X135714076Y-98794337D01*
X135714076Y-98794337D02*
X135790267Y-98756242D01*
X135790267Y-98756242D02*
X135828362Y-98718147D01*
X135828362Y-98718147D02*
X135866457Y-98641956D01*
X135866457Y-97880051D02*
X135866457Y-97803861D01*
X135866457Y-97803861D02*
X135828362Y-97727670D01*
X135828362Y-97727670D02*
X135790267Y-97689575D01*
X135790267Y-97689575D02*
X135714076Y-97651480D01*
X135714076Y-97651480D02*
X135561695Y-97613385D01*
X135561695Y-97613385D02*
X135371219Y-97613385D01*
X135371219Y-97613385D02*
X135218838Y-97651480D01*
X135218838Y-97651480D02*
X135142648Y-97689575D01*
X135142648Y-97689575D02*
X135104553Y-97727670D01*
X135104553Y-97727670D02*
X135066457Y-97803861D01*
X135066457Y-97803861D02*
X135066457Y-97880051D01*
X135066457Y-97880051D02*
X135104553Y-97956242D01*
X135104553Y-97956242D02*
X135142648Y-97994337D01*
X135142648Y-97994337D02*
X135218838Y-98032432D01*
X135218838Y-98032432D02*
X135371219Y-98070528D01*
X135371219Y-98070528D02*
X135561695Y-98070528D01*
X135561695Y-98070528D02*
X135714076Y-98032432D01*
X135714076Y-98032432D02*
X135790267Y-97994337D01*
X135790267Y-97994337D02*
X135828362Y-97956242D01*
X135828362Y-97956242D02*
X135866457Y-97880051D01*
X133778502Y-116184815D02*
X134578502Y-116184815D01*
X134578502Y-116184815D02*
X134007074Y-115918149D01*
X134007074Y-115918149D02*
X134578502Y-115651482D01*
X134578502Y-115651482D02*
X133778502Y-115651482D01*
X133778502Y-115270529D02*
X134311836Y-115270529D01*
X134578502Y-115270529D02*
X134540407Y-115308625D01*
X134540407Y-115308625D02*
X134502312Y-115270529D01*
X134502312Y-115270529D02*
X134540407Y-115232434D01*
X134540407Y-115232434D02*
X134578502Y-115270529D01*
X134578502Y-115270529D02*
X134502312Y-115270529D01*
X133816598Y-114546720D02*
X133778502Y-114622911D01*
X133778502Y-114622911D02*
X133778502Y-114775292D01*
X133778502Y-114775292D02*
X133816598Y-114851482D01*
X133816598Y-114851482D02*
X133854693Y-114889577D01*
X133854693Y-114889577D02*
X133930883Y-114927673D01*
X133930883Y-114927673D02*
X134159455Y-114927673D01*
X134159455Y-114927673D02*
X134235645Y-114889577D01*
X134235645Y-114889577D02*
X134273740Y-114851482D01*
X134273740Y-114851482D02*
X134311836Y-114775292D01*
X134311836Y-114775292D02*
X134311836Y-114622911D01*
X134311836Y-114622911D02*
X134273740Y-114546720D01*
X133778502Y-114203863D02*
X134578502Y-114203863D01*
X133778502Y-113861006D02*
X134197550Y-113861006D01*
X134197550Y-113861006D02*
X134273740Y-113899101D01*
X134273740Y-113899101D02*
X134311836Y-113975292D01*
X134311836Y-113975292D02*
X134311836Y-114089578D01*
X134311836Y-114089578D02*
X134273740Y-114165768D01*
X134273740Y-114165768D02*
X134235645Y-114203863D01*
X133778502Y-113137196D02*
X134197550Y-113137196D01*
X134197550Y-113137196D02*
X134273740Y-113175291D01*
X134273740Y-113175291D02*
X134311836Y-113251482D01*
X134311836Y-113251482D02*
X134311836Y-113403863D01*
X134311836Y-113403863D02*
X134273740Y-113480053D01*
X133816598Y-113137196D02*
X133778502Y-113213387D01*
X133778502Y-113213387D02*
X133778502Y-113403863D01*
X133778502Y-113403863D02*
X133816598Y-113480053D01*
X133816598Y-113480053D02*
X133892788Y-113518149D01*
X133892788Y-113518149D02*
X133968978Y-113518149D01*
X133968978Y-113518149D02*
X134045169Y-113480053D01*
X134045169Y-113480053D02*
X134083264Y-113403863D01*
X134083264Y-113403863D02*
X134083264Y-113213387D01*
X134083264Y-113213387D02*
X134121359Y-113137196D01*
X133816598Y-112451481D02*
X133778502Y-112527672D01*
X133778502Y-112527672D02*
X133778502Y-112680053D01*
X133778502Y-112680053D02*
X133816598Y-112756243D01*
X133816598Y-112756243D02*
X133892788Y-112794339D01*
X133892788Y-112794339D02*
X134197550Y-112794339D01*
X134197550Y-112794339D02*
X134273740Y-112756243D01*
X134273740Y-112756243D02*
X134311836Y-112680053D01*
X134311836Y-112680053D02*
X134311836Y-112527672D01*
X134311836Y-112527672D02*
X134273740Y-112451481D01*
X134273740Y-112451481D02*
X134197550Y-112413386D01*
X134197550Y-112413386D02*
X134121359Y-112413386D01*
X134121359Y-112413386D02*
X134045169Y-112794339D01*
X133778502Y-111956244D02*
X133816598Y-112032434D01*
X133816598Y-112032434D02*
X133892788Y-112070529D01*
X133892788Y-112070529D02*
X134578502Y-112070529D01*
X133778502Y-111041957D02*
X134578502Y-111041957D01*
X133778502Y-110584814D02*
X134235645Y-110927672D01*
X134578502Y-110584814D02*
X134121359Y-111041957D01*
X133778502Y-110127672D02*
X133816598Y-110203862D01*
X133816598Y-110203862D02*
X133892788Y-110241957D01*
X133892788Y-110241957D02*
X134578502Y-110241957D01*
X133816598Y-109518147D02*
X133778502Y-109594338D01*
X133778502Y-109594338D02*
X133778502Y-109746719D01*
X133778502Y-109746719D02*
X133816598Y-109822909D01*
X133816598Y-109822909D02*
X133892788Y-109861005D01*
X133892788Y-109861005D02*
X134197550Y-109861005D01*
X134197550Y-109861005D02*
X134273740Y-109822909D01*
X134273740Y-109822909D02*
X134311836Y-109746719D01*
X134311836Y-109746719D02*
X134311836Y-109594338D01*
X134311836Y-109594338D02*
X134273740Y-109518147D01*
X134273740Y-109518147D02*
X134197550Y-109480052D01*
X134197550Y-109480052D02*
X134121359Y-109480052D01*
X134121359Y-109480052D02*
X134045169Y-109861005D01*
X133778502Y-109137195D02*
X134311836Y-109137195D01*
X134578502Y-109137195D02*
X134540407Y-109175291D01*
X134540407Y-109175291D02*
X134502312Y-109137195D01*
X134502312Y-109137195D02*
X134540407Y-109099100D01*
X134540407Y-109099100D02*
X134578502Y-109137195D01*
X134578502Y-109137195D02*
X134502312Y-109137195D01*
X134311836Y-108756243D02*
X133778502Y-108756243D01*
X134235645Y-108756243D02*
X134273740Y-108718148D01*
X134273740Y-108718148D02*
X134311836Y-108641958D01*
X134311836Y-108641958D02*
X134311836Y-108527672D01*
X134311836Y-108527672D02*
X134273740Y-108451481D01*
X134273740Y-108451481D02*
X134197550Y-108413386D01*
X134197550Y-108413386D02*
X133778502Y-108413386D01*
X134616598Y-106851481D02*
X133588026Y-107537195D01*
X133778502Y-105975290D02*
X134578502Y-105975290D01*
X134578502Y-105975290D02*
X133778502Y-105518147D01*
X133778502Y-105518147D02*
X134578502Y-105518147D01*
X133778502Y-105137195D02*
X134311836Y-105137195D01*
X134578502Y-105137195D02*
X134540407Y-105175291D01*
X134540407Y-105175291D02*
X134502312Y-105137195D01*
X134502312Y-105137195D02*
X134540407Y-105099100D01*
X134540407Y-105099100D02*
X134578502Y-105137195D01*
X134578502Y-105137195D02*
X134502312Y-105137195D01*
X133816598Y-104413386D02*
X133778502Y-104489577D01*
X133778502Y-104489577D02*
X133778502Y-104641958D01*
X133778502Y-104641958D02*
X133816598Y-104718148D01*
X133816598Y-104718148D02*
X133854693Y-104756243D01*
X133854693Y-104756243D02*
X133930883Y-104794339D01*
X133930883Y-104794339D02*
X134159455Y-104794339D01*
X134159455Y-104794339D02*
X134235645Y-104756243D01*
X134235645Y-104756243D02*
X134273740Y-104718148D01*
X134273740Y-104718148D02*
X134311836Y-104641958D01*
X134311836Y-104641958D02*
X134311836Y-104489577D01*
X134311836Y-104489577D02*
X134273740Y-104413386D01*
X133778502Y-103956244D02*
X133816598Y-104032434D01*
X133816598Y-104032434D02*
X133854693Y-104070529D01*
X133854693Y-104070529D02*
X133930883Y-104108625D01*
X133930883Y-104108625D02*
X134159455Y-104108625D01*
X134159455Y-104108625D02*
X134235645Y-104070529D01*
X134235645Y-104070529D02*
X134273740Y-104032434D01*
X134273740Y-104032434D02*
X134311836Y-103956244D01*
X134311836Y-103956244D02*
X134311836Y-103841958D01*
X134311836Y-103841958D02*
X134273740Y-103765767D01*
X134273740Y-103765767D02*
X134235645Y-103727672D01*
X134235645Y-103727672D02*
X134159455Y-103689577D01*
X134159455Y-103689577D02*
X133930883Y-103689577D01*
X133930883Y-103689577D02*
X133854693Y-103727672D01*
X133854693Y-103727672D02*
X133816598Y-103765767D01*
X133816598Y-103765767D02*
X133778502Y-103841958D01*
X133778502Y-103841958D02*
X133778502Y-103956244D01*
X133778502Y-103232434D02*
X133816598Y-103308624D01*
X133816598Y-103308624D02*
X133892788Y-103346719D01*
X133892788Y-103346719D02*
X134578502Y-103346719D01*
X133778502Y-102584814D02*
X134197550Y-102584814D01*
X134197550Y-102584814D02*
X134273740Y-102622909D01*
X134273740Y-102622909D02*
X134311836Y-102699100D01*
X134311836Y-102699100D02*
X134311836Y-102851481D01*
X134311836Y-102851481D02*
X134273740Y-102927671D01*
X133816598Y-102584814D02*
X133778502Y-102661005D01*
X133778502Y-102661005D02*
X133778502Y-102851481D01*
X133778502Y-102851481D02*
X133816598Y-102927671D01*
X133816598Y-102927671D02*
X133892788Y-102965767D01*
X133892788Y-102965767D02*
X133968978Y-102965767D01*
X133968978Y-102965767D02*
X134045169Y-102927671D01*
X134045169Y-102927671D02*
X134083264Y-102851481D01*
X134083264Y-102851481D02*
X134083264Y-102661005D01*
X134083264Y-102661005D02*
X134121359Y-102584814D01*
X133816598Y-102241957D02*
X133778502Y-102165766D01*
X133778502Y-102165766D02*
X133778502Y-102013385D01*
X133778502Y-102013385D02*
X133816598Y-101937195D01*
X133816598Y-101937195D02*
X133892788Y-101899099D01*
X133892788Y-101899099D02*
X133930883Y-101899099D01*
X133930883Y-101899099D02*
X134007074Y-101937195D01*
X134007074Y-101937195D02*
X134045169Y-102013385D01*
X134045169Y-102013385D02*
X134045169Y-102127671D01*
X134045169Y-102127671D02*
X134083264Y-102203861D01*
X134083264Y-102203861D02*
X134159455Y-102241957D01*
X134159455Y-102241957D02*
X134197550Y-102241957D01*
X134197550Y-102241957D02*
X134273740Y-102203861D01*
X134273740Y-102203861D02*
X134311836Y-102127671D01*
X134311836Y-102127671D02*
X134311836Y-102013385D01*
X134311836Y-102013385D02*
X134273740Y-101937195D01*
X134578502Y-101022909D02*
X133778502Y-100832433D01*
X133778502Y-100832433D02*
X134349931Y-100680052D01*
X134349931Y-100680052D02*
X133778502Y-100527671D01*
X133778502Y-100527671D02*
X134578502Y-100337195D01*
X133816598Y-99727670D02*
X133778502Y-99803861D01*
X133778502Y-99803861D02*
X133778502Y-99956242D01*
X133778502Y-99956242D02*
X133816598Y-100032432D01*
X133816598Y-100032432D02*
X133892788Y-100070528D01*
X133892788Y-100070528D02*
X134197550Y-100070528D01*
X134197550Y-100070528D02*
X134273740Y-100032432D01*
X134273740Y-100032432D02*
X134311836Y-99956242D01*
X134311836Y-99956242D02*
X134311836Y-99803861D01*
X134311836Y-99803861D02*
X134273740Y-99727670D01*
X134273740Y-99727670D02*
X134197550Y-99689575D01*
X134197550Y-99689575D02*
X134121359Y-99689575D01*
X134121359Y-99689575D02*
X134045169Y-100070528D01*
X133778502Y-99232433D02*
X133816598Y-99308623D01*
X133816598Y-99308623D02*
X133892788Y-99346718D01*
X133892788Y-99346718D02*
X134578502Y-99346718D01*
X134311836Y-99041956D02*
X134311836Y-98737194D01*
X134578502Y-98927670D02*
X133892788Y-98927670D01*
X133892788Y-98927670D02*
X133816598Y-98889575D01*
X133816598Y-98889575D02*
X133778502Y-98813385D01*
X133778502Y-98813385D02*
X133778502Y-98737194D01*
X133816598Y-98165765D02*
X133778502Y-98241956D01*
X133778502Y-98241956D02*
X133778502Y-98394337D01*
X133778502Y-98394337D02*
X133816598Y-98470527D01*
X133816598Y-98470527D02*
X133892788Y-98508623D01*
X133892788Y-98508623D02*
X134197550Y-98508623D01*
X134197550Y-98508623D02*
X134273740Y-98470527D01*
X134273740Y-98470527D02*
X134311836Y-98394337D01*
X134311836Y-98394337D02*
X134311836Y-98241956D01*
X134311836Y-98241956D02*
X134273740Y-98165765D01*
X134273740Y-98165765D02*
X134197550Y-98127670D01*
X134197550Y-98127670D02*
X134121359Y-98127670D01*
X134121359Y-98127670D02*
X134045169Y-98508623D01*
X104542991Y-96564159D02*
X105342991Y-96754635D01*
X105342991Y-96754635D02*
X104771562Y-96907016D01*
X104771562Y-96907016D02*
X105342991Y-97059397D01*
X105342991Y-97059397D02*
X104542991Y-97249874D01*
X105304896Y-97859398D02*
X105342991Y-97783207D01*
X105342991Y-97783207D02*
X105342991Y-97630826D01*
X105342991Y-97630826D02*
X105304896Y-97554636D01*
X105304896Y-97554636D02*
X105228705Y-97516540D01*
X105228705Y-97516540D02*
X104923943Y-97516540D01*
X104923943Y-97516540D02*
X104847753Y-97554636D01*
X104847753Y-97554636D02*
X104809657Y-97630826D01*
X104809657Y-97630826D02*
X104809657Y-97783207D01*
X104809657Y-97783207D02*
X104847753Y-97859398D01*
X104847753Y-97859398D02*
X104923943Y-97897493D01*
X104923943Y-97897493D02*
X105000134Y-97897493D01*
X105000134Y-97897493D02*
X105076324Y-97516540D01*
X105304896Y-98811778D02*
X105342991Y-98887969D01*
X105342991Y-98887969D02*
X105342991Y-99040350D01*
X105342991Y-99040350D02*
X105304896Y-99116540D01*
X105304896Y-99116540D02*
X105228705Y-99154636D01*
X105228705Y-99154636D02*
X105190610Y-99154636D01*
X105190610Y-99154636D02*
X105114419Y-99116540D01*
X105114419Y-99116540D02*
X105076324Y-99040350D01*
X105076324Y-99040350D02*
X105076324Y-98926064D01*
X105076324Y-98926064D02*
X105038229Y-98849874D01*
X105038229Y-98849874D02*
X104962038Y-98811778D01*
X104962038Y-98811778D02*
X104923943Y-98811778D01*
X104923943Y-98811778D02*
X104847753Y-98849874D01*
X104847753Y-98849874D02*
X104809657Y-98926064D01*
X104809657Y-98926064D02*
X104809657Y-99040350D01*
X104809657Y-99040350D02*
X104847753Y-99116540D01*
X104809657Y-99383207D02*
X104809657Y-99687969D01*
X104542991Y-99497493D02*
X105228705Y-99497493D01*
X105228705Y-99497493D02*
X105304896Y-99535588D01*
X105304896Y-99535588D02*
X105342991Y-99611778D01*
X105342991Y-99611778D02*
X105342991Y-99687969D01*
X105342991Y-100297493D02*
X104923943Y-100297493D01*
X104923943Y-100297493D02*
X104847753Y-100259398D01*
X104847753Y-100259398D02*
X104809657Y-100183207D01*
X104809657Y-100183207D02*
X104809657Y-100030826D01*
X104809657Y-100030826D02*
X104847753Y-99954636D01*
X105304896Y-100297493D02*
X105342991Y-100221302D01*
X105342991Y-100221302D02*
X105342991Y-100030826D01*
X105342991Y-100030826D02*
X105304896Y-99954636D01*
X105304896Y-99954636D02*
X105228705Y-99916540D01*
X105228705Y-99916540D02*
X105152515Y-99916540D01*
X105152515Y-99916540D02*
X105076324Y-99954636D01*
X105076324Y-99954636D02*
X105038229Y-100030826D01*
X105038229Y-100030826D02*
X105038229Y-100221302D01*
X105038229Y-100221302D02*
X105000134Y-100297493D01*
X104809657Y-100678446D02*
X105342991Y-100678446D01*
X104885848Y-100678446D02*
X104847753Y-100716541D01*
X104847753Y-100716541D02*
X104809657Y-100792731D01*
X104809657Y-100792731D02*
X104809657Y-100907017D01*
X104809657Y-100907017D02*
X104847753Y-100983208D01*
X104847753Y-100983208D02*
X104923943Y-101021303D01*
X104923943Y-101021303D02*
X105342991Y-101021303D01*
X105342991Y-101745113D02*
X104542991Y-101745113D01*
X105304896Y-101745113D02*
X105342991Y-101668922D01*
X105342991Y-101668922D02*
X105342991Y-101516541D01*
X105342991Y-101516541D02*
X105304896Y-101440351D01*
X105304896Y-101440351D02*
X105266800Y-101402256D01*
X105266800Y-101402256D02*
X105190610Y-101364160D01*
X105190610Y-101364160D02*
X104962038Y-101364160D01*
X104962038Y-101364160D02*
X104885848Y-101402256D01*
X104885848Y-101402256D02*
X104847753Y-101440351D01*
X104847753Y-101440351D02*
X104809657Y-101516541D01*
X104809657Y-101516541D02*
X104809657Y-101668922D01*
X104809657Y-101668922D02*
X104847753Y-101745113D01*
X105342991Y-102849875D02*
X105304896Y-102773685D01*
X105304896Y-102773685D02*
X105266800Y-102735590D01*
X105266800Y-102735590D02*
X105190610Y-102697494D01*
X105190610Y-102697494D02*
X104962038Y-102697494D01*
X104962038Y-102697494D02*
X104885848Y-102735590D01*
X104885848Y-102735590D02*
X104847753Y-102773685D01*
X104847753Y-102773685D02*
X104809657Y-102849875D01*
X104809657Y-102849875D02*
X104809657Y-102964161D01*
X104809657Y-102964161D02*
X104847753Y-103040352D01*
X104847753Y-103040352D02*
X104885848Y-103078447D01*
X104885848Y-103078447D02*
X104962038Y-103116542D01*
X104962038Y-103116542D02*
X105190610Y-103116542D01*
X105190610Y-103116542D02*
X105266800Y-103078447D01*
X105266800Y-103078447D02*
X105304896Y-103040352D01*
X105304896Y-103040352D02*
X105342991Y-102964161D01*
X105342991Y-102964161D02*
X105342991Y-102849875D01*
X104809657Y-103459400D02*
X105342991Y-103459400D01*
X104885848Y-103459400D02*
X104847753Y-103497495D01*
X104847753Y-103497495D02*
X104809657Y-103573685D01*
X104809657Y-103573685D02*
X104809657Y-103687971D01*
X104809657Y-103687971D02*
X104847753Y-103764162D01*
X104847753Y-103764162D02*
X104923943Y-103802257D01*
X104923943Y-103802257D02*
X105342991Y-103802257D01*
X104809657Y-104678448D02*
X104809657Y-104983210D01*
X104542991Y-104792734D02*
X105228705Y-104792734D01*
X105228705Y-104792734D02*
X105304896Y-104830829D01*
X105304896Y-104830829D02*
X105342991Y-104907019D01*
X105342991Y-104907019D02*
X105342991Y-104983210D01*
X105342991Y-105249877D02*
X104542991Y-105249877D01*
X105342991Y-105592734D02*
X104923943Y-105592734D01*
X104923943Y-105592734D02*
X104847753Y-105554639D01*
X104847753Y-105554639D02*
X104809657Y-105478448D01*
X104809657Y-105478448D02*
X104809657Y-105364162D01*
X104809657Y-105364162D02*
X104847753Y-105287972D01*
X104847753Y-105287972D02*
X104885848Y-105249877D01*
X105304896Y-106278449D02*
X105342991Y-106202258D01*
X105342991Y-106202258D02*
X105342991Y-106049877D01*
X105342991Y-106049877D02*
X105304896Y-105973687D01*
X105304896Y-105973687D02*
X105228705Y-105935591D01*
X105228705Y-105935591D02*
X104923943Y-105935591D01*
X104923943Y-105935591D02*
X104847753Y-105973687D01*
X104847753Y-105973687D02*
X104809657Y-106049877D01*
X104809657Y-106049877D02*
X104809657Y-106202258D01*
X104809657Y-106202258D02*
X104847753Y-106278449D01*
X104847753Y-106278449D02*
X104923943Y-106316544D01*
X104923943Y-106316544D02*
X105000134Y-106316544D01*
X105000134Y-106316544D02*
X105076324Y-105935591D01*
X105304896Y-107230829D02*
X105342991Y-107307020D01*
X105342991Y-107307020D02*
X105342991Y-107459401D01*
X105342991Y-107459401D02*
X105304896Y-107535591D01*
X105304896Y-107535591D02*
X105228705Y-107573687D01*
X105228705Y-107573687D02*
X105190610Y-107573687D01*
X105190610Y-107573687D02*
X105114419Y-107535591D01*
X105114419Y-107535591D02*
X105076324Y-107459401D01*
X105076324Y-107459401D02*
X105076324Y-107345115D01*
X105076324Y-107345115D02*
X105038229Y-107268925D01*
X105038229Y-107268925D02*
X104962038Y-107230829D01*
X104962038Y-107230829D02*
X104923943Y-107230829D01*
X104923943Y-107230829D02*
X104847753Y-107268925D01*
X104847753Y-107268925D02*
X104809657Y-107345115D01*
X104809657Y-107345115D02*
X104809657Y-107459401D01*
X104809657Y-107459401D02*
X104847753Y-107535591D01*
X105342991Y-107916544D02*
X104542991Y-107916544D01*
X105342991Y-108259401D02*
X104923943Y-108259401D01*
X104923943Y-108259401D02*
X104847753Y-108221306D01*
X104847753Y-108221306D02*
X104809657Y-108145115D01*
X104809657Y-108145115D02*
X104809657Y-108030829D01*
X104809657Y-108030829D02*
X104847753Y-107954639D01*
X104847753Y-107954639D02*
X104885848Y-107916544D01*
X105342991Y-108754639D02*
X105304896Y-108678449D01*
X105304896Y-108678449D02*
X105266800Y-108640354D01*
X105266800Y-108640354D02*
X105190610Y-108602258D01*
X105190610Y-108602258D02*
X104962038Y-108602258D01*
X104962038Y-108602258D02*
X104885848Y-108640354D01*
X104885848Y-108640354D02*
X104847753Y-108678449D01*
X104847753Y-108678449D02*
X104809657Y-108754639D01*
X104809657Y-108754639D02*
X104809657Y-108868925D01*
X104809657Y-108868925D02*
X104847753Y-108945116D01*
X104847753Y-108945116D02*
X104885848Y-108983211D01*
X104885848Y-108983211D02*
X104962038Y-109021306D01*
X104962038Y-109021306D02*
X105190610Y-109021306D01*
X105190610Y-109021306D02*
X105266800Y-108983211D01*
X105266800Y-108983211D02*
X105304896Y-108945116D01*
X105304896Y-108945116D02*
X105342991Y-108868925D01*
X105342991Y-108868925D02*
X105342991Y-108754639D01*
X104809657Y-109707021D02*
X105342991Y-109707021D01*
X104809657Y-109364164D02*
X105228705Y-109364164D01*
X105228705Y-109364164D02*
X105304896Y-109402259D01*
X105304896Y-109402259D02*
X105342991Y-109478449D01*
X105342991Y-109478449D02*
X105342991Y-109592735D01*
X105342991Y-109592735D02*
X105304896Y-109668926D01*
X105304896Y-109668926D02*
X105266800Y-109707021D01*
X105342991Y-110202259D02*
X105304896Y-110126069D01*
X105304896Y-110126069D02*
X105228705Y-110087974D01*
X105228705Y-110087974D02*
X104542991Y-110087974D01*
X105342991Y-110849879D02*
X104542991Y-110849879D01*
X105304896Y-110849879D02*
X105342991Y-110773688D01*
X105342991Y-110773688D02*
X105342991Y-110621307D01*
X105342991Y-110621307D02*
X105304896Y-110545117D01*
X105304896Y-110545117D02*
X105266800Y-110507022D01*
X105266800Y-110507022D02*
X105190610Y-110468926D01*
X105190610Y-110468926D02*
X104962038Y-110468926D01*
X104962038Y-110468926D02*
X104885848Y-110507022D01*
X104885848Y-110507022D02*
X104847753Y-110545117D01*
X104847753Y-110545117D02*
X104809657Y-110621307D01*
X104809657Y-110621307D02*
X104809657Y-110773688D01*
X104809657Y-110773688D02*
X104847753Y-110849879D01*
X105304896Y-111535594D02*
X105342991Y-111459403D01*
X105342991Y-111459403D02*
X105342991Y-111307022D01*
X105342991Y-111307022D02*
X105304896Y-111230832D01*
X105304896Y-111230832D02*
X105228705Y-111192736D01*
X105228705Y-111192736D02*
X104923943Y-111192736D01*
X104923943Y-111192736D02*
X104847753Y-111230832D01*
X104847753Y-111230832D02*
X104809657Y-111307022D01*
X104809657Y-111307022D02*
X104809657Y-111459403D01*
X104809657Y-111459403D02*
X104847753Y-111535594D01*
X104847753Y-111535594D02*
X104923943Y-111573689D01*
X104923943Y-111573689D02*
X105000134Y-111573689D01*
X105000134Y-111573689D02*
X105076324Y-111192736D01*
X105342991Y-111916546D02*
X104809657Y-111916546D01*
X104962038Y-111916546D02*
X104885848Y-111954641D01*
X104885848Y-111954641D02*
X104847753Y-111992736D01*
X104847753Y-111992736D02*
X104809657Y-112068927D01*
X104809657Y-112068927D02*
X104809657Y-112145117D01*
X105304896Y-112373688D02*
X105342991Y-112449879D01*
X105342991Y-112449879D02*
X105342991Y-112602260D01*
X105342991Y-112602260D02*
X105304896Y-112678450D01*
X105304896Y-112678450D02*
X105228705Y-112716546D01*
X105228705Y-112716546D02*
X105190610Y-112716546D01*
X105190610Y-112716546D02*
X105114419Y-112678450D01*
X105114419Y-112678450D02*
X105076324Y-112602260D01*
X105076324Y-112602260D02*
X105076324Y-112487974D01*
X105076324Y-112487974D02*
X105038229Y-112411784D01*
X105038229Y-112411784D02*
X104962038Y-112373688D01*
X104962038Y-112373688D02*
X104923943Y-112373688D01*
X104923943Y-112373688D02*
X104847753Y-112411784D01*
X104847753Y-112411784D02*
X104809657Y-112487974D01*
X104809657Y-112487974D02*
X104809657Y-112602260D01*
X104809657Y-112602260D02*
X104847753Y-112678450D01*
X105342991Y-113783212D02*
X105304896Y-113707022D01*
X105304896Y-113707022D02*
X105266800Y-113668927D01*
X105266800Y-113668927D02*
X105190610Y-113630831D01*
X105190610Y-113630831D02*
X104962038Y-113630831D01*
X104962038Y-113630831D02*
X104885848Y-113668927D01*
X104885848Y-113668927D02*
X104847753Y-113707022D01*
X104847753Y-113707022D02*
X104809657Y-113783212D01*
X104809657Y-113783212D02*
X104809657Y-113897498D01*
X104809657Y-113897498D02*
X104847753Y-113973689D01*
X104847753Y-113973689D02*
X104885848Y-114011784D01*
X104885848Y-114011784D02*
X104962038Y-114049879D01*
X104962038Y-114049879D02*
X105190610Y-114049879D01*
X105190610Y-114049879D02*
X105266800Y-114011784D01*
X105266800Y-114011784D02*
X105304896Y-113973689D01*
X105304896Y-113973689D02*
X105342991Y-113897498D01*
X105342991Y-113897498D02*
X105342991Y-113783212D01*
X104809657Y-114278451D02*
X104809657Y-114583213D01*
X105342991Y-114392737D02*
X104657276Y-114392737D01*
X104657276Y-114392737D02*
X104581086Y-114430832D01*
X104581086Y-114430832D02*
X104542991Y-114507022D01*
X104542991Y-114507022D02*
X104542991Y-114583213D01*
X104809657Y-115802261D02*
X105457276Y-115802261D01*
X105457276Y-115802261D02*
X105533467Y-115764166D01*
X105533467Y-115764166D02*
X105571562Y-115726070D01*
X105571562Y-115726070D02*
X105609657Y-115649880D01*
X105609657Y-115649880D02*
X105609657Y-115535594D01*
X105609657Y-115535594D02*
X105571562Y-115459404D01*
X105304896Y-115802261D02*
X105342991Y-115726070D01*
X105342991Y-115726070D02*
X105342991Y-115573689D01*
X105342991Y-115573689D02*
X105304896Y-115497499D01*
X105304896Y-115497499D02*
X105266800Y-115459404D01*
X105266800Y-115459404D02*
X105190610Y-115421308D01*
X105190610Y-115421308D02*
X104962038Y-115421308D01*
X104962038Y-115421308D02*
X104885848Y-115459404D01*
X104885848Y-115459404D02*
X104847753Y-115497499D01*
X104847753Y-115497499D02*
X104809657Y-115573689D01*
X104809657Y-115573689D02*
X104809657Y-115726070D01*
X104809657Y-115726070D02*
X104847753Y-115802261D01*
X105342991Y-116183214D02*
X104809657Y-116183214D01*
X104542991Y-116183214D02*
X104581086Y-116145118D01*
X104581086Y-116145118D02*
X104619181Y-116183214D01*
X104619181Y-116183214D02*
X104581086Y-116221309D01*
X104581086Y-116221309D02*
X104542991Y-116183214D01*
X104542991Y-116183214D02*
X104619181Y-116183214D01*
X105342991Y-116907023D02*
X104923943Y-116907023D01*
X104923943Y-116907023D02*
X104847753Y-116868928D01*
X104847753Y-116868928D02*
X104809657Y-116792737D01*
X104809657Y-116792737D02*
X104809657Y-116640356D01*
X104809657Y-116640356D02*
X104847753Y-116564166D01*
X105304896Y-116907023D02*
X105342991Y-116830832D01*
X105342991Y-116830832D02*
X105342991Y-116640356D01*
X105342991Y-116640356D02*
X105304896Y-116564166D01*
X105304896Y-116564166D02*
X105228705Y-116526070D01*
X105228705Y-116526070D02*
X105152515Y-116526070D01*
X105152515Y-116526070D02*
X105076324Y-116564166D01*
X105076324Y-116564166D02*
X105038229Y-116640356D01*
X105038229Y-116640356D02*
X105038229Y-116830832D01*
X105038229Y-116830832D02*
X105000134Y-116907023D01*
X104809657Y-117287976D02*
X105342991Y-117287976D01*
X104885848Y-117287976D02*
X104847753Y-117326071D01*
X104847753Y-117326071D02*
X104809657Y-117402261D01*
X104809657Y-117402261D02*
X104809657Y-117516547D01*
X104809657Y-117516547D02*
X104847753Y-117592738D01*
X104847753Y-117592738D02*
X104923943Y-117630833D01*
X104923943Y-117630833D02*
X105342991Y-117630833D01*
X104809657Y-117897500D02*
X104809657Y-118202262D01*
X104542991Y-118011786D02*
X105228705Y-118011786D01*
X105228705Y-118011786D02*
X105304896Y-118049881D01*
X105304896Y-118049881D02*
X105342991Y-118126071D01*
X105342991Y-118126071D02*
X105342991Y-118202262D01*
X105304896Y-118430833D02*
X105342991Y-118507024D01*
X105342991Y-118507024D02*
X105342991Y-118659405D01*
X105342991Y-118659405D02*
X105304896Y-118735595D01*
X105304896Y-118735595D02*
X105228705Y-118773691D01*
X105228705Y-118773691D02*
X105190610Y-118773691D01*
X105190610Y-118773691D02*
X105114419Y-118735595D01*
X105114419Y-118735595D02*
X105076324Y-118659405D01*
X105076324Y-118659405D02*
X105076324Y-118545119D01*
X105076324Y-118545119D02*
X105038229Y-118468929D01*
X105038229Y-118468929D02*
X104962038Y-118430833D01*
X104962038Y-118430833D02*
X104923943Y-118430833D01*
X104923943Y-118430833D02*
X104847753Y-118468929D01*
X104847753Y-118468929D02*
X104809657Y-118545119D01*
X104809657Y-118545119D02*
X104809657Y-118659405D01*
X104809657Y-118659405D02*
X104847753Y-118735595D01*
X105266800Y-119116548D02*
X105304896Y-119154643D01*
X105304896Y-119154643D02*
X105342991Y-119116548D01*
X105342991Y-119116548D02*
X105304896Y-119078452D01*
X105304896Y-119078452D02*
X105266800Y-119116548D01*
X105266800Y-119116548D02*
X105342991Y-119116548D01*
X106630946Y-96640350D02*
X105830946Y-96640350D01*
X106630946Y-96983207D02*
X106211898Y-96983207D01*
X106211898Y-96983207D02*
X106135708Y-96945112D01*
X106135708Y-96945112D02*
X106097612Y-96868921D01*
X106097612Y-96868921D02*
X106097612Y-96754635D01*
X106097612Y-96754635D02*
X106135708Y-96678445D01*
X106135708Y-96678445D02*
X106173803Y-96640350D01*
X106097612Y-97249874D02*
X106097612Y-97554636D01*
X105830946Y-97364160D02*
X106516660Y-97364160D01*
X106516660Y-97364160D02*
X106592851Y-97402255D01*
X106592851Y-97402255D02*
X106630946Y-97478445D01*
X106630946Y-97478445D02*
X106630946Y-97554636D01*
X106097612Y-97707017D02*
X106097612Y-98011779D01*
X105830946Y-97821303D02*
X106516660Y-97821303D01*
X106516660Y-97821303D02*
X106592851Y-97859398D01*
X106592851Y-97859398D02*
X106630946Y-97935588D01*
X106630946Y-97935588D02*
X106630946Y-98011779D01*
X106097612Y-98278446D02*
X106897612Y-98278446D01*
X106135708Y-98278446D02*
X106097612Y-98354636D01*
X106097612Y-98354636D02*
X106097612Y-98507017D01*
X106097612Y-98507017D02*
X106135708Y-98583208D01*
X106135708Y-98583208D02*
X106173803Y-98621303D01*
X106173803Y-98621303D02*
X106249993Y-98659398D01*
X106249993Y-98659398D02*
X106478565Y-98659398D01*
X106478565Y-98659398D02*
X106554755Y-98621303D01*
X106554755Y-98621303D02*
X106592851Y-98583208D01*
X106592851Y-98583208D02*
X106630946Y-98507017D01*
X106630946Y-98507017D02*
X106630946Y-98354636D01*
X106630946Y-98354636D02*
X106592851Y-98278446D01*
X106592851Y-98964160D02*
X106630946Y-99040351D01*
X106630946Y-99040351D02*
X106630946Y-99192732D01*
X106630946Y-99192732D02*
X106592851Y-99268922D01*
X106592851Y-99268922D02*
X106516660Y-99307018D01*
X106516660Y-99307018D02*
X106478565Y-99307018D01*
X106478565Y-99307018D02*
X106402374Y-99268922D01*
X106402374Y-99268922D02*
X106364279Y-99192732D01*
X106364279Y-99192732D02*
X106364279Y-99078446D01*
X106364279Y-99078446D02*
X106326184Y-99002256D01*
X106326184Y-99002256D02*
X106249993Y-98964160D01*
X106249993Y-98964160D02*
X106211898Y-98964160D01*
X106211898Y-98964160D02*
X106135708Y-99002256D01*
X106135708Y-99002256D02*
X106097612Y-99078446D01*
X106097612Y-99078446D02*
X106097612Y-99192732D01*
X106097612Y-99192732D02*
X106135708Y-99268922D01*
X106554755Y-99649875D02*
X106592851Y-99687970D01*
X106592851Y-99687970D02*
X106630946Y-99649875D01*
X106630946Y-99649875D02*
X106592851Y-99611779D01*
X106592851Y-99611779D02*
X106554755Y-99649875D01*
X106554755Y-99649875D02*
X106630946Y-99649875D01*
X106135708Y-99649875D02*
X106173803Y-99687970D01*
X106173803Y-99687970D02*
X106211898Y-99649875D01*
X106211898Y-99649875D02*
X106173803Y-99611779D01*
X106173803Y-99611779D02*
X106135708Y-99649875D01*
X106135708Y-99649875D02*
X106211898Y-99649875D01*
X105792851Y-100602255D02*
X106821422Y-99916541D01*
X105792851Y-101440350D02*
X106821422Y-100754636D01*
X106097612Y-101707017D02*
X106897612Y-101707017D01*
X106135708Y-101707017D02*
X106097612Y-101783207D01*
X106097612Y-101783207D02*
X106097612Y-101935588D01*
X106097612Y-101935588D02*
X106135708Y-102011779D01*
X106135708Y-102011779D02*
X106173803Y-102049874D01*
X106173803Y-102049874D02*
X106249993Y-102087969D01*
X106249993Y-102087969D02*
X106478565Y-102087969D01*
X106478565Y-102087969D02*
X106554755Y-102049874D01*
X106554755Y-102049874D02*
X106592851Y-102011779D01*
X106592851Y-102011779D02*
X106630946Y-101935588D01*
X106630946Y-101935588D02*
X106630946Y-101783207D01*
X106630946Y-101783207D02*
X106592851Y-101707017D01*
X106630946Y-102430827D02*
X106097612Y-102430827D01*
X106249993Y-102430827D02*
X106173803Y-102468922D01*
X106173803Y-102468922D02*
X106135708Y-102507017D01*
X106135708Y-102507017D02*
X106097612Y-102583208D01*
X106097612Y-102583208D02*
X106097612Y-102659398D01*
X106630946Y-103040350D02*
X106592851Y-102964160D01*
X106592851Y-102964160D02*
X106554755Y-102926065D01*
X106554755Y-102926065D02*
X106478565Y-102887969D01*
X106478565Y-102887969D02*
X106249993Y-102887969D01*
X106249993Y-102887969D02*
X106173803Y-102926065D01*
X106173803Y-102926065D02*
X106135708Y-102964160D01*
X106135708Y-102964160D02*
X106097612Y-103040350D01*
X106097612Y-103040350D02*
X106097612Y-103154636D01*
X106097612Y-103154636D02*
X106135708Y-103230827D01*
X106135708Y-103230827D02*
X106173803Y-103268922D01*
X106173803Y-103268922D02*
X106249993Y-103307017D01*
X106249993Y-103307017D02*
X106478565Y-103307017D01*
X106478565Y-103307017D02*
X106554755Y-103268922D01*
X106554755Y-103268922D02*
X106592851Y-103230827D01*
X106592851Y-103230827D02*
X106630946Y-103154636D01*
X106630946Y-103154636D02*
X106630946Y-103040350D01*
X106097612Y-103649875D02*
X106783327Y-103649875D01*
X106783327Y-103649875D02*
X106859517Y-103611779D01*
X106859517Y-103611779D02*
X106897612Y-103535589D01*
X106897612Y-103535589D02*
X106897612Y-103497494D01*
X105830946Y-103649875D02*
X105869041Y-103611779D01*
X105869041Y-103611779D02*
X105907136Y-103649875D01*
X105907136Y-103649875D02*
X105869041Y-103687970D01*
X105869041Y-103687970D02*
X105830946Y-103649875D01*
X105830946Y-103649875D02*
X105907136Y-103649875D01*
X106592851Y-104335589D02*
X106630946Y-104259398D01*
X106630946Y-104259398D02*
X106630946Y-104107017D01*
X106630946Y-104107017D02*
X106592851Y-104030827D01*
X106592851Y-104030827D02*
X106516660Y-103992731D01*
X106516660Y-103992731D02*
X106211898Y-103992731D01*
X106211898Y-103992731D02*
X106135708Y-104030827D01*
X106135708Y-104030827D02*
X106097612Y-104107017D01*
X106097612Y-104107017D02*
X106097612Y-104259398D01*
X106097612Y-104259398D02*
X106135708Y-104335589D01*
X106135708Y-104335589D02*
X106211898Y-104373684D01*
X106211898Y-104373684D02*
X106288089Y-104373684D01*
X106288089Y-104373684D02*
X106364279Y-103992731D01*
X106592851Y-105059398D02*
X106630946Y-104983207D01*
X106630946Y-104983207D02*
X106630946Y-104830826D01*
X106630946Y-104830826D02*
X106592851Y-104754636D01*
X106592851Y-104754636D02*
X106554755Y-104716541D01*
X106554755Y-104716541D02*
X106478565Y-104678445D01*
X106478565Y-104678445D02*
X106249993Y-104678445D01*
X106249993Y-104678445D02*
X106173803Y-104716541D01*
X106173803Y-104716541D02*
X106135708Y-104754636D01*
X106135708Y-104754636D02*
X106097612Y-104830826D01*
X106097612Y-104830826D02*
X106097612Y-104983207D01*
X106097612Y-104983207D02*
X106135708Y-105059398D01*
X106097612Y-105287969D02*
X106097612Y-105592731D01*
X105830946Y-105402255D02*
X106516660Y-105402255D01*
X106516660Y-105402255D02*
X106592851Y-105440350D01*
X106592851Y-105440350D02*
X106630946Y-105516540D01*
X106630946Y-105516540D02*
X106630946Y-105592731D01*
X106592851Y-105821302D02*
X106630946Y-105897493D01*
X106630946Y-105897493D02*
X106630946Y-106049874D01*
X106630946Y-106049874D02*
X106592851Y-106126064D01*
X106592851Y-106126064D02*
X106516660Y-106164160D01*
X106516660Y-106164160D02*
X106478565Y-106164160D01*
X106478565Y-106164160D02*
X106402374Y-106126064D01*
X106402374Y-106126064D02*
X106364279Y-106049874D01*
X106364279Y-106049874D02*
X106364279Y-105935588D01*
X106364279Y-105935588D02*
X106326184Y-105859398D01*
X106326184Y-105859398D02*
X106249993Y-105821302D01*
X106249993Y-105821302D02*
X106211898Y-105821302D01*
X106211898Y-105821302D02*
X106135708Y-105859398D01*
X106135708Y-105859398D02*
X106097612Y-105935588D01*
X106097612Y-105935588D02*
X106097612Y-106049874D01*
X106097612Y-106049874D02*
X106135708Y-106126064D01*
X106554755Y-106507017D02*
X106592851Y-106545112D01*
X106592851Y-106545112D02*
X106630946Y-106507017D01*
X106630946Y-106507017D02*
X106592851Y-106468921D01*
X106592851Y-106468921D02*
X106554755Y-106507017D01*
X106554755Y-106507017D02*
X106630946Y-106507017D01*
X106630946Y-107230826D02*
X106211898Y-107230826D01*
X106211898Y-107230826D02*
X106135708Y-107192731D01*
X106135708Y-107192731D02*
X106097612Y-107116540D01*
X106097612Y-107116540D02*
X106097612Y-106964159D01*
X106097612Y-106964159D02*
X106135708Y-106887969D01*
X106592851Y-107230826D02*
X106630946Y-107154635D01*
X106630946Y-107154635D02*
X106630946Y-106964159D01*
X106630946Y-106964159D02*
X106592851Y-106887969D01*
X106592851Y-106887969D02*
X106516660Y-106849873D01*
X106516660Y-106849873D02*
X106440470Y-106849873D01*
X106440470Y-106849873D02*
X106364279Y-106887969D01*
X106364279Y-106887969D02*
X106326184Y-106964159D01*
X106326184Y-106964159D02*
X106326184Y-107154635D01*
X106326184Y-107154635D02*
X106288089Y-107230826D01*
X106630946Y-107611779D02*
X106097612Y-107611779D01*
X106173803Y-107611779D02*
X106135708Y-107649874D01*
X106135708Y-107649874D02*
X106097612Y-107726064D01*
X106097612Y-107726064D02*
X106097612Y-107840350D01*
X106097612Y-107840350D02*
X106135708Y-107916541D01*
X106135708Y-107916541D02*
X106211898Y-107954636D01*
X106211898Y-107954636D02*
X106630946Y-107954636D01*
X106211898Y-107954636D02*
X106135708Y-107992731D01*
X106135708Y-107992731D02*
X106097612Y-108068922D01*
X106097612Y-108068922D02*
X106097612Y-108183207D01*
X106097612Y-108183207D02*
X106135708Y-108259398D01*
X106135708Y-108259398D02*
X106211898Y-108297493D01*
X106211898Y-108297493D02*
X106630946Y-108297493D01*
X106630946Y-108678446D02*
X106097612Y-108678446D01*
X105830946Y-108678446D02*
X105869041Y-108640350D01*
X105869041Y-108640350D02*
X105907136Y-108678446D01*
X105907136Y-108678446D02*
X105869041Y-108716541D01*
X105869041Y-108716541D02*
X105830946Y-108678446D01*
X105830946Y-108678446D02*
X105907136Y-108678446D01*
X106097612Y-109402255D02*
X106745231Y-109402255D01*
X106745231Y-109402255D02*
X106821422Y-109364160D01*
X106821422Y-109364160D02*
X106859517Y-109326064D01*
X106859517Y-109326064D02*
X106897612Y-109249874D01*
X106897612Y-109249874D02*
X106897612Y-109135588D01*
X106897612Y-109135588D02*
X106859517Y-109059398D01*
X106592851Y-109402255D02*
X106630946Y-109326064D01*
X106630946Y-109326064D02*
X106630946Y-109173683D01*
X106630946Y-109173683D02*
X106592851Y-109097493D01*
X106592851Y-109097493D02*
X106554755Y-109059398D01*
X106554755Y-109059398D02*
X106478565Y-109021302D01*
X106478565Y-109021302D02*
X106249993Y-109021302D01*
X106249993Y-109021302D02*
X106173803Y-109059398D01*
X106173803Y-109059398D02*
X106135708Y-109097493D01*
X106135708Y-109097493D02*
X106097612Y-109173683D01*
X106097612Y-109173683D02*
X106097612Y-109326064D01*
X106097612Y-109326064D02*
X106135708Y-109402255D01*
X106630946Y-110126065D02*
X106211898Y-110126065D01*
X106211898Y-110126065D02*
X106135708Y-110087970D01*
X106135708Y-110087970D02*
X106097612Y-110011779D01*
X106097612Y-110011779D02*
X106097612Y-109859398D01*
X106097612Y-109859398D02*
X106135708Y-109783208D01*
X106592851Y-110126065D02*
X106630946Y-110049874D01*
X106630946Y-110049874D02*
X106630946Y-109859398D01*
X106630946Y-109859398D02*
X106592851Y-109783208D01*
X106592851Y-109783208D02*
X106516660Y-109745112D01*
X106516660Y-109745112D02*
X106440470Y-109745112D01*
X106440470Y-109745112D02*
X106364279Y-109783208D01*
X106364279Y-109783208D02*
X106326184Y-109859398D01*
X106326184Y-109859398D02*
X106326184Y-110049874D01*
X106326184Y-110049874D02*
X106288089Y-110126065D01*
X106326184Y-110507018D02*
X106326184Y-111116542D01*
X106630946Y-111497494D02*
X105830946Y-111497494D01*
X106630946Y-111840351D02*
X106211898Y-111840351D01*
X106211898Y-111840351D02*
X106135708Y-111802256D01*
X106135708Y-111802256D02*
X106097612Y-111726065D01*
X106097612Y-111726065D02*
X106097612Y-111611779D01*
X106097612Y-111611779D02*
X106135708Y-111535589D01*
X106135708Y-111535589D02*
X106173803Y-111497494D01*
X106630946Y-112564161D02*
X106211898Y-112564161D01*
X106211898Y-112564161D02*
X106135708Y-112526066D01*
X106135708Y-112526066D02*
X106097612Y-112449875D01*
X106097612Y-112449875D02*
X106097612Y-112297494D01*
X106097612Y-112297494D02*
X106135708Y-112221304D01*
X106592851Y-112564161D02*
X106630946Y-112487970D01*
X106630946Y-112487970D02*
X106630946Y-112297494D01*
X106630946Y-112297494D02*
X106592851Y-112221304D01*
X106592851Y-112221304D02*
X106516660Y-112183208D01*
X106516660Y-112183208D02*
X106440470Y-112183208D01*
X106440470Y-112183208D02*
X106364279Y-112221304D01*
X106364279Y-112221304D02*
X106326184Y-112297494D01*
X106326184Y-112297494D02*
X106326184Y-112487970D01*
X106326184Y-112487970D02*
X106288089Y-112564161D01*
X106630946Y-112945114D02*
X106097612Y-112945114D01*
X106249993Y-112945114D02*
X106173803Y-112983209D01*
X106173803Y-112983209D02*
X106135708Y-113021304D01*
X106135708Y-113021304D02*
X106097612Y-113097495D01*
X106097612Y-113097495D02*
X106097612Y-113173685D01*
X106630946Y-113783209D02*
X105830946Y-113783209D01*
X106592851Y-113783209D02*
X106630946Y-113707018D01*
X106630946Y-113707018D02*
X106630946Y-113554637D01*
X106630946Y-113554637D02*
X106592851Y-113478447D01*
X106592851Y-113478447D02*
X106554755Y-113440352D01*
X106554755Y-113440352D02*
X106478565Y-113402256D01*
X106478565Y-113402256D02*
X106249993Y-113402256D01*
X106249993Y-113402256D02*
X106173803Y-113440352D01*
X106173803Y-113440352D02*
X106135708Y-113478447D01*
X106135708Y-113478447D02*
X106097612Y-113554637D01*
X106097612Y-113554637D02*
X106097612Y-113707018D01*
X106097612Y-113707018D02*
X106135708Y-113783209D01*
X106097612Y-114087971D02*
X106630946Y-114240352D01*
X106630946Y-114240352D02*
X106249993Y-114392733D01*
X106249993Y-114392733D02*
X106630946Y-114545114D01*
X106630946Y-114545114D02*
X106097612Y-114697495D01*
X106630946Y-115345114D02*
X106211898Y-115345114D01*
X106211898Y-115345114D02*
X106135708Y-115307019D01*
X106135708Y-115307019D02*
X106097612Y-115230828D01*
X106097612Y-115230828D02*
X106097612Y-115078447D01*
X106097612Y-115078447D02*
X106135708Y-115002257D01*
X106592851Y-115345114D02*
X106630946Y-115268923D01*
X106630946Y-115268923D02*
X106630946Y-115078447D01*
X106630946Y-115078447D02*
X106592851Y-115002257D01*
X106592851Y-115002257D02*
X106516660Y-114964161D01*
X106516660Y-114964161D02*
X106440470Y-114964161D01*
X106440470Y-114964161D02*
X106364279Y-115002257D01*
X106364279Y-115002257D02*
X106326184Y-115078447D01*
X106326184Y-115078447D02*
X106326184Y-115268923D01*
X106326184Y-115268923D02*
X106288089Y-115345114D01*
X106630946Y-115726067D02*
X106097612Y-115726067D01*
X106249993Y-115726067D02*
X106173803Y-115764162D01*
X106173803Y-115764162D02*
X106135708Y-115802257D01*
X106135708Y-115802257D02*
X106097612Y-115878448D01*
X106097612Y-115878448D02*
X106097612Y-115954638D01*
X106592851Y-116526067D02*
X106630946Y-116449876D01*
X106630946Y-116449876D02*
X106630946Y-116297495D01*
X106630946Y-116297495D02*
X106592851Y-116221305D01*
X106592851Y-116221305D02*
X106516660Y-116183209D01*
X106516660Y-116183209D02*
X106211898Y-116183209D01*
X106211898Y-116183209D02*
X106135708Y-116221305D01*
X106135708Y-116221305D02*
X106097612Y-116297495D01*
X106097612Y-116297495D02*
X106097612Y-116449876D01*
X106097612Y-116449876D02*
X106135708Y-116526067D01*
X106135708Y-116526067D02*
X106211898Y-116564162D01*
X106211898Y-116564162D02*
X106288089Y-116564162D01*
X106288089Y-116564162D02*
X106364279Y-116183209D01*
X106554755Y-116907019D02*
X106592851Y-116945114D01*
X106592851Y-116945114D02*
X106630946Y-116907019D01*
X106630946Y-116907019D02*
X106592851Y-116868923D01*
X106592851Y-116868923D02*
X106554755Y-116907019D01*
X106554755Y-116907019D02*
X106630946Y-116907019D01*
X106592851Y-117630828D02*
X106630946Y-117554637D01*
X106630946Y-117554637D02*
X106630946Y-117402256D01*
X106630946Y-117402256D02*
X106592851Y-117326066D01*
X106592851Y-117326066D02*
X106554755Y-117287971D01*
X106554755Y-117287971D02*
X106478565Y-117249875D01*
X106478565Y-117249875D02*
X106249993Y-117249875D01*
X106249993Y-117249875D02*
X106173803Y-117287971D01*
X106173803Y-117287971D02*
X106135708Y-117326066D01*
X106135708Y-117326066D02*
X106097612Y-117402256D01*
X106097612Y-117402256D02*
X106097612Y-117554637D01*
X106097612Y-117554637D02*
X106135708Y-117630828D01*
X106630946Y-118087970D02*
X106592851Y-118011780D01*
X106592851Y-118011780D02*
X106554755Y-117973685D01*
X106554755Y-117973685D02*
X106478565Y-117935589D01*
X106478565Y-117935589D02*
X106249993Y-117935589D01*
X106249993Y-117935589D02*
X106173803Y-117973685D01*
X106173803Y-117973685D02*
X106135708Y-118011780D01*
X106135708Y-118011780D02*
X106097612Y-118087970D01*
X106097612Y-118087970D02*
X106097612Y-118202256D01*
X106097612Y-118202256D02*
X106135708Y-118278447D01*
X106135708Y-118278447D02*
X106173803Y-118316542D01*
X106173803Y-118316542D02*
X106249993Y-118354637D01*
X106249993Y-118354637D02*
X106478565Y-118354637D01*
X106478565Y-118354637D02*
X106554755Y-118316542D01*
X106554755Y-118316542D02*
X106592851Y-118278447D01*
X106592851Y-118278447D02*
X106630946Y-118202256D01*
X106630946Y-118202256D02*
X106630946Y-118087970D01*
X106630946Y-118697495D02*
X106097612Y-118697495D01*
X106173803Y-118697495D02*
X106135708Y-118735590D01*
X106135708Y-118735590D02*
X106097612Y-118811780D01*
X106097612Y-118811780D02*
X106097612Y-118926066D01*
X106097612Y-118926066D02*
X106135708Y-119002257D01*
X106135708Y-119002257D02*
X106211898Y-119040352D01*
X106211898Y-119040352D02*
X106630946Y-119040352D01*
X106211898Y-119040352D02*
X106135708Y-119078447D01*
X106135708Y-119078447D02*
X106097612Y-119154638D01*
X106097612Y-119154638D02*
X106097612Y-119268923D01*
X106097612Y-119268923D02*
X106135708Y-119345114D01*
X106135708Y-119345114D02*
X106211898Y-119383209D01*
X106211898Y-119383209D02*
X106630946Y-119383209D01*
%LPC*%
D11*
%TO.C,R1*%
X120137600Y-86360000D03*
X130297600Y-86360000D03*
%TD*%
D12*
%TO.C,CN2*%
X126764200Y-114669100D03*
X124264200Y-124669100D03*
X124264200Y-112169100D03*
X114264200Y-124669100D03*
X119264200Y-114669100D03*
X114264200Y-112129100D03*
X111764200Y-114669100D03*
X119264200Y-109669100D03*
%TD*%
D11*
%TO.C,R4*%
X120137600Y-101600000D03*
X130297600Y-101600000D03*
%TD*%
D13*
%TO.C,Q2*%
X111760000Y-91440000D03*
D14*
X113030000Y-91440000D03*
X114300000Y-91440000D03*
%TD*%
D13*
%TO.C,Q1*%
X111760000Y-86360000D03*
D14*
X113030000Y-86360000D03*
X114300000Y-86360000D03*
%TD*%
D15*
%TO.C,CN1*%
X134615000Y-78077500D03*
X131845000Y-78077500D03*
X129075000Y-78077500D03*
X126305000Y-78077500D03*
X123535000Y-78077500D03*
X120765000Y-78077500D03*
X117995000Y-78077500D03*
X115225000Y-78077500D03*
X112455000Y-78077500D03*
X109685000Y-78077500D03*
X106915000Y-78077500D03*
X104145000Y-78077500D03*
%TD*%
D11*
%TO.C,R3*%
X120137600Y-96520000D03*
X130297600Y-96520000D03*
%TD*%
D13*
%TO.C,Q4*%
X111760000Y-101600000D03*
D14*
X113030000Y-101600000D03*
X114300000Y-101600000D03*
%TD*%
D13*
%TO.C,Q3*%
X111760000Y-96520000D03*
D14*
X113030000Y-96520000D03*
X114300000Y-96520000D03*
%TD*%
D11*
%TO.C,R2*%
X120137600Y-91440000D03*
X130297600Y-91440000D03*
%TD*%
%LPD*%
M02*
