%TF.GenerationSoftware,KiCad,Pcbnew,9.0.5-1.fc42*%
%TF.CreationDate,2025-11-09T17:22:24+08:00*%
%TF.ProjectId,b5s4-XA1541-active,62357334-2d58-4413-9135-34312d616374,1.1*%
%TF.SameCoordinates,Original*%
%TF.FileFunction,Copper,L1,Top*%
%TF.FilePolarity,Positive*%
%FSLAX46Y46*%
G04 Gerber Fmt 4.6, Leading zero omitted, Abs format (unit mm)*
G04 Created by KiCad (PCBNEW 9.0.5-1.fc42) date 2025-11-09 17:22:24*
%MOMM*%
%LPD*%
G01*
G04 APERTURE LIST*
%TA.AperFunction,ComponentPad*%
%ADD10C,1.600000*%
%TD*%
%TA.AperFunction,ComponentPad*%
%ADD11C,3.000000*%
%TD*%
%TA.AperFunction,ComponentPad*%
%ADD12R,1.050000X1.500000*%
%TD*%
%TA.AperFunction,ComponentPad*%
%ADD13O,1.050000X1.500000*%
%TD*%
%TA.AperFunction,SMDPad,CuDef*%
%ADD14R,1.846667X3.480000*%
%TD*%
%TA.AperFunction,ViaPad*%
%ADD15C,0.600000*%
%TD*%
%TA.AperFunction,Conductor*%
%ADD16C,0.200000*%
%TD*%
G04 APERTURE END LIST*
D10*
%TO.P,R1,1*%
%TO.N,Net-(Q1-B)*%
X120137600Y-86360000D03*
%TO.P,R1,2*%
%TO.N,Net-(CN1-Pin_17)*%
X130297600Y-86360000D03*
%TD*%
D11*
%TO.P,CN2,1,Pin_1*%
%TO.N,unconnected-(CN2-Pin_1-Pad1)*%
X126764200Y-114669100D03*
%TO.P,CN2,2,Pin_2*%
%TO.N,GND*%
X124264200Y-124669100D03*
X124264200Y-112169100D03*
X114264200Y-124669100D03*
%TO.P,CN2,3,Pin_3*%
%TO.N,Net-(CN1-Pin_13)*%
X119264200Y-114669100D03*
%TO.P,CN2,4,Pin_4*%
%TO.N,Net-(CN1-Pin_12)*%
X114264200Y-112129100D03*
%TO.P,CN2,5,Pin_5*%
%TO.N,Net-(CN1-Pin_10)*%
X111764200Y-114669100D03*
%TO.P,CN2,6,Pin_6*%
%TO.N,Net-(CN1-Pin_11)*%
X119264200Y-109669100D03*
%TD*%
D10*
%TO.P,R4,1*%
%TO.N,Net-(Q4-B)*%
X120137600Y-101600000D03*
%TO.P,R4,2*%
%TO.N,Net-(CN1-Pin_1)*%
X130297600Y-101600000D03*
%TD*%
D12*
%TO.P,Q2,1,E*%
%TO.N,GND*%
X111760000Y-91440000D03*
D13*
%TO.P,Q2,2,B*%
%TO.N,Net-(Q2-B)*%
X113030000Y-91440000D03*
%TO.P,Q2,3,C*%
%TO.N,Net-(CN1-Pin_10)*%
X114300000Y-91440000D03*
%TD*%
D12*
%TO.P,Q1,1,E*%
%TO.N,GND*%
X111760000Y-86360000D03*
D13*
%TO.P,Q1,2,B*%
%TO.N,Net-(Q1-B)*%
X113030000Y-86360000D03*
%TO.P,Q1,3,C*%
%TO.N,Net-(CN1-Pin_11)*%
X114300000Y-86360000D03*
%TD*%
D14*
%TO.P,CN1,1,Pin_1*%
%TO.N,Net-(CN1-Pin_1)*%
X136000000Y-78077500D03*
%TO.P,CN1,2,Pin_2*%
%TO.N,unconnected-(CN1-Pin_2-Pad2)*%
X133230000Y-78077500D03*
%TO.P,CN1,3,Pin_3*%
%TO.N,unconnected-(CN1-Pin_3-Pad3)*%
X130460000Y-78077500D03*
%TO.P,CN1,4,Pin_4*%
%TO.N,unconnected-(CN1-Pin_4-Pad4)*%
X127690000Y-78077500D03*
%TO.P,CN1,5,Pin_5*%
%TO.N,unconnected-(CN1-Pin_5-Pad5)*%
X124920000Y-78077500D03*
%TO.P,CN1,6,Pin_6*%
%TO.N,unconnected-(CN1-Pin_6-Pad6)*%
X122150000Y-78077500D03*
%TO.P,CN1,7,Pin_7*%
%TO.N,unconnected-(CN1-Pin_7-Pad7)*%
X119380000Y-78077500D03*
%TO.P,CN1,8,Pin_8*%
%TO.N,unconnected-(CN1-Pin_8-Pad8)*%
X116610000Y-78077500D03*
%TO.P,CN1,9,Pin_9*%
%TO.N,unconnected-(CN1-Pin_9-Pad9)*%
X113840000Y-78077500D03*
%TO.P,CN1,10,Pin_10*%
%TO.N,Net-(CN1-Pin_10)*%
X111070000Y-78077500D03*
%TO.P,CN1,11,Pin_11*%
%TO.N,Net-(CN1-Pin_11)*%
X108300000Y-78077500D03*
%TO.P,CN1,12,Pin_12*%
%TO.N,Net-(CN1-Pin_12)*%
X105530000Y-78077500D03*
%TO.P,CN1,13,Pin_13*%
%TO.N,Net-(CN1-Pin_13)*%
X102760000Y-78077500D03*
%TD*%
D10*
%TO.P,R3,1*%
%TO.N,Net-(Q3-B)*%
X120137600Y-96520000D03*
%TO.P,R3,2*%
%TO.N,Net-(CN1-Pin_14)*%
X130297600Y-96520000D03*
%TD*%
D12*
%TO.P,Q4,1,E*%
%TO.N,GND*%
X111760000Y-101600000D03*
D13*
%TO.P,Q4,2,B*%
%TO.N,Net-(Q4-B)*%
X113030000Y-101600000D03*
%TO.P,Q4,3,C*%
%TO.N,Net-(CN1-Pin_13)*%
X114300000Y-101600000D03*
%TD*%
D12*
%TO.P,Q3,1,E*%
%TO.N,GND*%
X111760000Y-96520000D03*
D13*
%TO.P,Q3,2,B*%
%TO.N,Net-(Q3-B)*%
X113030000Y-96520000D03*
%TO.P,Q3,3,C*%
%TO.N,Net-(CN1-Pin_12)*%
X114300000Y-96520000D03*
%TD*%
D10*
%TO.P,R2,1*%
%TO.N,Net-(Q2-B)*%
X120137600Y-91440000D03*
%TO.P,R2,2*%
%TO.N,Net-(CN1-Pin_16)*%
X130297600Y-91440000D03*
%TD*%
D15*
%TO.N,GND*%
X116840000Y-81280000D03*
X101600000Y-106680000D03*
X116369264Y-98080632D03*
X134148257Y-86863513D03*
X130588364Y-88846887D03*
X114300000Y-119380000D03*
X139700000Y-116840000D03*
X101600000Y-101600000D03*
X132080000Y-121920000D03*
X132080000Y-109220000D03*
X119380000Y-121920000D03*
X99060000Y-101600000D03*
X139700000Y-99060000D03*
X124460000Y-104140000D03*
X116369264Y-93268681D03*
X139700000Y-83820000D03*
X116716071Y-108441501D03*
X99060000Y-78740000D03*
X124460000Y-119380000D03*
X106680000Y-121920000D03*
X132080000Y-114300000D03*
X137160000Y-83820000D03*
X101600000Y-86360000D03*
X99060000Y-109220000D03*
X106909781Y-82607445D03*
X137160000Y-88900000D03*
X99060000Y-86360000D03*
%TO.N,Net-(CN1-Pin_10)*%
X108348400Y-95332200D03*
%TO.N,Net-(CN1-Pin_11)*%
X111792500Y-89000300D03*
%TO.N,Net-(CN1-Pin_14)*%
X132174100Y-82830400D03*
%TO.N,Net-(CN1-Pin_16)*%
X129312300Y-80601600D03*
%TO.N,Net-(CN1-Pin_13)*%
X115830500Y-101129200D03*
%TD*%
D16*
%TO.N,Net-(CN1-Pin_12)*%
X114039000Y-95468300D02*
X114039000Y-96259000D01*
X115126700Y-111266600D02*
X115126700Y-97346700D01*
X114264200Y-112129100D02*
X115126700Y-111266600D01*
X105530000Y-86959300D02*
X114039000Y-95468300D01*
X115126700Y-97346700D02*
X114300000Y-96520000D01*
X105530000Y-78077500D02*
X105530000Y-86959300D01*
X114039000Y-96259000D02*
X114300000Y-96520000D01*
%TO.N,Net-(CN1-Pin_10)*%
X112041443Y-90099186D02*
X112041443Y-89601300D01*
X114300000Y-90388300D02*
X112330557Y-90388300D01*
X111543557Y-88399300D02*
X111343557Y-88599300D01*
X112393500Y-89249243D02*
X112393500Y-88751357D01*
X112041443Y-89601300D02*
X112393500Y-89249243D01*
X109220000Y-88366800D02*
X109220000Y-81969200D01*
X109452500Y-88599300D02*
X109220000Y-88366800D01*
X109220000Y-81969200D02*
X111070000Y-80119200D01*
X112041443Y-88399300D02*
X111543557Y-88399300D01*
X111070000Y-80119200D02*
X111070000Y-78077500D01*
X112393500Y-88751357D02*
X112041443Y-88399300D01*
X111343557Y-88599300D02*
X109452500Y-88599300D01*
X112330557Y-90388300D02*
X112041443Y-90099186D01*
X108348400Y-95332200D02*
X108348400Y-111253300D01*
X108348400Y-111253300D02*
X111764200Y-114669100D01*
X114300000Y-91440000D02*
X114300000Y-90388300D01*
%TO.N,Net-(CN1-Pin_11)*%
X109286400Y-89000300D02*
X108300000Y-88013900D01*
X114300000Y-86360000D02*
X115126700Y-86360000D01*
X117249700Y-107654600D02*
X117249700Y-88483000D01*
X108300000Y-88013900D02*
X108300000Y-78077500D01*
X119264200Y-109669100D02*
X117249700Y-107654600D01*
X111792500Y-89000300D02*
X109286400Y-89000300D01*
X117249700Y-88483000D02*
X115126700Y-86360000D01*
%TO.N,Net-(CN1-Pin_14)*%
X132174100Y-82830400D02*
X132174100Y-91670600D01*
X130297600Y-93547100D02*
X130297600Y-96520000D01*
X132174100Y-91670600D02*
X130297600Y-93547100D01*
%TO.N,Net-(CN1-Pin_16)*%
X129138500Y-90280900D02*
X129138500Y-80775400D01*
X129138500Y-80775400D02*
X129312300Y-80601600D01*
X130297600Y-91440000D02*
X129138500Y-90280900D01*
%TO.N,Net-(CN1-Pin_1)*%
X131704700Y-100192900D02*
X131704700Y-93886100D01*
X136000000Y-89590800D02*
X136000000Y-78077500D01*
X130297600Y-101600000D02*
X131704700Y-100192900D01*
X131704700Y-93886100D02*
X136000000Y-89590800D01*
%TO.N,Net-(CN1-Pin_13)*%
X114300000Y-101600000D02*
X114300000Y-101476860D01*
X115830500Y-101129200D02*
X115830500Y-110091600D01*
X115830500Y-110091600D02*
X119264200Y-113525300D01*
X113249000Y-100549000D02*
X113248300Y-100548300D01*
X113248300Y-100548300D02*
X110708300Y-100548300D01*
X114300000Y-101476860D02*
X113372140Y-100549000D01*
X110708300Y-100548300D02*
X108950100Y-98790100D01*
X119264200Y-113525300D02*
X119264200Y-114669100D01*
X102760000Y-88892900D02*
X102760000Y-78077500D01*
X108950100Y-95083000D02*
X102760000Y-88892900D01*
X113372140Y-100549000D02*
X113249000Y-100549000D01*
X108950100Y-98790100D02*
X108950100Y-95083000D01*
%TD*%
%TA.AperFunction,Conductor*%
%TO.N,GND*%
G36*
X101279205Y-76228921D02*
G01*
X101324960Y-76281725D01*
X101336166Y-76333236D01*
X101336166Y-79865370D01*
X101336167Y-79865376D01*
X101342574Y-79924983D01*
X101392868Y-80059828D01*
X101392872Y-80059835D01*
X101479118Y-80175044D01*
X101479121Y-80175047D01*
X101594330Y-80261293D01*
X101594337Y-80261297D01*
X101639284Y-80278061D01*
X101729183Y-80311591D01*
X101788793Y-80318000D01*
X102035501Y-80317999D01*
X102102539Y-80337683D01*
X102148294Y-80390487D01*
X102159500Y-80441999D01*
X102159500Y-88806230D01*
X102159499Y-88806248D01*
X102159499Y-88971954D01*
X102159498Y-88971954D01*
X102200423Y-89124685D01*
X102220164Y-89158877D01*
X102220163Y-89158877D01*
X102220164Y-89158878D01*
X102279475Y-89261609D01*
X102279481Y-89261617D01*
X102398349Y-89380485D01*
X102398355Y-89380490D01*
X107699980Y-94682115D01*
X107733465Y-94743438D01*
X107728481Y-94813130D01*
X107715401Y-94838687D01*
X107639009Y-94953014D01*
X107639002Y-94953027D01*
X107578664Y-95098698D01*
X107578661Y-95098710D01*
X107547900Y-95253353D01*
X107547900Y-95411046D01*
X107578661Y-95565689D01*
X107578664Y-95565701D01*
X107639002Y-95711372D01*
X107639009Y-95711385D01*
X107704349Y-95809172D01*
X107723869Y-95838386D01*
X107727002Y-95843074D01*
X107747880Y-95909751D01*
X107747900Y-95911965D01*
X107747900Y-111166630D01*
X107747899Y-111166648D01*
X107747899Y-111332354D01*
X107747898Y-111332354D01*
X107757744Y-111369100D01*
X107788823Y-111485085D01*
X107796500Y-111498382D01*
X107796501Y-111498385D01*
X107796502Y-111498385D01*
X107867877Y-111622012D01*
X107867881Y-111622017D01*
X107986749Y-111740885D01*
X107986755Y-111740890D01*
X109925761Y-113679897D01*
X109959246Y-113741220D01*
X109954262Y-113810912D01*
X109952641Y-113815030D01*
X109865807Y-114024665D01*
X109865802Y-114024681D01*
X109799033Y-114273870D01*
X109797930Y-114277985D01*
X109763700Y-114537972D01*
X109763700Y-114800227D01*
X109790323Y-115002439D01*
X109797930Y-115060216D01*
X109865802Y-115313518D01*
X109865805Y-115313528D01*
X109966153Y-115555790D01*
X109966158Y-115555800D01*
X110097275Y-115782903D01*
X110256918Y-115990951D01*
X110256926Y-115990960D01*
X110442340Y-116176374D01*
X110442348Y-116176381D01*
X110650396Y-116336024D01*
X110877499Y-116467141D01*
X110877509Y-116467146D01*
X111119771Y-116567494D01*
X111119781Y-116567498D01*
X111373084Y-116635370D01*
X111633080Y-116669600D01*
X111633087Y-116669600D01*
X111895313Y-116669600D01*
X111895320Y-116669600D01*
X112155316Y-116635370D01*
X112408619Y-116567498D01*
X112650897Y-116467143D01*
X112878003Y-116336024D01*
X113086051Y-116176382D01*
X113086055Y-116176377D01*
X113086060Y-116176374D01*
X113271474Y-115990960D01*
X113271477Y-115990955D01*
X113271482Y-115990951D01*
X113431124Y-115782903D01*
X113562243Y-115555797D01*
X113662598Y-115313519D01*
X113730470Y-115060216D01*
X113764700Y-114800220D01*
X113764700Y-114537980D01*
X113730470Y-114277984D01*
X113722310Y-114247530D01*
X113723971Y-114177682D01*
X113763133Y-114119819D01*
X113827361Y-114092314D01*
X113868960Y-114095292D01*
X113869103Y-114094578D01*
X113873075Y-114095367D01*
X113873084Y-114095370D01*
X114133080Y-114129600D01*
X114133087Y-114129600D01*
X114395313Y-114129600D01*
X114395320Y-114129600D01*
X114655316Y-114095370D01*
X114908619Y-114027498D01*
X115150897Y-113927143D01*
X115378003Y-113796024D01*
X115586051Y-113636382D01*
X115586055Y-113636377D01*
X115586060Y-113636374D01*
X115771474Y-113450960D01*
X115771477Y-113450955D01*
X115771482Y-113450951D01*
X115931124Y-113242903D01*
X116062243Y-113015797D01*
X116067886Y-113002175D01*
X116127795Y-112857541D01*
X116162598Y-112773519D01*
X116230470Y-112520216D01*
X116264700Y-112260220D01*
X116264700Y-111997980D01*
X116230470Y-111737984D01*
X116204866Y-111642428D01*
X116206529Y-111572582D01*
X116245691Y-111514719D01*
X116309920Y-111487215D01*
X116378822Y-111498801D01*
X116412322Y-111522657D01*
X117909234Y-113019569D01*
X117942719Y-113080892D01*
X117937735Y-113150584D01*
X117909235Y-113194931D01*
X117756918Y-113347248D01*
X117597275Y-113555296D01*
X117466158Y-113782399D01*
X117466153Y-113782409D01*
X117365805Y-114024671D01*
X117365802Y-114024681D01*
X117299033Y-114273870D01*
X117297930Y-114277985D01*
X117263700Y-114537972D01*
X117263700Y-114800227D01*
X117290323Y-115002439D01*
X117297930Y-115060216D01*
X117365802Y-115313518D01*
X117365805Y-115313528D01*
X117466153Y-115555790D01*
X117466158Y-115555800D01*
X117597275Y-115782903D01*
X117756918Y-115990951D01*
X117756926Y-115990960D01*
X117942340Y-116176374D01*
X117942348Y-116176381D01*
X118150396Y-116336024D01*
X118377499Y-116467141D01*
X118377509Y-116467146D01*
X118619771Y-116567494D01*
X118619781Y-116567498D01*
X118873084Y-116635370D01*
X119133080Y-116669600D01*
X119133087Y-116669600D01*
X119395313Y-116669600D01*
X119395320Y-116669600D01*
X119655316Y-116635370D01*
X119908619Y-116567498D01*
X120150897Y-116467143D01*
X120378003Y-116336024D01*
X120586051Y-116176382D01*
X120586055Y-116176377D01*
X120586060Y-116176374D01*
X120771474Y-115990960D01*
X120771477Y-115990955D01*
X120771482Y-115990951D01*
X120931124Y-115782903D01*
X121062243Y-115555797D01*
X121162598Y-115313519D01*
X121230470Y-115060216D01*
X121264700Y-114800220D01*
X121264700Y-114537980D01*
X121230470Y-114277984D01*
X121162598Y-114024681D01*
X121162594Y-114024671D01*
X121062246Y-113782409D01*
X121062245Y-113782408D01*
X121062243Y-113782403D01*
X120977934Y-113636374D01*
X120931124Y-113555296D01*
X120771481Y-113347248D01*
X120771474Y-113347240D01*
X120586060Y-113161826D01*
X120586051Y-113161818D01*
X120378003Y-113002175D01*
X120150900Y-112871058D01*
X120150890Y-112871053D01*
X119908628Y-112770705D01*
X119908621Y-112770703D01*
X119908619Y-112770702D01*
X119655316Y-112702830D01*
X119597539Y-112695223D01*
X119395327Y-112668600D01*
X119395320Y-112668600D01*
X119308097Y-112668600D01*
X119241058Y-112648915D01*
X119220416Y-112632281D01*
X118626140Y-112038005D01*
X122264200Y-112038005D01*
X122264200Y-112300194D01*
X122298420Y-112560109D01*
X122298422Y-112560120D01*
X122366275Y-112813355D01*
X122466604Y-113055571D01*
X122466609Y-113055582D01*
X122597688Y-113282616D01*
X122597694Y-113282624D01*
X122684280Y-113395465D01*
X123548352Y-112531392D01*
X123555249Y-112548042D01*
X123642799Y-112679070D01*
X123754230Y-112790501D01*
X123885258Y-112878051D01*
X123901905Y-112884946D01*
X123037833Y-113749017D01*
X123037833Y-113749018D01*
X123150675Y-113835605D01*
X123150683Y-113835611D01*
X123377717Y-113966690D01*
X123377728Y-113966695D01*
X123619944Y-114067024D01*
X123873179Y-114134877D01*
X123873190Y-114134879D01*
X124133105Y-114169099D01*
X124133120Y-114169100D01*
X124395280Y-114169100D01*
X124395294Y-114169099D01*
X124659242Y-114134349D01*
X124659519Y-114136460D01*
X124720567Y-114141679D01*
X124775914Y-114184322D01*
X124799420Y-114250119D01*
X124797782Y-114273870D01*
X124798460Y-114273960D01*
X124763700Y-114537972D01*
X124763700Y-114800227D01*
X124790323Y-115002439D01*
X124797930Y-115060216D01*
X124865802Y-115313518D01*
X124865805Y-115313528D01*
X124966153Y-115555790D01*
X124966158Y-115555800D01*
X125097275Y-115782903D01*
X125256918Y-115990951D01*
X125256926Y-115990960D01*
X125442340Y-116176374D01*
X125442348Y-116176381D01*
X125650396Y-116336024D01*
X125877499Y-116467141D01*
X125877509Y-116467146D01*
X126119771Y-116567494D01*
X126119781Y-116567498D01*
X126373084Y-116635370D01*
X126633080Y-116669600D01*
X126633087Y-116669600D01*
X126895313Y-116669600D01*
X126895320Y-116669600D01*
X127155316Y-116635370D01*
X127408619Y-116567498D01*
X127650897Y-116467143D01*
X127878003Y-116336024D01*
X128086051Y-116176382D01*
X128086055Y-116176377D01*
X128086060Y-116176374D01*
X128271474Y-115990960D01*
X128271477Y-115990955D01*
X128271482Y-115990951D01*
X128431124Y-115782903D01*
X128562243Y-115555797D01*
X128662598Y-115313519D01*
X128730470Y-115060216D01*
X128764700Y-114800220D01*
X128764700Y-114537980D01*
X128730470Y-114277984D01*
X128662598Y-114024681D01*
X128662594Y-114024671D01*
X128562246Y-113782409D01*
X128562241Y-113782399D01*
X128431124Y-113555296D01*
X128271481Y-113347248D01*
X128271474Y-113347240D01*
X128086060Y-113161826D01*
X128086051Y-113161818D01*
X127878003Y-113002175D01*
X127650900Y-112871058D01*
X127650890Y-112871053D01*
X127408628Y-112770705D01*
X127408621Y-112770703D01*
X127408619Y-112770702D01*
X127155316Y-112702830D01*
X127097539Y-112695223D01*
X126895327Y-112668600D01*
X126895320Y-112668600D01*
X126633080Y-112668600D01*
X126633072Y-112668600D01*
X126426002Y-112695863D01*
X126373084Y-112702830D01*
X126373082Y-112702830D01*
X126369060Y-112703360D01*
X126368812Y-112701482D01*
X126306815Y-112695863D01*
X126251687Y-112652936D01*
X126228518Y-112587020D01*
X126230206Y-112564241D01*
X126229449Y-112564142D01*
X126264199Y-112300194D01*
X126264200Y-112300180D01*
X126264200Y-112038019D01*
X126264199Y-112038005D01*
X126229979Y-111778090D01*
X126229977Y-111778079D01*
X126162124Y-111524844D01*
X126061795Y-111282628D01*
X126061790Y-111282617D01*
X125930711Y-111055583D01*
X125930705Y-111055575D01*
X125844118Y-110942733D01*
X125844117Y-110942733D01*
X124980046Y-111806805D01*
X124973151Y-111790158D01*
X124885601Y-111659130D01*
X124774170Y-111547699D01*
X124643142Y-111460149D01*
X124626492Y-111453252D01*
X125490565Y-110589180D01*
X125377724Y-110502594D01*
X125377716Y-110502588D01*
X125150682Y-110371509D01*
X125150671Y-110371504D01*
X124908455Y-110271175D01*
X124655220Y-110203322D01*
X124655209Y-110203320D01*
X124395294Y-110169100D01*
X124133105Y-110169100D01*
X123873190Y-110203320D01*
X123873179Y-110203322D01*
X123619944Y-110271175D01*
X123377728Y-110371504D01*
X123377717Y-110371509D01*
X123150671Y-110502596D01*
X123037833Y-110589179D01*
X123037833Y-110589180D01*
X123901906Y-111453253D01*
X123885258Y-111460149D01*
X123754230Y-111547699D01*
X123642799Y-111659130D01*
X123555249Y-111790158D01*
X123548353Y-111806806D01*
X122684280Y-110942733D01*
X122684279Y-110942733D01*
X122597696Y-111055571D01*
X122466609Y-111282617D01*
X122466604Y-111282628D01*
X122366275Y-111524844D01*
X122298422Y-111778079D01*
X122298420Y-111778090D01*
X122264200Y-112038005D01*
X118626140Y-112038005D01*
X118268233Y-111680098D01*
X118234748Y-111618775D01*
X118239732Y-111549083D01*
X118281604Y-111493150D01*
X118347068Y-111468733D01*
X118403366Y-111477855D01*
X118619781Y-111567498D01*
X118873084Y-111635370D01*
X119133080Y-111669600D01*
X119133087Y-111669600D01*
X119395313Y-111669600D01*
X119395320Y-111669600D01*
X119655316Y-111635370D01*
X119908619Y-111567498D01*
X120125034Y-111477856D01*
X120150890Y-111467146D01*
X120150891Y-111467145D01*
X120150897Y-111467143D01*
X120378003Y-111336024D01*
X120586051Y-111176382D01*
X120586055Y-111176377D01*
X120586060Y-111176374D01*
X120771474Y-110990960D01*
X120771477Y-110990955D01*
X120771482Y-110990951D01*
X120931124Y-110782903D01*
X121037068Y-110599402D01*
X121051079Y-110575134D01*
X121051079Y-110575133D01*
X121051080Y-110575132D01*
X121062239Y-110555804D01*
X121062246Y-110555790D01*
X121155333Y-110331058D01*
X121162598Y-110313519D01*
X121230470Y-110060216D01*
X121264700Y-109800220D01*
X121264700Y-109537980D01*
X121230470Y-109277984D01*
X121162598Y-109024681D01*
X121162594Y-109024671D01*
X121062246Y-108782409D01*
X121062241Y-108782399D01*
X120931124Y-108555296D01*
X120771481Y-108347248D01*
X120771474Y-108347240D01*
X120586060Y-108161826D01*
X120586051Y-108161818D01*
X120378003Y-108002175D01*
X120150900Y-107871058D01*
X120150890Y-107871053D01*
X119908628Y-107770705D01*
X119908621Y-107770703D01*
X119908619Y-107770702D01*
X119655316Y-107702830D01*
X119597539Y-107695223D01*
X119395327Y-107668600D01*
X119395320Y-107668600D01*
X119133080Y-107668600D01*
X119133072Y-107668600D01*
X118901972Y-107699026D01*
X118873084Y-107702830D01*
X118662969Y-107759130D01*
X118619781Y-107770702D01*
X118619765Y-107770707D01*
X118410129Y-107857541D01*
X118340660Y-107865010D01*
X118278181Y-107833735D01*
X118274996Y-107830661D01*
X117886519Y-107442184D01*
X117853034Y-107380861D01*
X117850200Y-107354503D01*
X117850200Y-101497648D01*
X118837100Y-101497648D01*
X118837100Y-101702351D01*
X118869122Y-101904534D01*
X118932381Y-102099223D01*
X119025315Y-102281613D01*
X119145628Y-102447213D01*
X119290386Y-102591971D01*
X119408386Y-102677701D01*
X119455990Y-102712287D01*
X119572207Y-102771503D01*
X119638376Y-102805218D01*
X119638378Y-102805218D01*
X119638381Y-102805220D01*
X119701092Y-102825596D01*
X119833065Y-102868477D01*
X119934157Y-102884488D01*
X120035248Y-102900500D01*
X120035249Y-102900500D01*
X120239951Y-102900500D01*
X120239952Y-102900500D01*
X120442134Y-102868477D01*
X120636819Y-102805220D01*
X120819210Y-102712287D01*
X120944089Y-102621558D01*
X120984813Y-102591971D01*
X120984815Y-102591968D01*
X120984819Y-102591966D01*
X121129566Y-102447219D01*
X121129568Y-102447215D01*
X121129571Y-102447213D01*
X121228711Y-102310756D01*
X121249887Y-102281610D01*
X121342820Y-102099219D01*
X121406077Y-101904534D01*
X121438100Y-101702352D01*
X121438100Y-101497648D01*
X121416726Y-101362697D01*
X121406077Y-101295465D01*
X121367518Y-101176795D01*
X121342820Y-101100781D01*
X121342818Y-101100778D01*
X121342818Y-101100776D01*
X121306154Y-101028820D01*
X121249887Y-100918390D01*
X121233404Y-100895703D01*
X121129571Y-100752786D01*
X120984813Y-100608028D01*
X120819213Y-100487715D01*
X120819212Y-100487714D01*
X120819210Y-100487713D01*
X120762253Y-100458691D01*
X120636823Y-100394781D01*
X120442134Y-100331522D01*
X120267595Y-100303878D01*
X120239952Y-100299500D01*
X120035248Y-100299500D01*
X120010929Y-100303351D01*
X119833065Y-100331522D01*
X119638376Y-100394781D01*
X119455986Y-100487715D01*
X119290386Y-100608028D01*
X119145628Y-100752786D01*
X119025315Y-100918386D01*
X118932381Y-101100776D01*
X118869122Y-101295465D01*
X118837100Y-101497648D01*
X117850200Y-101497648D01*
X117850200Y-96417648D01*
X118837100Y-96417648D01*
X118837100Y-96622351D01*
X118869122Y-96824534D01*
X118932381Y-97019223D01*
X119025315Y-97201613D01*
X119145628Y-97367213D01*
X119290386Y-97511971D01*
X119408386Y-97597701D01*
X119455990Y-97632287D01*
X119572207Y-97691503D01*
X119638376Y-97725218D01*
X119638378Y-97725218D01*
X119638381Y-97725220D01*
X119701092Y-97745596D01*
X119833065Y-97788477D01*
X119934157Y-97804488D01*
X120035248Y-97820500D01*
X120035249Y-97820500D01*
X120239951Y-97820500D01*
X120239952Y-97820500D01*
X120442134Y-97788477D01*
X120636819Y-97725220D01*
X120819210Y-97632287D01*
X120944089Y-97541558D01*
X120984813Y-97511971D01*
X120984815Y-97511968D01*
X120984819Y-97511966D01*
X121129566Y-97367219D01*
X121129568Y-97367215D01*
X121129571Y-97367213D01*
X121201910Y-97267645D01*
X121249887Y-97201610D01*
X121342820Y-97019219D01*
X121406077Y-96824534D01*
X121438100Y-96622352D01*
X121438100Y-96417648D01*
X121417842Y-96289745D01*
X121406077Y-96215465D01*
X121342818Y-96020776D01*
X121286247Y-95909751D01*
X121249887Y-95838390D01*
X121228714Y-95809247D01*
X121129571Y-95672786D01*
X120984813Y-95528028D01*
X120819213Y-95407715D01*
X120819212Y-95407714D01*
X120819210Y-95407713D01*
X120762253Y-95378691D01*
X120636823Y-95314781D01*
X120442134Y-95251522D01*
X120267595Y-95223878D01*
X120239952Y-95219500D01*
X120035248Y-95219500D01*
X120010929Y-95223351D01*
X119833065Y-95251522D01*
X119638376Y-95314781D01*
X119455986Y-95407715D01*
X119290386Y-95528028D01*
X119145628Y-95672786D01*
X119025315Y-95838386D01*
X118932381Y-96020776D01*
X118869122Y-96215465D01*
X118837100Y-96417648D01*
X117850200Y-96417648D01*
X117850200Y-91337648D01*
X118837100Y-91337648D01*
X118837100Y-91542351D01*
X118869122Y-91744534D01*
X118932381Y-91939223D01*
X119025315Y-92121613D01*
X119145628Y-92287213D01*
X119290386Y-92431971D01*
X119408386Y-92517701D01*
X119455990Y-92552287D01*
X119570755Y-92610763D01*
X119638376Y-92645218D01*
X119638378Y-92645218D01*
X119638381Y-92645220D01*
X119742737Y-92679127D01*
X119833065Y-92708477D01*
X119934157Y-92724488D01*
X120035248Y-92740500D01*
X120035249Y-92740500D01*
X120239951Y-92740500D01*
X120239952Y-92740500D01*
X120442134Y-92708477D01*
X120636819Y-92645220D01*
X120819210Y-92552287D01*
X120944089Y-92461558D01*
X120984813Y-92431971D01*
X120984815Y-92431968D01*
X120984819Y-92431966D01*
X121129566Y-92287219D01*
X121129568Y-92287215D01*
X121129571Y-92287213D01*
X121182332Y-92214590D01*
X121249887Y-92121610D01*
X121342820Y-91939219D01*
X121406077Y-91744534D01*
X121438100Y-91542352D01*
X121438100Y-91337648D01*
X121406077Y-91135466D01*
X121399101Y-91113997D01*
X121342818Y-90940776D01*
X121306154Y-90868820D01*
X121249887Y-90758390D01*
X121228714Y-90729247D01*
X121129571Y-90592786D01*
X120984813Y-90448028D01*
X120819213Y-90327715D01*
X120819212Y-90327714D01*
X120819210Y-90327713D01*
X120762253Y-90298691D01*
X120636823Y-90234781D01*
X120442134Y-90171522D01*
X120267595Y-90143878D01*
X120239952Y-90139500D01*
X120035248Y-90139500D01*
X120010929Y-90143351D01*
X119833065Y-90171522D01*
X119638376Y-90234781D01*
X119455986Y-90327715D01*
X119290386Y-90448028D01*
X119145628Y-90592786D01*
X119025315Y-90758386D01*
X118932381Y-90940776D01*
X118869122Y-91135465D01*
X118837100Y-91337648D01*
X117850200Y-91337648D01*
X117850200Y-88403943D01*
X117844485Y-88382616D01*
X117831277Y-88333323D01*
X117809277Y-88251216D01*
X117809275Y-88251212D01*
X117809274Y-88251209D01*
X117730224Y-88114290D01*
X117730221Y-88114286D01*
X117730220Y-88114284D01*
X117618416Y-88002480D01*
X117618415Y-88002479D01*
X117614085Y-87998149D01*
X117614074Y-87998139D01*
X115873583Y-86257648D01*
X118837100Y-86257648D01*
X118837100Y-86462351D01*
X118869122Y-86664534D01*
X118932381Y-86859223D01*
X119025315Y-87041613D01*
X119145628Y-87207213D01*
X119290386Y-87351971D01*
X119445349Y-87464556D01*
X119455990Y-87472287D01*
X119572207Y-87531503D01*
X119638376Y-87565218D01*
X119638378Y-87565218D01*
X119638381Y-87565220D01*
X119726523Y-87593859D01*
X119833065Y-87628477D01*
X119934157Y-87644488D01*
X120035248Y-87660500D01*
X120035249Y-87660500D01*
X120239951Y-87660500D01*
X120239952Y-87660500D01*
X120442134Y-87628477D01*
X120636819Y-87565220D01*
X120819210Y-87472287D01*
X120944093Y-87381555D01*
X120984813Y-87351971D01*
X120984815Y-87351968D01*
X120984819Y-87351966D01*
X121129566Y-87207219D01*
X121129568Y-87207215D01*
X121129571Y-87207213D01*
X121200935Y-87108987D01*
X121249887Y-87041610D01*
X121342820Y-86859219D01*
X121406077Y-86664534D01*
X121438100Y-86462352D01*
X121438100Y-86257648D01*
X121417842Y-86129745D01*
X121406077Y-86055465D01*
X121348896Y-85879481D01*
X121342820Y-85860781D01*
X121342818Y-85860778D01*
X121342818Y-85860776D01*
X121298693Y-85774177D01*
X121249887Y-85678390D01*
X121242156Y-85667749D01*
X121129571Y-85512786D01*
X120984813Y-85368028D01*
X120819213Y-85247715D01*
X120819212Y-85247714D01*
X120819210Y-85247713D01*
X120762253Y-85218691D01*
X120636823Y-85154781D01*
X120442134Y-85091522D01*
X120267595Y-85063878D01*
X120239952Y-85059500D01*
X120035248Y-85059500D01*
X120010929Y-85063351D01*
X119833065Y-85091522D01*
X119638376Y-85154781D01*
X119455986Y-85247715D01*
X119290386Y-85368028D01*
X119145628Y-85512786D01*
X119025315Y-85678386D01*
X118932381Y-85860776D01*
X118869122Y-86055465D01*
X118837100Y-86257648D01*
X115873583Y-86257648D01*
X115614290Y-85998355D01*
X115614288Y-85998352D01*
X115495417Y-85879481D01*
X115495416Y-85879480D01*
X115463019Y-85860776D01*
X115414686Y-85832871D01*
X115414683Y-85832869D01*
X115408604Y-85829360D01*
X115358485Y-85800423D01*
X115310684Y-85787614D01*
X115302217Y-85783930D01*
X115282207Y-85767211D01*
X115259940Y-85753638D01*
X115253149Y-85742932D01*
X115248600Y-85739131D01*
X115246513Y-85732469D01*
X115237134Y-85717682D01*
X115208785Y-85649241D01*
X115096561Y-85481286D01*
X115096555Y-85481278D01*
X114953718Y-85338441D01*
X114785762Y-85226217D01*
X114785752Y-85226212D01*
X114599127Y-85148909D01*
X114599119Y-85148907D01*
X114401007Y-85109500D01*
X114401003Y-85109500D01*
X114198997Y-85109500D01*
X114198992Y-85109500D01*
X114000880Y-85148907D01*
X114000872Y-85148909D01*
X113814244Y-85226213D01*
X113733891Y-85279904D01*
X113667213Y-85300782D01*
X113599833Y-85282297D01*
X113596109Y-85279904D01*
X113515755Y-85226213D01*
X113329127Y-85148909D01*
X113329119Y-85148907D01*
X113131007Y-85109500D01*
X113131003Y-85109500D01*
X112928997Y-85109500D01*
X112928992Y-85109500D01*
X112730880Y-85148907D01*
X112730868Y-85148910D01*
X112649661Y-85182547D01*
X112580191Y-85190016D01*
X112535140Y-85170405D01*
X112534872Y-85170897D01*
X112529374Y-85167894D01*
X112527895Y-85167251D01*
X112527086Y-85166645D01*
X112392379Y-85116403D01*
X112392372Y-85116401D01*
X112332844Y-85110000D01*
X112010000Y-85110000D01*
X112010000Y-85994134D01*
X112009968Y-85996953D01*
X112009722Y-86007740D01*
X112004500Y-86033997D01*
X112004500Y-86074170D01*
X111990255Y-86059925D01*
X111904745Y-86010556D01*
X111809370Y-85985000D01*
X111710630Y-85985000D01*
X111615255Y-86010556D01*
X111529745Y-86059925D01*
X111510000Y-86079670D01*
X111510000Y-85110000D01*
X111187155Y-85110000D01*
X111127627Y-85116401D01*
X111127620Y-85116403D01*
X110992913Y-85166645D01*
X110992906Y-85166649D01*
X110877812Y-85252809D01*
X110877809Y-85252812D01*
X110791649Y-85367906D01*
X110791645Y-85367913D01*
X110741403Y-85502620D01*
X110741401Y-85502627D01*
X110735000Y-85562155D01*
X110735000Y-86110000D01*
X111479670Y-86110000D01*
X111459925Y-86129745D01*
X111410556Y-86215255D01*
X111385000Y-86310630D01*
X111385000Y-86409370D01*
X111410556Y-86504745D01*
X111459925Y-86590255D01*
X111479670Y-86610000D01*
X110735000Y-86610000D01*
X110735000Y-87157844D01*
X110741401Y-87217372D01*
X110741403Y-87217379D01*
X110791645Y-87352086D01*
X110791649Y-87352093D01*
X110877809Y-87467187D01*
X110877812Y-87467190D01*
X110992906Y-87553350D01*
X110992913Y-87553354D01*
X111127620Y-87603596D01*
X111127627Y-87603598D01*
X111187155Y-87609999D01*
X111187172Y-87610000D01*
X111246891Y-87610000D01*
X111278457Y-87619269D01*
X111310322Y-87627452D01*
X111311819Y-87629065D01*
X111313930Y-87629685D01*
X111335459Y-87654531D01*
X111357857Y-87678659D01*
X111358244Y-87680826D01*
X111359685Y-87682489D01*
X111364365Y-87715041D01*
X111370161Y-87747437D01*
X111369315Y-87749468D01*
X111369629Y-87751647D01*
X111355959Y-87781579D01*
X111343327Y-87811949D01*
X111341297Y-87813683D01*
X111340604Y-87815203D01*
X111317460Y-87835961D01*
X111312183Y-87839613D01*
X111311773Y-87839723D01*
X111174841Y-87918780D01*
X111123226Y-87970394D01*
X111114028Y-87976761D01*
X111091054Y-87984369D01*
X111069817Y-87995966D01*
X111049415Y-87998159D01*
X111047702Y-87998727D01*
X111046650Y-87998456D01*
X111043459Y-87998800D01*
X109944500Y-87998800D01*
X109877461Y-87979115D01*
X109831706Y-87926311D01*
X109820500Y-87874800D01*
X109820500Y-82269296D01*
X109840185Y-82202257D01*
X109856814Y-82181620D01*
X111438713Y-80599721D01*
X111438716Y-80599720D01*
X111550520Y-80487916D01*
X111600639Y-80401104D01*
X111612831Y-80379987D01*
X111663403Y-80331778D01*
X111720212Y-80317999D01*
X112041205Y-80317999D01*
X112041206Y-80317999D01*
X112100817Y-80311591D01*
X112235665Y-80261296D01*
X112350880Y-80175046D01*
X112355733Y-80168562D01*
X112411666Y-80126691D01*
X112481357Y-80121707D01*
X112542681Y-80155191D01*
X112554267Y-80168563D01*
X112559120Y-80175046D01*
X112559121Y-80175047D01*
X112674330Y-80261293D01*
X112674337Y-80261297D01*
X112809183Y-80311591D01*
X112809182Y-80311591D01*
X112816110Y-80312335D01*
X112868793Y-80318000D01*
X114811206Y-80317999D01*
X114870817Y-80311591D01*
X115005665Y-80261296D01*
X115120880Y-80175046D01*
X115125733Y-80168562D01*
X115181666Y-80126691D01*
X115251357Y-80121707D01*
X115312681Y-80155191D01*
X115324267Y-80168563D01*
X115329120Y-80175046D01*
X115329121Y-80175047D01*
X115444330Y-80261293D01*
X115444337Y-80261297D01*
X115579183Y-80311591D01*
X115579182Y-80311591D01*
X115586110Y-80312335D01*
X115638793Y-80318000D01*
X117581206Y-80317999D01*
X117640817Y-80311591D01*
X117775665Y-80261296D01*
X117890880Y-80175046D01*
X117895733Y-80168562D01*
X117951666Y-80126691D01*
X118021357Y-80121707D01*
X118082681Y-80155191D01*
X118094267Y-80168563D01*
X118099120Y-80175046D01*
X118099121Y-80175047D01*
X118214330Y-80261293D01*
X118214337Y-80261297D01*
X118349183Y-80311591D01*
X118349182Y-80311591D01*
X118356110Y-80312335D01*
X118408793Y-80318000D01*
X120351206Y-80317999D01*
X120410817Y-80311591D01*
X120545665Y-80261296D01*
X120660880Y-80175046D01*
X120665733Y-80168562D01*
X120721666Y-80126691D01*
X120791357Y-80121707D01*
X120852681Y-80155191D01*
X120864267Y-80168563D01*
X120869120Y-80175046D01*
X120869121Y-80175047D01*
X120984330Y-80261293D01*
X120984337Y-80261297D01*
X121119183Y-80311591D01*
X121119182Y-80311591D01*
X121126110Y-80312335D01*
X121178793Y-80318000D01*
X123121206Y-80317999D01*
X123180817Y-80311591D01*
X123315665Y-80261296D01*
X123430880Y-80175046D01*
X123435733Y-80168562D01*
X123491666Y-80126691D01*
X123561357Y-80121707D01*
X123622681Y-80155191D01*
X123634267Y-80168563D01*
X123639120Y-80175046D01*
X123639121Y-80175047D01*
X123754330Y-80261293D01*
X123754337Y-80261297D01*
X123889183Y-80311591D01*
X123889182Y-80311591D01*
X123896110Y-80312335D01*
X123948793Y-80318000D01*
X125891206Y-80317999D01*
X125950817Y-80311591D01*
X126085665Y-80261296D01*
X126200880Y-80175046D01*
X126205733Y-80168562D01*
X126261666Y-80126691D01*
X126331357Y-80121707D01*
X126392681Y-80155191D01*
X126404267Y-80168563D01*
X126409120Y-80175046D01*
X126409121Y-80175047D01*
X126524330Y-80261293D01*
X126524337Y-80261297D01*
X126659183Y-80311591D01*
X126659182Y-80311591D01*
X126666110Y-80312335D01*
X126718793Y-80318000D01*
X128401434Y-80317999D01*
X128468473Y-80337684D01*
X128514228Y-80390487D01*
X128524172Y-80459646D01*
X128523052Y-80466189D01*
X128511801Y-80522755D01*
X128511800Y-80522758D01*
X128511800Y-80680442D01*
X128511800Y-80680444D01*
X128511799Y-80680444D01*
X128535616Y-80800171D01*
X128537999Y-80824360D01*
X128537999Y-80854457D01*
X128537999Y-80854459D01*
X128538000Y-80864453D01*
X128538000Y-90194230D01*
X128537999Y-90194248D01*
X128537999Y-90359954D01*
X128537998Y-90359954D01*
X128561599Y-90448034D01*
X128578923Y-90512685D01*
X128594405Y-90539500D01*
X128657979Y-90649614D01*
X128657981Y-90649617D01*
X128776849Y-90768485D01*
X128776855Y-90768490D01*
X129003522Y-90995157D01*
X129037007Y-91056480D01*
X129033773Y-91121155D01*
X129029122Y-91135468D01*
X128997100Y-91337648D01*
X128997100Y-91542351D01*
X129029122Y-91744534D01*
X129092381Y-91939223D01*
X129185315Y-92121613D01*
X129305628Y-92287213D01*
X129450386Y-92431971D01*
X129568386Y-92517701D01*
X129615990Y-92552287D01*
X129730755Y-92610763D01*
X129798376Y-92645218D01*
X129798378Y-92645218D01*
X129798381Y-92645220D01*
X129993066Y-92708477D01*
X130006433Y-92710594D01*
X130069566Y-92740522D01*
X130106498Y-92799833D01*
X130105502Y-92869695D01*
X130074716Y-92920748D01*
X129817081Y-93178382D01*
X129817079Y-93178385D01*
X129766961Y-93265194D01*
X129766959Y-93265196D01*
X129738025Y-93315309D01*
X129738024Y-93315310D01*
X129738023Y-93315315D01*
X129697099Y-93468043D01*
X129697099Y-93468045D01*
X129697099Y-93636146D01*
X129697100Y-93636159D01*
X129697100Y-95290397D01*
X129677415Y-95357436D01*
X129629400Y-95400879D01*
X129615989Y-95407712D01*
X129450386Y-95528028D01*
X129305628Y-95672786D01*
X129185315Y-95838386D01*
X129092381Y-96020776D01*
X129029122Y-96215465D01*
X128997100Y-96417648D01*
X128997100Y-96622351D01*
X129029122Y-96824534D01*
X129092381Y-97019223D01*
X129185315Y-97201613D01*
X129305628Y-97367213D01*
X129450386Y-97511971D01*
X129568386Y-97597701D01*
X129615990Y-97632287D01*
X129732207Y-97691503D01*
X129798376Y-97725218D01*
X129798378Y-97725218D01*
X129798381Y-97725220D01*
X129861092Y-97745596D01*
X129993065Y-97788477D01*
X130094157Y-97804488D01*
X130195248Y-97820500D01*
X130195249Y-97820500D01*
X130399951Y-97820500D01*
X130399952Y-97820500D01*
X130602134Y-97788477D01*
X130796819Y-97725220D01*
X130923906Y-97660465D01*
X130992574Y-97647570D01*
X131057314Y-97673846D01*
X131097572Y-97730952D01*
X131104200Y-97770951D01*
X131104200Y-99892802D01*
X131084515Y-99959841D01*
X131067881Y-99980483D01*
X130742442Y-100305922D01*
X130681119Y-100339407D01*
X130616443Y-100336172D01*
X130602134Y-100331523D01*
X130602128Y-100331522D01*
X130399952Y-100299500D01*
X130195248Y-100299500D01*
X130170929Y-100303351D01*
X129993065Y-100331522D01*
X129798376Y-100394781D01*
X129615986Y-100487715D01*
X129450386Y-100608028D01*
X129305628Y-100752786D01*
X129185315Y-100918386D01*
X129092381Y-101100776D01*
X129029122Y-101295465D01*
X128997100Y-101497648D01*
X128997100Y-101702351D01*
X129029122Y-101904534D01*
X129092381Y-102099223D01*
X129185315Y-102281613D01*
X129305628Y-102447213D01*
X129450386Y-102591971D01*
X129568386Y-102677701D01*
X129615990Y-102712287D01*
X129732207Y-102771503D01*
X129798376Y-102805218D01*
X129798378Y-102805218D01*
X129798381Y-102805220D01*
X129861092Y-102825596D01*
X129993065Y-102868477D01*
X130094157Y-102884488D01*
X130195248Y-102900500D01*
X130195249Y-102900500D01*
X130399951Y-102900500D01*
X130399952Y-102900500D01*
X130602134Y-102868477D01*
X130796819Y-102805220D01*
X130979210Y-102712287D01*
X131104089Y-102621558D01*
X131144813Y-102591971D01*
X131144815Y-102591968D01*
X131144819Y-102591966D01*
X131289566Y-102447219D01*
X131289568Y-102447215D01*
X131289571Y-102447213D01*
X131388711Y-102310756D01*
X131409887Y-102281610D01*
X131502820Y-102099219D01*
X131566077Y-101904534D01*
X131598100Y-101702352D01*
X131598100Y-101497648D01*
X131576726Y-101362697D01*
X131566078Y-101295472D01*
X131566077Y-101295471D01*
X131566077Y-101295466D01*
X131561425Y-101281151D01*
X131559432Y-101211312D01*
X131591675Y-101155158D01*
X132063206Y-100683628D01*
X132063211Y-100683624D01*
X132073414Y-100673420D01*
X132073416Y-100673420D01*
X132185220Y-100561616D01*
X132216516Y-100507410D01*
X132240300Y-100466215D01*
X132240301Y-100466213D01*
X132264274Y-100424690D01*
X132264275Y-100424689D01*
X132264275Y-100424687D01*
X132264277Y-100424685D01*
X132305201Y-100271957D01*
X132305201Y-100113843D01*
X132305201Y-100106248D01*
X132305200Y-100106230D01*
X132305200Y-94186197D01*
X132324885Y-94119158D01*
X132341519Y-94098516D01*
X132630791Y-93809244D01*
X134119500Y-93809244D01*
X134119500Y-94150755D01*
X134157734Y-94490092D01*
X134157736Y-94490108D01*
X134233726Y-94823044D01*
X134233730Y-94823056D01*
X134346515Y-95145375D01*
X134346524Y-95145397D01*
X134494686Y-95453059D01*
X134541796Y-95528034D01*
X134676380Y-95742222D01*
X134811746Y-95911965D01*
X134878665Y-95995880D01*
X134889303Y-96009219D01*
X135130781Y-96250697D01*
X135397778Y-96463620D01*
X135566078Y-96569370D01*
X135686940Y-96645313D01*
X135994602Y-96793475D01*
X135994611Y-96793478D01*
X135994618Y-96793482D01*
X135994624Y-96793484D01*
X136316943Y-96906269D01*
X136316955Y-96906273D01*
X136649895Y-96982264D01*
X136989245Y-97020499D01*
X136989246Y-97020500D01*
X136989249Y-97020500D01*
X137330754Y-97020500D01*
X137330754Y-97020499D01*
X137670105Y-96982264D01*
X138003045Y-96906273D01*
X138325382Y-96793482D01*
X138451839Y-96732584D01*
X138633059Y-96645313D01*
X138633059Y-96645312D01*
X138633065Y-96645310D01*
X138922222Y-96463620D01*
X139189219Y-96250697D01*
X139430697Y-96009219D01*
X139643620Y-95742222D01*
X139825310Y-95453065D01*
X139847151Y-95407712D01*
X139973475Y-95145397D01*
X139973476Y-95145393D01*
X139973482Y-95145382D01*
X140086273Y-94823045D01*
X140162264Y-94490105D01*
X140200500Y-94150751D01*
X140200500Y-93809249D01*
X140162264Y-93469895D01*
X140086273Y-93136955D01*
X139973482Y-92814618D01*
X139973478Y-92814611D01*
X139973475Y-92814602D01*
X139825313Y-92506940D01*
X139804656Y-92474064D01*
X139643620Y-92217778D01*
X139430697Y-91950781D01*
X139189219Y-91709303D01*
X138922222Y-91496380D01*
X138753922Y-91390630D01*
X138633059Y-91314686D01*
X138325397Y-91166524D01*
X138325375Y-91166515D01*
X138003056Y-91053730D01*
X138003044Y-91053726D01*
X137670108Y-90977736D01*
X137670092Y-90977734D01*
X137330755Y-90939500D01*
X137330751Y-90939500D01*
X136989249Y-90939500D01*
X136989244Y-90939500D01*
X136649907Y-90977734D01*
X136649891Y-90977736D01*
X136316955Y-91053726D01*
X136316943Y-91053730D01*
X135994624Y-91166515D01*
X135994602Y-91166524D01*
X135686940Y-91314686D01*
X135397779Y-91496379D01*
X135130781Y-91709302D01*
X134889302Y-91950781D01*
X134676379Y-92217779D01*
X134494686Y-92506940D01*
X134346524Y-92814602D01*
X134346515Y-92814624D01*
X134233730Y-93136943D01*
X134233726Y-93136955D01*
X134157736Y-93469891D01*
X134157734Y-93469907D01*
X134119500Y-93809244D01*
X132630791Y-93809244D01*
X134391299Y-92048736D01*
X136480520Y-89959516D01*
X136559577Y-89822584D01*
X136600501Y-89669857D01*
X136600501Y-89511742D01*
X136600501Y-89504147D01*
X136600500Y-89504129D01*
X136600500Y-80441999D01*
X136620185Y-80374960D01*
X136672989Y-80329205D01*
X136724500Y-80317999D01*
X136971205Y-80317999D01*
X136971206Y-80317999D01*
X137030817Y-80311591D01*
X137165665Y-80261296D01*
X137280880Y-80175046D01*
X137367130Y-80059831D01*
X137417425Y-79924983D01*
X137423834Y-79865373D01*
X137423833Y-76333235D01*
X137443518Y-76266197D01*
X137496322Y-76220442D01*
X137547833Y-76209236D01*
X141465744Y-76209236D01*
X141532783Y-76228921D01*
X141578538Y-76281725D01*
X141589744Y-76333236D01*
X141589744Y-126888601D01*
X141570059Y-126955640D01*
X141517255Y-127001395D01*
X141465744Y-127012601D01*
X97126081Y-127012601D01*
X97059042Y-126992916D01*
X97013287Y-126940112D01*
X97002081Y-126888601D01*
X97002081Y-121749244D01*
X98559500Y-121749244D01*
X98559500Y-122090755D01*
X98597734Y-122430092D01*
X98597736Y-122430108D01*
X98673726Y-122763044D01*
X98673730Y-122763056D01*
X98786515Y-123085375D01*
X98786524Y-123085397D01*
X98934686Y-123393059D01*
X98972587Y-123453377D01*
X99116380Y-123682222D01*
X99329303Y-123949219D01*
X99570781Y-124190697D01*
X99837778Y-124403620D01*
X100051650Y-124538005D01*
X100126940Y-124585313D01*
X100434602Y-124733475D01*
X100434611Y-124733478D01*
X100434618Y-124733482D01*
X100434624Y-124733484D01*
X100756943Y-124846269D01*
X100756955Y-124846273D01*
X101089895Y-124922264D01*
X101429245Y-124960499D01*
X101429246Y-124960500D01*
X101429249Y-124960500D01*
X101770754Y-124960500D01*
X101770754Y-124960499D01*
X102110105Y-124922264D01*
X102443045Y-124846273D01*
X102765382Y-124733482D01*
X103073065Y-124585310D01*
X103148350Y-124538005D01*
X112264200Y-124538005D01*
X112264200Y-124800194D01*
X112298420Y-125060109D01*
X112298422Y-125060120D01*
X112366275Y-125313355D01*
X112466604Y-125555571D01*
X112466609Y-125555582D01*
X112597688Y-125782616D01*
X112597694Y-125782624D01*
X112684280Y-125895465D01*
X113548352Y-125031392D01*
X113555249Y-125048042D01*
X113642799Y-125179070D01*
X113754230Y-125290501D01*
X113885258Y-125378051D01*
X113901905Y-125384946D01*
X113037833Y-126249017D01*
X113037833Y-126249018D01*
X113150675Y-126335605D01*
X113150683Y-126335611D01*
X113377717Y-126466690D01*
X113377728Y-126466695D01*
X113619944Y-126567024D01*
X113873179Y-126634877D01*
X113873190Y-126634879D01*
X114133105Y-126669099D01*
X114133120Y-126669100D01*
X114395280Y-126669100D01*
X114395294Y-126669099D01*
X114655209Y-126634879D01*
X114655220Y-126634877D01*
X114908455Y-126567024D01*
X115150671Y-126466695D01*
X115150682Y-126466690D01*
X115377716Y-126335611D01*
X115377734Y-126335599D01*
X115490565Y-126249019D01*
X115490565Y-126249017D01*
X114626494Y-125384946D01*
X114643142Y-125378051D01*
X114774170Y-125290501D01*
X114885601Y-125179070D01*
X114973151Y-125048042D01*
X114980046Y-125031394D01*
X115844117Y-125895465D01*
X115844119Y-125895465D01*
X115930699Y-125782634D01*
X115930711Y-125782616D01*
X116061790Y-125555582D01*
X116061795Y-125555571D01*
X116162124Y-125313355D01*
X116229977Y-125060120D01*
X116229979Y-125060109D01*
X116264199Y-124800194D01*
X116264200Y-124800180D01*
X116264200Y-124538019D01*
X116264199Y-124538005D01*
X122264200Y-124538005D01*
X122264200Y-124800194D01*
X122298420Y-125060109D01*
X122298422Y-125060120D01*
X122366275Y-125313355D01*
X122466604Y-125555571D01*
X122466609Y-125555582D01*
X122597688Y-125782616D01*
X122597694Y-125782624D01*
X122684280Y-125895465D01*
X123548352Y-125031392D01*
X123555249Y-125048042D01*
X123642799Y-125179070D01*
X123754230Y-125290501D01*
X123885258Y-125378051D01*
X123901905Y-125384946D01*
X123037833Y-126249017D01*
X123037833Y-126249018D01*
X123150675Y-126335605D01*
X123150683Y-126335611D01*
X123377717Y-126466690D01*
X123377728Y-126466695D01*
X123619944Y-126567024D01*
X123873179Y-126634877D01*
X123873190Y-126634879D01*
X124133105Y-126669099D01*
X124133120Y-126669100D01*
X124395280Y-126669100D01*
X124395294Y-126669099D01*
X124655209Y-126634879D01*
X124655220Y-126634877D01*
X124908455Y-126567024D01*
X125150671Y-126466695D01*
X125150682Y-126466690D01*
X125377716Y-126335611D01*
X125377734Y-126335599D01*
X125490565Y-126249019D01*
X125490565Y-126249017D01*
X124626494Y-125384946D01*
X124643142Y-125378051D01*
X124774170Y-125290501D01*
X124885601Y-125179070D01*
X124973151Y-125048042D01*
X124980046Y-125031394D01*
X125844117Y-125895465D01*
X125844119Y-125895465D01*
X125930699Y-125782634D01*
X125930711Y-125782616D01*
X126061790Y-125555582D01*
X126061795Y-125555571D01*
X126162124Y-125313355D01*
X126229977Y-125060120D01*
X126229979Y-125060109D01*
X126264199Y-124800194D01*
X126264200Y-124800180D01*
X126264200Y-124538019D01*
X126264199Y-124538005D01*
X126229979Y-124278090D01*
X126229977Y-124278079D01*
X126162124Y-124024844D01*
X126061795Y-123782628D01*
X126061790Y-123782617D01*
X125930711Y-123555583D01*
X125930705Y-123555575D01*
X125844118Y-123442733D01*
X125844117Y-123442733D01*
X124980046Y-124306804D01*
X124973151Y-124290158D01*
X124885601Y-124159130D01*
X124774170Y-124047699D01*
X124643142Y-123960149D01*
X124626492Y-123953252D01*
X125490565Y-123089180D01*
X125377724Y-123002594D01*
X125377716Y-123002588D01*
X125150682Y-122871509D01*
X125150671Y-122871504D01*
X124908455Y-122771175D01*
X124655220Y-122703322D01*
X124655209Y-122703320D01*
X124395294Y-122669100D01*
X124133105Y-122669100D01*
X123873190Y-122703320D01*
X123873179Y-122703322D01*
X123619944Y-122771175D01*
X123377728Y-122871504D01*
X123377717Y-122871509D01*
X123150671Y-123002596D01*
X123037833Y-123089179D01*
X123037833Y-123089180D01*
X123901906Y-123953253D01*
X123885258Y-123960149D01*
X123754230Y-124047699D01*
X123642799Y-124159130D01*
X123555249Y-124290158D01*
X123548353Y-124306806D01*
X122684280Y-123442733D01*
X122684279Y-123442733D01*
X122597696Y-123555571D01*
X122466609Y-123782617D01*
X122466604Y-123782628D01*
X122366275Y-124024844D01*
X122298422Y-124278079D01*
X122298420Y-124278090D01*
X122264200Y-124538005D01*
X116264199Y-124538005D01*
X116229979Y-124278090D01*
X116229977Y-124278079D01*
X116162124Y-124024844D01*
X116061795Y-123782628D01*
X116061790Y-123782617D01*
X115930711Y-123555583D01*
X115930705Y-123555575D01*
X115844118Y-123442733D01*
X115844117Y-123442733D01*
X114980046Y-124306804D01*
X114973151Y-124290158D01*
X114885601Y-124159130D01*
X114774170Y-124047699D01*
X114643142Y-123960149D01*
X114626492Y-123953252D01*
X115490565Y-123089180D01*
X115377724Y-123002594D01*
X115377716Y-123002588D01*
X115150682Y-122871509D01*
X115150671Y-122871504D01*
X114908455Y-122771175D01*
X114655220Y-122703322D01*
X114655209Y-122703320D01*
X114395294Y-122669100D01*
X114133105Y-122669100D01*
X113873190Y-122703320D01*
X113873179Y-122703322D01*
X113619944Y-122771175D01*
X113377728Y-122871504D01*
X113377717Y-122871509D01*
X113150671Y-123002596D01*
X113037833Y-123089179D01*
X113037833Y-123089180D01*
X113901906Y-123953253D01*
X113885258Y-123960149D01*
X113754230Y-124047699D01*
X113642799Y-124159130D01*
X113555249Y-124290158D01*
X113548353Y-124306806D01*
X112684280Y-123442733D01*
X112684279Y-123442733D01*
X112597696Y-123555571D01*
X112466609Y-123782617D01*
X112466604Y-123782628D01*
X112366275Y-124024844D01*
X112298422Y-124278079D01*
X112298420Y-124278090D01*
X112264200Y-124538005D01*
X103148350Y-124538005D01*
X103362222Y-124403620D01*
X103629219Y-124190697D01*
X103870697Y-123949219D01*
X104083620Y-123682222D01*
X104265310Y-123393065D01*
X104413482Y-123085382D01*
X104526273Y-122763045D01*
X104602264Y-122430105D01*
X104640500Y-122090751D01*
X104640500Y-121749249D01*
X104640499Y-121749244D01*
X134119500Y-121749244D01*
X134119500Y-122090755D01*
X134157734Y-122430092D01*
X134157736Y-122430108D01*
X134233726Y-122763044D01*
X134233730Y-122763056D01*
X134346515Y-123085375D01*
X134346524Y-123085397D01*
X134494686Y-123393059D01*
X134532587Y-123453377D01*
X134676380Y-123682222D01*
X134889303Y-123949219D01*
X135130781Y-124190697D01*
X135397778Y-124403620D01*
X135611650Y-124538005D01*
X135686940Y-124585313D01*
X135994602Y-124733475D01*
X135994611Y-124733478D01*
X135994618Y-124733482D01*
X135994624Y-124733484D01*
X136316943Y-124846269D01*
X136316955Y-124846273D01*
X136649895Y-124922264D01*
X136989245Y-124960499D01*
X136989246Y-124960500D01*
X136989249Y-124960500D01*
X137330754Y-124960500D01*
X137330754Y-124960499D01*
X137670105Y-124922264D01*
X138003045Y-124846273D01*
X138325382Y-124733482D01*
X138633065Y-124585310D01*
X138922222Y-124403620D01*
X139189219Y-124190697D01*
X139430697Y-123949219D01*
X139643620Y-123682222D01*
X139825310Y-123393065D01*
X139971653Y-123089180D01*
X139973475Y-123085397D01*
X139973478Y-123085390D01*
X139973482Y-123085382D01*
X140086273Y-122763045D01*
X140162264Y-122430105D01*
X140200500Y-122090751D01*
X140200500Y-121749249D01*
X140162264Y-121409895D01*
X140086273Y-121076955D01*
X139973482Y-120754618D01*
X139973478Y-120754611D01*
X139973475Y-120754602D01*
X139825313Y-120446940D01*
X139685367Y-120224218D01*
X139643620Y-120157778D01*
X139430697Y-119890781D01*
X139189219Y-119649303D01*
X138922222Y-119436380D01*
X138633065Y-119254690D01*
X138633066Y-119254690D01*
X138633059Y-119254686D01*
X138325397Y-119106524D01*
X138325375Y-119106515D01*
X138003056Y-118993730D01*
X138003044Y-118993726D01*
X137670108Y-118917736D01*
X137670092Y-118917734D01*
X137330755Y-118879500D01*
X137330751Y-118879500D01*
X136989249Y-118879500D01*
X136989244Y-118879500D01*
X136649907Y-118917734D01*
X136649891Y-118917736D01*
X136316955Y-118993726D01*
X136316943Y-118993730D01*
X135994624Y-119106515D01*
X135994602Y-119106524D01*
X135686940Y-119254686D01*
X135397779Y-119436379D01*
X135130781Y-119649302D01*
X134889302Y-119890781D01*
X134676379Y-120157779D01*
X134494686Y-120446940D01*
X134346524Y-120754602D01*
X134346515Y-120754624D01*
X134233730Y-121076943D01*
X134233726Y-121076955D01*
X134157736Y-121409891D01*
X134157734Y-121409907D01*
X134119500Y-121749244D01*
X104640499Y-121749244D01*
X104602264Y-121409895D01*
X104526273Y-121076955D01*
X104413482Y-120754618D01*
X104413478Y-120754611D01*
X104413475Y-120754602D01*
X104265313Y-120446940D01*
X104125367Y-120224218D01*
X104083620Y-120157778D01*
X103870697Y-119890781D01*
X103629219Y-119649303D01*
X103362222Y-119436380D01*
X103073065Y-119254690D01*
X103073066Y-119254690D01*
X103073059Y-119254686D01*
X102765397Y-119106524D01*
X102765375Y-119106515D01*
X102443056Y-118993730D01*
X102443044Y-118993726D01*
X102110108Y-118917736D01*
X102110092Y-118917734D01*
X101770755Y-118879500D01*
X101770751Y-118879500D01*
X101429249Y-118879500D01*
X101429244Y-118879500D01*
X101089907Y-118917734D01*
X101089891Y-118917736D01*
X100756955Y-118993726D01*
X100756943Y-118993730D01*
X100434624Y-119106515D01*
X100434602Y-119106524D01*
X100126940Y-119254686D01*
X99837779Y-119436379D01*
X99570781Y-119649302D01*
X99329302Y-119890781D01*
X99116379Y-120157779D01*
X98934686Y-120446940D01*
X98786524Y-120754602D01*
X98786515Y-120754624D01*
X98673730Y-121076943D01*
X98673726Y-121076955D01*
X98597736Y-121409891D01*
X98597734Y-121409907D01*
X98559500Y-121749244D01*
X97002081Y-121749244D01*
X97002081Y-93809244D01*
X98559500Y-93809244D01*
X98559500Y-94150755D01*
X98597734Y-94490092D01*
X98597736Y-94490108D01*
X98673726Y-94823044D01*
X98673730Y-94823056D01*
X98786515Y-95145375D01*
X98786524Y-95145397D01*
X98934686Y-95453059D01*
X98981796Y-95528034D01*
X99116380Y-95742222D01*
X99251746Y-95911965D01*
X99318665Y-95995880D01*
X99329303Y-96009219D01*
X99570781Y-96250697D01*
X99837778Y-96463620D01*
X100006078Y-96569370D01*
X100126940Y-96645313D01*
X100434602Y-96793475D01*
X100434611Y-96793478D01*
X100434618Y-96793482D01*
X100434624Y-96793484D01*
X100756943Y-96906269D01*
X100756955Y-96906273D01*
X101089895Y-96982264D01*
X101429245Y-97020499D01*
X101429246Y-97020500D01*
X101429249Y-97020500D01*
X101770754Y-97020500D01*
X101770754Y-97020499D01*
X102110105Y-96982264D01*
X102443045Y-96906273D01*
X102765382Y-96793482D01*
X102891839Y-96732584D01*
X103073059Y-96645313D01*
X103073059Y-96645312D01*
X103073065Y-96645310D01*
X103362222Y-96463620D01*
X103629219Y-96250697D01*
X103870697Y-96009219D01*
X104083620Y-95742222D01*
X104265310Y-95453065D01*
X104287151Y-95407712D01*
X104413475Y-95145397D01*
X104413476Y-95145393D01*
X104413482Y-95145382D01*
X104526273Y-94823045D01*
X104602264Y-94490105D01*
X104640500Y-94150751D01*
X104640500Y-93809249D01*
X104602264Y-93469895D01*
X104526273Y-93136955D01*
X104413482Y-92814618D01*
X104413478Y-92814611D01*
X104413475Y-92814602D01*
X104265313Y-92506940D01*
X104244656Y-92474064D01*
X104083620Y-92217778D01*
X103870697Y-91950781D01*
X103629219Y-91709303D01*
X103362222Y-91496380D01*
X103193922Y-91390630D01*
X103073059Y-91314686D01*
X102765397Y-91166524D01*
X102765375Y-91166515D01*
X102443056Y-91053730D01*
X102443044Y-91053726D01*
X102110108Y-90977736D01*
X102110092Y-90977734D01*
X101770755Y-90939500D01*
X101770751Y-90939500D01*
X101429249Y-90939500D01*
X101429244Y-90939500D01*
X101089907Y-90977734D01*
X101089891Y-90977736D01*
X100756955Y-91053726D01*
X100756943Y-91053730D01*
X100434624Y-91166515D01*
X100434602Y-91166524D01*
X100126940Y-91314686D01*
X99837779Y-91496379D01*
X99570781Y-91709302D01*
X99329302Y-91950781D01*
X99116379Y-92217779D01*
X98934686Y-92506940D01*
X98786524Y-92814602D01*
X98786515Y-92814624D01*
X98673730Y-93136943D01*
X98673726Y-93136955D01*
X98597736Y-93469891D01*
X98597734Y-93469907D01*
X98559500Y-93809244D01*
X97002081Y-93809244D01*
X97002081Y-76333236D01*
X97021766Y-76266197D01*
X97074570Y-76220442D01*
X97126081Y-76209236D01*
X101212166Y-76209236D01*
X101279205Y-76228921D01*
G37*
%TD.AperFunction*%
%TA.AperFunction,Conductor*%
G36*
X109154103Y-99843784D02*
G01*
X109160581Y-99849816D01*
X110223439Y-100912674D01*
X110223449Y-100912685D01*
X110227779Y-100917015D01*
X110227780Y-100917016D01*
X110339584Y-101028820D01*
X110421083Y-101075873D01*
X110421084Y-101075874D01*
X110476509Y-101107874D01*
X110476510Y-101107874D01*
X110476515Y-101107877D01*
X110629242Y-101148800D01*
X110629243Y-101148800D01*
X110629244Y-101148800D01*
X110637092Y-101150903D01*
X110636610Y-101152699D01*
X110691081Y-101176795D01*
X110729553Y-101235119D01*
X110735000Y-101271468D01*
X110735000Y-101350000D01*
X111479670Y-101350000D01*
X111459925Y-101369745D01*
X111410556Y-101455255D01*
X111385000Y-101550630D01*
X111385000Y-101649370D01*
X111410556Y-101744745D01*
X111459925Y-101830255D01*
X111479670Y-101850000D01*
X110735000Y-101850000D01*
X110735000Y-102397844D01*
X110741401Y-102457372D01*
X110741403Y-102457379D01*
X110791645Y-102592086D01*
X110791649Y-102592093D01*
X110877809Y-102707187D01*
X110877812Y-102707190D01*
X110992906Y-102793350D01*
X110992913Y-102793354D01*
X111127620Y-102843596D01*
X111127627Y-102843598D01*
X111187155Y-102849999D01*
X111187172Y-102850000D01*
X111510000Y-102850000D01*
X111510000Y-101880330D01*
X111529745Y-101900075D01*
X111615255Y-101949444D01*
X111710630Y-101975000D01*
X111809370Y-101975000D01*
X111904745Y-101949444D01*
X111990255Y-101900075D01*
X112004500Y-101885830D01*
X112004500Y-101926003D01*
X112009722Y-101952259D01*
X112009968Y-101963046D01*
X112009788Y-101963714D01*
X112010000Y-101965865D01*
X112010000Y-102850000D01*
X112332828Y-102850000D01*
X112332844Y-102849999D01*
X112392372Y-102843598D01*
X112392376Y-102843597D01*
X112527089Y-102793352D01*
X112527896Y-102792748D01*
X112528845Y-102792393D01*
X112534876Y-102789101D01*
X112535349Y-102789967D01*
X112593360Y-102768329D01*
X112649661Y-102777451D01*
X112730873Y-102811091D01*
X112894288Y-102843596D01*
X112928992Y-102850499D01*
X112928996Y-102850500D01*
X112928997Y-102850500D01*
X113131004Y-102850500D01*
X113131005Y-102850499D01*
X113329127Y-102811091D01*
X113515756Y-102733786D01*
X113596110Y-102680094D01*
X113662786Y-102659217D01*
X113730166Y-102677701D01*
X113733865Y-102680078D01*
X113814244Y-102733786D01*
X114000873Y-102811091D01*
X114164288Y-102843596D01*
X114198992Y-102850499D01*
X114198996Y-102850500D01*
X114402200Y-102850500D01*
X114469239Y-102870185D01*
X114514994Y-102922989D01*
X114526200Y-102974500D01*
X114526200Y-110004784D01*
X114506515Y-110071823D01*
X114453711Y-110117578D01*
X114399379Y-110127556D01*
X114399379Y-110128600D01*
X114133072Y-110128600D01*
X113901972Y-110159026D01*
X113873084Y-110162830D01*
X113721973Y-110203320D01*
X113619781Y-110230702D01*
X113619771Y-110230705D01*
X113377509Y-110331053D01*
X113377499Y-110331058D01*
X113150396Y-110462175D01*
X112942348Y-110621818D01*
X112756918Y-110807248D01*
X112597275Y-111015296D01*
X112466158Y-111242399D01*
X112466153Y-111242409D01*
X112365805Y-111484671D01*
X112365802Y-111484681D01*
X112297930Y-111737984D01*
X112294126Y-111766872D01*
X112263700Y-111997972D01*
X112263700Y-112260227D01*
X112292209Y-112476762D01*
X112297930Y-112520216D01*
X112306089Y-112550669D01*
X112304427Y-112620518D01*
X112265264Y-112678380D01*
X112201035Y-112705884D01*
X112159449Y-112702913D01*
X112159308Y-112703624D01*
X112155321Y-112702831D01*
X112155316Y-112702830D01*
X112097539Y-112695223D01*
X111895327Y-112668600D01*
X111895320Y-112668600D01*
X111633080Y-112668600D01*
X111633072Y-112668600D01*
X111401972Y-112699026D01*
X111373084Y-112702830D01*
X111166727Y-112758123D01*
X111119781Y-112770702D01*
X111119765Y-112770707D01*
X110910130Y-112857541D01*
X110840661Y-112865010D01*
X110778182Y-112833735D01*
X110774997Y-112830661D01*
X108985219Y-111040883D01*
X108951734Y-110979560D01*
X108948900Y-110953202D01*
X108948900Y-99937497D01*
X108968585Y-99870458D01*
X109021389Y-99824703D01*
X109090547Y-99814759D01*
X109154103Y-99843784D01*
G37*
%TD.AperFunction*%
%TA.AperFunction,Conductor*%
G36*
X116556433Y-107740791D02*
G01*
X116572647Y-107738460D01*
X116590176Y-107746465D01*
X116609181Y-107749661D01*
X116621302Y-107760680D01*
X116636203Y-107767485D01*
X116646622Y-107783697D01*
X116660881Y-107796660D01*
X116672721Y-107824308D01*
X116673977Y-107826263D01*
X116674766Y-107829075D01*
X116690123Y-107886385D01*
X116719058Y-107936500D01*
X116719059Y-107936504D01*
X116719060Y-107936504D01*
X116756974Y-108002175D01*
X116769179Y-108023314D01*
X116769181Y-108023317D01*
X116888049Y-108142185D01*
X116888055Y-108142190D01*
X117425761Y-108679896D01*
X117459246Y-108741219D01*
X117454262Y-108810911D01*
X117452641Y-108815029D01*
X117365807Y-109024665D01*
X117365802Y-109024681D01*
X117297930Y-109277985D01*
X117263700Y-109537972D01*
X117263700Y-109800227D01*
X117269314Y-109842865D01*
X117297930Y-110060216D01*
X117354456Y-110271175D01*
X117365802Y-110313518D01*
X117365805Y-110313528D01*
X117455443Y-110529932D01*
X117462912Y-110599402D01*
X117431637Y-110661881D01*
X117371548Y-110697533D01*
X117301723Y-110695039D01*
X117253201Y-110665066D01*
X116467319Y-109879184D01*
X116433834Y-109817861D01*
X116431000Y-109791503D01*
X116431000Y-107861198D01*
X116436429Y-107842708D01*
X116436888Y-107823442D01*
X116446070Y-107809875D01*
X116450685Y-107794159D01*
X116465248Y-107781539D01*
X116476051Y-107765579D01*
X116491110Y-107759130D01*
X116503489Y-107748404D01*
X116522563Y-107745661D01*
X116540279Y-107738075D01*
X116556433Y-107740791D01*
G37*
%TD.AperFunction*%
%TA.AperFunction,Conductor*%
G36*
X115169702Y-87268085D02*
G01*
X115214051Y-87296586D01*
X116612881Y-88695416D01*
X116646366Y-88756739D01*
X116649200Y-88783097D01*
X116649200Y-100516459D01*
X116629515Y-100583498D01*
X116576711Y-100629253D01*
X116507553Y-100639197D01*
X116443997Y-100610172D01*
X116437519Y-100604140D01*
X116340792Y-100507413D01*
X116340788Y-100507410D01*
X116209685Y-100419809D01*
X116209672Y-100419802D01*
X116064001Y-100359464D01*
X116063989Y-100359461D01*
X115909345Y-100328700D01*
X115909342Y-100328700D01*
X115851200Y-100328700D01*
X115784161Y-100309015D01*
X115738406Y-100256211D01*
X115727200Y-100204700D01*
X115727200Y-97267645D01*
X115727200Y-97267643D01*
X115686277Y-97114916D01*
X115686273Y-97114909D01*
X115607224Y-96977990D01*
X115607221Y-96977986D01*
X115607220Y-96977984D01*
X115495416Y-96866180D01*
X115495415Y-96866179D01*
X115491085Y-96861849D01*
X115491074Y-96861839D01*
X115361819Y-96732584D01*
X115328334Y-96671261D01*
X115325500Y-96644903D01*
X115325500Y-96193996D01*
X115325499Y-96193992D01*
X115289922Y-96015133D01*
X115286091Y-95995873D01*
X115208786Y-95809244D01*
X115208784Y-95809241D01*
X115208782Y-95809237D01*
X115096558Y-95641281D01*
X114953718Y-95498441D01*
X114785762Y-95386217D01*
X114785752Y-95386212D01*
X114676822Y-95341091D01*
X114622418Y-95297249D01*
X114613166Y-95281582D01*
X114607692Y-95270534D01*
X114598577Y-95236515D01*
X114545961Y-95145382D01*
X114519520Y-95099584D01*
X114407716Y-94987780D01*
X114407715Y-94987779D01*
X114403385Y-94983449D01*
X114403374Y-94983439D01*
X112314837Y-92894902D01*
X112281352Y-92833579D01*
X112286336Y-92763887D01*
X112328208Y-92707954D01*
X112358814Y-92691178D01*
X112558506Y-92615970D01*
X112576475Y-92614627D01*
X112593360Y-92608329D01*
X112614631Y-92611775D01*
X112628181Y-92610763D01*
X112636626Y-92615339D01*
X112649661Y-92617451D01*
X112730873Y-92651091D01*
X112928992Y-92690499D01*
X112928996Y-92690500D01*
X112928997Y-92690500D01*
X113131004Y-92690500D01*
X113131005Y-92690499D01*
X113329127Y-92651091D01*
X113515756Y-92573786D01*
X113596110Y-92520094D01*
X113662786Y-92499217D01*
X113730166Y-92517701D01*
X113733865Y-92520078D01*
X113814244Y-92573786D01*
X114000873Y-92651091D01*
X114198992Y-92690499D01*
X114198996Y-92690500D01*
X114198997Y-92690500D01*
X114401004Y-92690500D01*
X114401005Y-92690499D01*
X114599127Y-92651091D01*
X114785756Y-92573786D01*
X114953718Y-92461558D01*
X115096558Y-92318718D01*
X115208786Y-92150756D01*
X115286091Y-91964127D01*
X115325500Y-91766003D01*
X115325500Y-91113997D01*
X115286091Y-90915873D01*
X115208786Y-90729244D01*
X115208784Y-90729241D01*
X115208782Y-90729237D01*
X115096558Y-90561281D01*
X114953721Y-90418444D01*
X114949010Y-90414578D01*
X114950156Y-90413181D01*
X114910802Y-90366088D01*
X114900500Y-90316603D01*
X114900500Y-90309245D01*
X114900500Y-90309243D01*
X114859577Y-90156516D01*
X114846024Y-90133041D01*
X114780524Y-90019590D01*
X114780518Y-90019582D01*
X114668717Y-89907781D01*
X114668709Y-89907775D01*
X114531790Y-89828726D01*
X114531786Y-89828724D01*
X114531784Y-89828723D01*
X114379057Y-89787800D01*
X114379056Y-89787800D01*
X112990736Y-89787800D01*
X112923697Y-89768115D01*
X112877942Y-89715311D01*
X112867998Y-89646153D01*
X112883347Y-89601803D01*
X112953077Y-89481028D01*
X112994001Y-89328300D01*
X112994001Y-89170185D01*
X112994001Y-89162590D01*
X112994000Y-89162572D01*
X112994000Y-88840417D01*
X112994001Y-88840404D01*
X112994001Y-88672302D01*
X112994001Y-88672300D01*
X112953077Y-88519572D01*
X112874020Y-88382641D01*
X112521964Y-88030585D01*
X112521963Y-88030584D01*
X112410159Y-87918780D01*
X112323347Y-87868660D01*
X112323347Y-87868659D01*
X112323343Y-87868658D01*
X112302478Y-87856611D01*
X112275941Y-87841289D01*
X112227726Y-87790721D01*
X112214505Y-87722113D01*
X112240474Y-87657249D01*
X112297389Y-87616722D01*
X112329533Y-87610432D01*
X112329525Y-87610356D01*
X112330411Y-87610260D01*
X112331340Y-87610079D01*
X112332850Y-87609998D01*
X112392372Y-87603598D01*
X112392376Y-87603597D01*
X112527089Y-87553352D01*
X112527896Y-87552748D01*
X112528845Y-87552393D01*
X112534876Y-87549101D01*
X112535349Y-87549967D01*
X112593360Y-87528329D01*
X112649661Y-87537451D01*
X112730873Y-87571091D01*
X112927790Y-87610260D01*
X112928992Y-87610499D01*
X112928996Y-87610500D01*
X112928997Y-87610500D01*
X113131004Y-87610500D01*
X113131005Y-87610499D01*
X113329127Y-87571091D01*
X113515756Y-87493786D01*
X113596110Y-87440094D01*
X113662786Y-87419217D01*
X113730166Y-87437701D01*
X113733865Y-87440078D01*
X113814244Y-87493786D01*
X114000873Y-87571091D01*
X114197790Y-87610260D01*
X114198992Y-87610499D01*
X114198996Y-87610500D01*
X114198997Y-87610500D01*
X114401004Y-87610500D01*
X114401005Y-87610499D01*
X114599127Y-87571091D01*
X114785756Y-87493786D01*
X114953718Y-87381558D01*
X115038690Y-87296585D01*
X115100011Y-87263101D01*
X115169702Y-87268085D01*
G37*
%TD.AperFunction*%
%TA.AperFunction,Conductor*%
G36*
X104232681Y-80155191D02*
G01*
X104244267Y-80168563D01*
X104249120Y-80175046D01*
X104249121Y-80175047D01*
X104364330Y-80261293D01*
X104364337Y-80261297D01*
X104409284Y-80278061D01*
X104499183Y-80311591D01*
X104558793Y-80318000D01*
X104805501Y-80317999D01*
X104872539Y-80337683D01*
X104918294Y-80390487D01*
X104929500Y-80441999D01*
X104929500Y-86872630D01*
X104929499Y-86872648D01*
X104929499Y-87038354D01*
X104929498Y-87038354D01*
X104930371Y-87041613D01*
X104964726Y-87169825D01*
X104970424Y-87191087D01*
X104979737Y-87207217D01*
X104979738Y-87207219D01*
X105049477Y-87328012D01*
X105049481Y-87328017D01*
X105168349Y-87446885D01*
X105168355Y-87446890D01*
X112816643Y-95095178D01*
X112850128Y-95156501D01*
X112845144Y-95226193D01*
X112803272Y-95282126D01*
X112770552Y-95299676D01*
X112762020Y-95302713D01*
X112730873Y-95308909D01*
X112646781Y-95343741D01*
X112643799Y-95344803D01*
X112611933Y-95346603D01*
X112580191Y-95350016D01*
X112576898Y-95348582D01*
X112574040Y-95348744D01*
X112563254Y-95342643D01*
X112535140Y-95330405D01*
X112534872Y-95330897D01*
X112529374Y-95327894D01*
X112527895Y-95327251D01*
X112527086Y-95326645D01*
X112392379Y-95276403D01*
X112392372Y-95276401D01*
X112332844Y-95270000D01*
X112010000Y-95270000D01*
X112010000Y-96154134D01*
X112007617Y-96178326D01*
X112004500Y-96193995D01*
X112004500Y-96234170D01*
X111990255Y-96219925D01*
X111904745Y-96170556D01*
X111809370Y-96145000D01*
X111710630Y-96145000D01*
X111615255Y-96170556D01*
X111529745Y-96219925D01*
X111510000Y-96239670D01*
X111510000Y-95270000D01*
X111187155Y-95270000D01*
X111127627Y-95276401D01*
X111127620Y-95276403D01*
X110992913Y-95326645D01*
X110992906Y-95326649D01*
X110877812Y-95412809D01*
X110877809Y-95412812D01*
X110791649Y-95527906D01*
X110791645Y-95527913D01*
X110741403Y-95662620D01*
X110741401Y-95662627D01*
X110735000Y-95722155D01*
X110735000Y-96270000D01*
X111479670Y-96270000D01*
X111459925Y-96289745D01*
X111410556Y-96375255D01*
X111385000Y-96470630D01*
X111385000Y-96569370D01*
X111410556Y-96664745D01*
X111459925Y-96750255D01*
X111479670Y-96770000D01*
X110735000Y-96770000D01*
X110735000Y-97317844D01*
X110741401Y-97377372D01*
X110741403Y-97377379D01*
X110791645Y-97512086D01*
X110791649Y-97512093D01*
X110877809Y-97627187D01*
X110877812Y-97627190D01*
X110992906Y-97713350D01*
X110992913Y-97713354D01*
X111127620Y-97763596D01*
X111127627Y-97763598D01*
X111187155Y-97769999D01*
X111187172Y-97770000D01*
X111510000Y-97770000D01*
X111510000Y-96800330D01*
X111529745Y-96820075D01*
X111615255Y-96869444D01*
X111710630Y-96895000D01*
X111809370Y-96895000D01*
X111904745Y-96869444D01*
X111990255Y-96820075D01*
X112004500Y-96805830D01*
X112004500Y-96846002D01*
X112007617Y-96861671D01*
X112010000Y-96885865D01*
X112010000Y-97770000D01*
X112332828Y-97770000D01*
X112332844Y-97769999D01*
X112392372Y-97763598D01*
X112392376Y-97763597D01*
X112527089Y-97713352D01*
X112527896Y-97712748D01*
X112528845Y-97712393D01*
X112534876Y-97709101D01*
X112535349Y-97709967D01*
X112593360Y-97688329D01*
X112649661Y-97697451D01*
X112730873Y-97731091D01*
X112894288Y-97763596D01*
X112928992Y-97770499D01*
X112928996Y-97770500D01*
X112928997Y-97770500D01*
X113131004Y-97770500D01*
X113131005Y-97770499D01*
X113329127Y-97731091D01*
X113515756Y-97653786D01*
X113596110Y-97600094D01*
X113662786Y-97579217D01*
X113730166Y-97597701D01*
X113733865Y-97600078D01*
X113814244Y-97653786D01*
X114000873Y-97731091D01*
X114164288Y-97763596D01*
X114198992Y-97770499D01*
X114198996Y-97770500D01*
X114402200Y-97770500D01*
X114469239Y-97790185D01*
X114514994Y-97842989D01*
X114526200Y-97894500D01*
X114526200Y-100225500D01*
X114506515Y-100292539D01*
X114453711Y-100338294D01*
X114402200Y-100349500D01*
X114401003Y-100349500D01*
X114198997Y-100349500D01*
X114148919Y-100359461D01*
X114116265Y-100365956D01*
X114108357Y-100365248D01*
X114100921Y-100368022D01*
X114074056Y-100362177D01*
X114046674Y-100359727D01*
X114038666Y-100354479D01*
X114032648Y-100353170D01*
X114004394Y-100332019D01*
X113859730Y-100187355D01*
X113859728Y-100187352D01*
X113740857Y-100068481D01*
X113740856Y-100068480D01*
X113654044Y-100018360D01*
X113654044Y-100018359D01*
X113654040Y-100018358D01*
X113603925Y-99989423D01*
X113451197Y-99948499D01*
X113451194Y-99948499D01*
X113340803Y-99948499D01*
X113340319Y-99948498D01*
X113329812Y-99948457D01*
X113327357Y-99947799D01*
X113169243Y-99947799D01*
X113169239Y-99947800D01*
X111008397Y-99947800D01*
X110941358Y-99928115D01*
X110920716Y-99911481D01*
X109586919Y-98577684D01*
X109553434Y-98516361D01*
X109550600Y-98490003D01*
X109550600Y-95003945D01*
X109550600Y-95003943D01*
X109509677Y-94851216D01*
X109509673Y-94851209D01*
X109430624Y-94714290D01*
X109430621Y-94714286D01*
X109430620Y-94714284D01*
X109318816Y-94602480D01*
X109318815Y-94602479D01*
X109314485Y-94598149D01*
X109314474Y-94598139D01*
X103396819Y-88680484D01*
X103363334Y-88619161D01*
X103360500Y-88592803D01*
X103360500Y-80441999D01*
X103380185Y-80374960D01*
X103432989Y-80329205D01*
X103484500Y-80317999D01*
X103731205Y-80317999D01*
X103731206Y-80317999D01*
X103790817Y-80311591D01*
X103925665Y-80261296D01*
X104040880Y-80175046D01*
X104045733Y-80168562D01*
X104101666Y-80126691D01*
X104171357Y-80121707D01*
X104232681Y-80155191D01*
G37*
%TD.AperFunction*%
%TA.AperFunction,Conductor*%
G36*
X134702681Y-80155191D02*
G01*
X134714267Y-80168563D01*
X134719120Y-80175046D01*
X134719121Y-80175047D01*
X134834330Y-80261293D01*
X134834337Y-80261297D01*
X134879284Y-80278061D01*
X134969183Y-80311591D01*
X135028793Y-80318000D01*
X135275501Y-80317999D01*
X135342539Y-80337683D01*
X135388294Y-80390487D01*
X135399500Y-80441999D01*
X135399500Y-89290702D01*
X135379815Y-89357741D01*
X135363181Y-89378383D01*
X132986282Y-91755282D01*
X132966849Y-91765892D01*
X132950114Y-91780395D01*
X132936780Y-91782312D01*
X132924959Y-91788767D01*
X132902873Y-91787187D01*
X132880955Y-91790339D01*
X132868702Y-91784743D01*
X132855267Y-91783783D01*
X132837541Y-91770513D01*
X132817399Y-91761315D01*
X132810115Y-91749982D01*
X132799334Y-91741911D01*
X132791596Y-91721166D01*
X132779624Y-91702537D01*
X132776472Y-91680617D01*
X132774917Y-91676447D01*
X132774601Y-91667602D01*
X132774601Y-91591542D01*
X132774600Y-91591538D01*
X132774600Y-83410165D01*
X132794285Y-83343126D01*
X132795498Y-83341274D01*
X132883490Y-83209585D01*
X132883490Y-83209584D01*
X132883494Y-83209579D01*
X132943837Y-83063897D01*
X132974600Y-82909242D01*
X132974600Y-82751558D01*
X132974600Y-82751555D01*
X132974599Y-82751553D01*
X132943838Y-82596910D01*
X132943837Y-82596903D01*
X132943835Y-82596898D01*
X132883497Y-82451227D01*
X132883490Y-82451214D01*
X132795889Y-82320111D01*
X132795886Y-82320107D01*
X132684392Y-82208613D01*
X132684388Y-82208610D01*
X132553285Y-82121009D01*
X132553272Y-82121002D01*
X132407601Y-82060664D01*
X132407589Y-82060661D01*
X132252945Y-82029900D01*
X132252942Y-82029900D01*
X132095258Y-82029900D01*
X132095255Y-82029900D01*
X131940610Y-82060661D01*
X131940598Y-82060664D01*
X131794927Y-82121002D01*
X131794914Y-82121009D01*
X131663811Y-82208610D01*
X131663807Y-82208613D01*
X131552313Y-82320107D01*
X131552310Y-82320111D01*
X131464709Y-82451214D01*
X131464702Y-82451227D01*
X131404364Y-82596898D01*
X131404361Y-82596910D01*
X131373600Y-82751553D01*
X131373600Y-82909246D01*
X131404361Y-83063889D01*
X131404364Y-83063901D01*
X131464702Y-83209572D01*
X131464709Y-83209585D01*
X131552702Y-83341274D01*
X131573580Y-83407951D01*
X131573600Y-83410165D01*
X131573600Y-85522087D01*
X131553915Y-85589126D01*
X131501111Y-85634881D01*
X131431953Y-85644825D01*
X131368397Y-85615800D01*
X131349282Y-85594972D01*
X131289571Y-85512787D01*
X131289567Y-85512782D01*
X131144813Y-85368028D01*
X130979213Y-85247715D01*
X130979212Y-85247714D01*
X130979210Y-85247713D01*
X130922253Y-85218691D01*
X130796823Y-85154781D01*
X130602134Y-85091522D01*
X130427595Y-85063878D01*
X130399952Y-85059500D01*
X130195248Y-85059500D01*
X130127854Y-85070174D01*
X129993064Y-85091523D01*
X129993061Y-85091523D01*
X129901318Y-85121333D01*
X129831477Y-85123328D01*
X129771644Y-85087248D01*
X129740816Y-85024547D01*
X129739000Y-85003402D01*
X129739000Y-81345520D01*
X129758685Y-81278481D01*
X129794110Y-81242417D01*
X129822589Y-81223389D01*
X129934089Y-81111889D01*
X130021694Y-80980779D01*
X130082037Y-80835097D01*
X130112800Y-80680442D01*
X130112800Y-80522758D01*
X130112800Y-80522755D01*
X130101548Y-80466191D01*
X130107775Y-80396600D01*
X130150637Y-80341422D01*
X130216527Y-80318177D01*
X130223165Y-80317999D01*
X131431205Y-80317999D01*
X131431206Y-80317999D01*
X131490817Y-80311591D01*
X131625665Y-80261296D01*
X131740880Y-80175046D01*
X131745733Y-80168562D01*
X131801666Y-80126691D01*
X131871357Y-80121707D01*
X131932681Y-80155191D01*
X131944267Y-80168563D01*
X131949120Y-80175046D01*
X131949121Y-80175047D01*
X132064330Y-80261293D01*
X132064337Y-80261297D01*
X132199183Y-80311591D01*
X132199182Y-80311591D01*
X132206110Y-80312335D01*
X132258793Y-80318000D01*
X134201206Y-80317999D01*
X134260817Y-80311591D01*
X134395665Y-80261296D01*
X134510880Y-80175046D01*
X134515733Y-80168562D01*
X134571666Y-80126691D01*
X134641357Y-80121707D01*
X134702681Y-80155191D01*
G37*
%TD.AperFunction*%
%TA.AperFunction,Conductor*%
G36*
X131536020Y-87108987D02*
G01*
X131570377Y-87169825D01*
X131573600Y-87197912D01*
X131573600Y-90602087D01*
X131553915Y-90669126D01*
X131501111Y-90714881D01*
X131431953Y-90724825D01*
X131368397Y-90695800D01*
X131349282Y-90674972D01*
X131289571Y-90592787D01*
X131289567Y-90592782D01*
X131144813Y-90448028D01*
X130979213Y-90327715D01*
X130979212Y-90327714D01*
X130979210Y-90327713D01*
X130922253Y-90298691D01*
X130796823Y-90234781D01*
X130602134Y-90171522D01*
X130427595Y-90143878D01*
X130399952Y-90139500D01*
X130195248Y-90139500D01*
X130157199Y-90145526D01*
X129993068Y-90171522D01*
X129984317Y-90174365D01*
X129978754Y-90176173D01*
X129963541Y-90176607D01*
X129949284Y-90181925D01*
X129929329Y-90177584D01*
X129908913Y-90178167D01*
X129894826Y-90170078D01*
X129881011Y-90167073D01*
X129852757Y-90145922D01*
X129775319Y-90068484D01*
X129741834Y-90007161D01*
X129739000Y-89980803D01*
X129739000Y-87716597D01*
X129758685Y-87649558D01*
X129811489Y-87603803D01*
X129880647Y-87593859D01*
X129901312Y-87598664D01*
X129956888Y-87616722D01*
X129993065Y-87628477D01*
X130094157Y-87644488D01*
X130195248Y-87660500D01*
X130195249Y-87660500D01*
X130399951Y-87660500D01*
X130399952Y-87660500D01*
X130602134Y-87628477D01*
X130796819Y-87565220D01*
X130979210Y-87472287D01*
X131104093Y-87381555D01*
X131144813Y-87351971D01*
X131144815Y-87351968D01*
X131144819Y-87351966D01*
X131289566Y-87207219D01*
X131349282Y-87125026D01*
X131404611Y-87082361D01*
X131474224Y-87076382D01*
X131536020Y-87108987D01*
G37*
%TD.AperFunction*%
%TA.AperFunction,Conductor*%
G36*
X107002681Y-80155191D02*
G01*
X107014267Y-80168563D01*
X107019120Y-80175046D01*
X107019121Y-80175047D01*
X107134330Y-80261293D01*
X107134337Y-80261297D01*
X107179284Y-80278061D01*
X107269183Y-80311591D01*
X107328793Y-80318000D01*
X107575501Y-80317999D01*
X107642539Y-80337683D01*
X107688294Y-80390487D01*
X107699500Y-80441999D01*
X107699500Y-87934839D01*
X107699499Y-87934843D01*
X107699499Y-87976761D01*
X107699499Y-87980204D01*
X107687938Y-88019574D01*
X107680400Y-88045246D01*
X107679813Y-88047243D01*
X107655992Y-88067883D01*
X107627010Y-88092996D01*
X107627008Y-88092996D01*
X107627008Y-88092997D01*
X107577738Y-88100080D01*
X107557852Y-88102940D01*
X107557851Y-88102939D01*
X107557850Y-88102940D01*
X107528825Y-88089683D01*
X107494296Y-88073915D01*
X107487818Y-88067883D01*
X106166819Y-86746884D01*
X106133334Y-86685561D01*
X106130500Y-86659203D01*
X106130500Y-80441999D01*
X106150185Y-80374960D01*
X106202989Y-80329205D01*
X106254500Y-80317999D01*
X106501205Y-80317999D01*
X106501206Y-80317999D01*
X106560817Y-80311591D01*
X106695665Y-80261296D01*
X106810880Y-80175046D01*
X106815733Y-80168562D01*
X106871666Y-80126691D01*
X106941357Y-80121707D01*
X107002681Y-80155191D01*
G37*
%TD.AperFunction*%
%TD*%
M02*
