%TF.GenerationSoftware,KiCad,Pcbnew,9.0.5-1.fc42*%
%TF.CreationDate,2025-11-09T17:22:24+08:00*%
%TF.ProjectId,b5s4-XA1541-active,62357334-2d58-4413-9135-34312d616374,1.1*%
%TF.SameCoordinates,Original*%
%TF.FileFunction,Legend,Top*%
%TF.FilePolarity,Positive*%
%FSLAX46Y46*%
G04 Gerber Fmt 4.6, Leading zero omitted, Abs format (unit mm)*
G04 Created by KiCad (PCBNEW 9.0.5-1.fc42) date 2025-11-09 17:22:24*
%MOMM*%
%LPD*%
G01*
G04 APERTURE LIST*
%ADD10C,0.000000*%
%ADD11C,0.052916*%
%ADD12C,0.005291*%
%ADD13C,0.150000*%
%ADD14C,0.100000*%
%ADD15C,0.120000*%
%ADD16C,0.500000*%
%ADD17C,0.400000*%
%ADD18C,1.600000*%
%ADD19C,3.000000*%
%ADD20R,1.050000X1.500000*%
%ADD21O,1.050000X1.500000*%
%ADD22R,1.846667X3.480000*%
G04 APERTURE END LIST*
D10*
G36*
X103721178Y-109378874D02*
G01*
X103735365Y-109379953D01*
X103749346Y-109381730D01*
X103763103Y-109384187D01*
X103776619Y-109387306D01*
X103789876Y-109391071D01*
X103802857Y-109395463D01*
X103815543Y-109400465D01*
X103827918Y-109406059D01*
X103839964Y-109412229D01*
X103851663Y-109418956D01*
X103862997Y-109426222D01*
X103873950Y-109434011D01*
X103884504Y-109442304D01*
X103894641Y-109451085D01*
X103904343Y-109460335D01*
X103913593Y-109470037D01*
X103922374Y-109480174D01*
X103930667Y-109490728D01*
X103938456Y-109501681D01*
X103945722Y-109513015D01*
X103952449Y-109524714D01*
X103958619Y-109536760D01*
X103964213Y-109549135D01*
X103969215Y-109561821D01*
X103973607Y-109574802D01*
X103977372Y-109588059D01*
X103980491Y-109601575D01*
X103982948Y-109615332D01*
X103984725Y-109629313D01*
X103985804Y-109643500D01*
X103986167Y-109657877D01*
X103985804Y-109672253D01*
X103984725Y-109686440D01*
X103982948Y-109700421D01*
X103980491Y-109714179D01*
X103977372Y-109727694D01*
X103973607Y-109740951D01*
X103969215Y-109753932D01*
X103964213Y-109766618D01*
X103958619Y-109778993D01*
X103952449Y-109791039D01*
X103945722Y-109802738D01*
X103938456Y-109814073D01*
X103930667Y-109825026D01*
X103922374Y-109835579D01*
X103913593Y-109845716D01*
X103904343Y-109855418D01*
X103894641Y-109864668D01*
X103884504Y-109873449D01*
X103873950Y-109881742D01*
X103862997Y-109889531D01*
X103851663Y-109896798D01*
X103839964Y-109903524D01*
X103827918Y-109909694D01*
X103815543Y-109915288D01*
X103802857Y-109920290D01*
X103789876Y-109924683D01*
X103776619Y-109928447D01*
X103763103Y-109931567D01*
X103749346Y-109934023D01*
X103735365Y-109935800D01*
X103721178Y-109936879D01*
X103706802Y-109937242D01*
X103692425Y-109936879D01*
X103678238Y-109935800D01*
X103664257Y-109934023D01*
X103650500Y-109931567D01*
X103636984Y-109928447D01*
X103623727Y-109924683D01*
X103610746Y-109920290D01*
X103598060Y-109915288D01*
X103585685Y-109909694D01*
X103573639Y-109903524D01*
X103561940Y-109896798D01*
X103550605Y-109889531D01*
X103539653Y-109881742D01*
X103529099Y-109873449D01*
X103518962Y-109864668D01*
X103509260Y-109855418D01*
X103500010Y-109845716D01*
X103491229Y-109835579D01*
X103482936Y-109825026D01*
X103475147Y-109814073D01*
X103467880Y-109802738D01*
X103461154Y-109791039D01*
X103454984Y-109778993D01*
X103449390Y-109766618D01*
X103444388Y-109753932D01*
X103439995Y-109740951D01*
X103436231Y-109727694D01*
X103433111Y-109714179D01*
X103430655Y-109700421D01*
X103428878Y-109686440D01*
X103427799Y-109672253D01*
X103427436Y-109657877D01*
X103427799Y-109643500D01*
X103428878Y-109629313D01*
X103430655Y-109615332D01*
X103433111Y-109601575D01*
X103436231Y-109588059D01*
X103439995Y-109574802D01*
X103444388Y-109561821D01*
X103449390Y-109549135D01*
X103454984Y-109536760D01*
X103461154Y-109524714D01*
X103467880Y-109513015D01*
X103475147Y-109501681D01*
X103482936Y-109490728D01*
X103491229Y-109480174D01*
X103500010Y-109470037D01*
X103509260Y-109460335D01*
X103518962Y-109451085D01*
X103529099Y-109442304D01*
X103539653Y-109434011D01*
X103550605Y-109426222D01*
X103561940Y-109418956D01*
X103573639Y-109412229D01*
X103585685Y-109406059D01*
X103598060Y-109400465D01*
X103610746Y-109395463D01*
X103623727Y-109391071D01*
X103636984Y-109387306D01*
X103650500Y-109384187D01*
X103664257Y-109381730D01*
X103678238Y-109379953D01*
X103692425Y-109378874D01*
X103706802Y-109378511D01*
X103721178Y-109378874D01*
G37*
G36*
X103334783Y-111722464D02*
G01*
X103348970Y-111723543D01*
X103362952Y-111725319D01*
X103376709Y-111727776D01*
X103390225Y-111730896D01*
X103403482Y-111734660D01*
X103416462Y-111739052D01*
X103429149Y-111744054D01*
X103441523Y-111749649D01*
X103453569Y-111755818D01*
X103465268Y-111762545D01*
X103476603Y-111769812D01*
X103487556Y-111777601D01*
X103498109Y-111785894D01*
X103508246Y-111794675D01*
X103517948Y-111803925D01*
X103527198Y-111813627D01*
X103535979Y-111823764D01*
X103544272Y-111834317D01*
X103552061Y-111845270D01*
X103559328Y-111856605D01*
X103566055Y-111868304D01*
X103572224Y-111880350D01*
X103577819Y-111892724D01*
X103582821Y-111905411D01*
X103587213Y-111918391D01*
X103590977Y-111931648D01*
X103594097Y-111945164D01*
X103596554Y-111958921D01*
X103598330Y-111972903D01*
X103599409Y-111987090D01*
X103599772Y-112001466D01*
X103599409Y-112015842D01*
X103598330Y-112030030D01*
X103596554Y-112044011D01*
X103594097Y-112057768D01*
X103590977Y-112071284D01*
X103587213Y-112084541D01*
X103582821Y-112097521D01*
X103577819Y-112110208D01*
X103572224Y-112122583D01*
X103566055Y-112134628D01*
X103559328Y-112146327D01*
X103552061Y-112157662D01*
X103544272Y-112168615D01*
X103535979Y-112179169D01*
X103527198Y-112189305D01*
X103517948Y-112199007D01*
X103508246Y-112208258D01*
X103498109Y-112217038D01*
X103487556Y-112225332D01*
X103476603Y-112233120D01*
X103465268Y-112240387D01*
X103453569Y-112247114D01*
X103441523Y-112253283D01*
X103429149Y-112258878D01*
X103416462Y-112263880D01*
X103403482Y-112268272D01*
X103390225Y-112272037D01*
X103376709Y-112275156D01*
X103362952Y-112277613D01*
X103348970Y-112279390D01*
X103334783Y-112280468D01*
X103320407Y-112280832D01*
X103306031Y-112280468D01*
X103291843Y-112279390D01*
X103277862Y-112277613D01*
X103264105Y-112275156D01*
X103250589Y-112272037D01*
X103237332Y-112268272D01*
X103224352Y-112263880D01*
X103211665Y-112258878D01*
X103199290Y-112253283D01*
X103187245Y-112247114D01*
X103175546Y-112240387D01*
X103164211Y-112233120D01*
X103153258Y-112225332D01*
X103142704Y-112217038D01*
X103132568Y-112208258D01*
X103122865Y-112199007D01*
X103113615Y-112189305D01*
X103104835Y-112179169D01*
X103096541Y-112168615D01*
X103088752Y-112157662D01*
X103081486Y-112146327D01*
X103074759Y-112134628D01*
X103068590Y-112122583D01*
X103062995Y-112110208D01*
X103057993Y-112097521D01*
X103053601Y-112084541D01*
X103049836Y-112071284D01*
X103046717Y-112057768D01*
X103044260Y-112044011D01*
X103042483Y-112030030D01*
X103041405Y-112015842D01*
X103041041Y-112001466D01*
X103041405Y-111987090D01*
X103042483Y-111972903D01*
X103044260Y-111958921D01*
X103046717Y-111945164D01*
X103049836Y-111931648D01*
X103053601Y-111918391D01*
X103057993Y-111905411D01*
X103062995Y-111892724D01*
X103068590Y-111880350D01*
X103074759Y-111868304D01*
X103081486Y-111856605D01*
X103088752Y-111845270D01*
X103096541Y-111834317D01*
X103104835Y-111823764D01*
X103113615Y-111813627D01*
X103122865Y-111803925D01*
X103132568Y-111794675D01*
X103142704Y-111785894D01*
X103153258Y-111777601D01*
X103164211Y-111769812D01*
X103175546Y-111762545D01*
X103187245Y-111755818D01*
X103199290Y-111749649D01*
X103211665Y-111744054D01*
X103224352Y-111739052D01*
X103237332Y-111734660D01*
X103250589Y-111730896D01*
X103264105Y-111727776D01*
X103277862Y-111725319D01*
X103291843Y-111723543D01*
X103306031Y-111722464D01*
X103320407Y-111722100D01*
X103334783Y-111722464D01*
G37*
G36*
X103126939Y-112724521D02*
G01*
X103141127Y-112725600D01*
X103155108Y-112727377D01*
X103168865Y-112729833D01*
X103182381Y-112732953D01*
X103195638Y-112736717D01*
X103208619Y-112741110D01*
X103221305Y-112746112D01*
X103233680Y-112751706D01*
X103245725Y-112757876D01*
X103257424Y-112764602D01*
X103268759Y-112771869D01*
X103279712Y-112779658D01*
X103290266Y-112787951D01*
X103300402Y-112796732D01*
X103310105Y-112805982D01*
X103319355Y-112815684D01*
X103328135Y-112825821D01*
X103336429Y-112836374D01*
X103344218Y-112847327D01*
X103351484Y-112858662D01*
X103358211Y-112870361D01*
X103364380Y-112882407D01*
X103369975Y-112894782D01*
X103374977Y-112907468D01*
X103379369Y-112920449D01*
X103383134Y-112933706D01*
X103386253Y-112947222D01*
X103388710Y-112960979D01*
X103390486Y-112974960D01*
X103391565Y-112989147D01*
X103391929Y-113003524D01*
X103391565Y-113017900D01*
X103390486Y-113032087D01*
X103388710Y-113046068D01*
X103386253Y-113059825D01*
X103383134Y-113073341D01*
X103379369Y-113086598D01*
X103374977Y-113099579D01*
X103369975Y-113112265D01*
X103364380Y-113124640D01*
X103358211Y-113136686D01*
X103351484Y-113148385D01*
X103344218Y-113159719D01*
X103336429Y-113170672D01*
X103328135Y-113181226D01*
X103319355Y-113191363D01*
X103310105Y-113201065D01*
X103300402Y-113210315D01*
X103290266Y-113219096D01*
X103279712Y-113227389D01*
X103268759Y-113235178D01*
X103257424Y-113242444D01*
X103245725Y-113249171D01*
X103233680Y-113255341D01*
X103221305Y-113260935D01*
X103208619Y-113265937D01*
X103195638Y-113270329D01*
X103182381Y-113274094D01*
X103168865Y-113277213D01*
X103155108Y-113279670D01*
X103141127Y-113281447D01*
X103126939Y-113282526D01*
X103112563Y-113282889D01*
X103098187Y-113282526D01*
X103084000Y-113281447D01*
X103070019Y-113279670D01*
X103056261Y-113277213D01*
X103042745Y-113274094D01*
X103029488Y-113270329D01*
X103016508Y-113265937D01*
X103003821Y-113260935D01*
X102991447Y-113255341D01*
X102979401Y-113249171D01*
X102967702Y-113242444D01*
X102956367Y-113235178D01*
X102945414Y-113227389D01*
X102934861Y-113219096D01*
X102924724Y-113210315D01*
X102915022Y-113201065D01*
X102905772Y-113191363D01*
X102896991Y-113181226D01*
X102888698Y-113170672D01*
X102880909Y-113159719D01*
X102873642Y-113148385D01*
X102866915Y-113136686D01*
X102860746Y-113124640D01*
X102855151Y-113112265D01*
X102850149Y-113099579D01*
X102845757Y-113086598D01*
X102841993Y-113073341D01*
X102838873Y-113059825D01*
X102836416Y-113046068D01*
X102834640Y-113032087D01*
X102833561Y-113017900D01*
X102833197Y-113003524D01*
X102833561Y-112989147D01*
X102834640Y-112974960D01*
X102836416Y-112960979D01*
X102838873Y-112947222D01*
X102841993Y-112933706D01*
X102845757Y-112920449D01*
X102850149Y-112907468D01*
X102855151Y-112894782D01*
X102860746Y-112882407D01*
X102866915Y-112870361D01*
X102873642Y-112858662D01*
X102880909Y-112847327D01*
X102888698Y-112836374D01*
X102896991Y-112825821D01*
X102905772Y-112815684D01*
X102915022Y-112805982D01*
X102924724Y-112796732D01*
X102934861Y-112787951D01*
X102945414Y-112779658D01*
X102956367Y-112771869D01*
X102967702Y-112764602D01*
X102979401Y-112757876D01*
X102991447Y-112751706D01*
X103003821Y-112746112D01*
X103016508Y-112741110D01*
X103029488Y-112736717D01*
X103042745Y-112732953D01*
X103056261Y-112729833D01*
X103070019Y-112727377D01*
X103084000Y-112725600D01*
X103098187Y-112724521D01*
X103112563Y-112724158D01*
X103126939Y-112724521D01*
G37*
G36*
X104021391Y-111426749D02*
G01*
X104035578Y-111427828D01*
X104049559Y-111429605D01*
X104063317Y-111432062D01*
X104076832Y-111435181D01*
X104090089Y-111438946D01*
X104103070Y-111443338D01*
X104115756Y-111448340D01*
X104128131Y-111453934D01*
X104140177Y-111460104D01*
X104151876Y-111466831D01*
X104163211Y-111474097D01*
X104174164Y-111481886D01*
X104184717Y-111490179D01*
X104194854Y-111498960D01*
X104204556Y-111508210D01*
X104213806Y-111517912D01*
X104222587Y-111528049D01*
X104230880Y-111538603D01*
X104238669Y-111549556D01*
X104245936Y-111560890D01*
X104252662Y-111572589D01*
X104258832Y-111584635D01*
X104264426Y-111597010D01*
X104269429Y-111609696D01*
X104273821Y-111622677D01*
X104277585Y-111635934D01*
X104280705Y-111649450D01*
X104283162Y-111663207D01*
X104284938Y-111677188D01*
X104286017Y-111691375D01*
X104286380Y-111705752D01*
X104286017Y-111720128D01*
X104284938Y-111734315D01*
X104283162Y-111748296D01*
X104280705Y-111762053D01*
X104277585Y-111775569D01*
X104273821Y-111788826D01*
X104269429Y-111801807D01*
X104264426Y-111814493D01*
X104258832Y-111826868D01*
X104252662Y-111838914D01*
X104245936Y-111850613D01*
X104238669Y-111861947D01*
X104230880Y-111872900D01*
X104222587Y-111883454D01*
X104213806Y-111893591D01*
X104204556Y-111903293D01*
X104194854Y-111912543D01*
X104184717Y-111921324D01*
X104174164Y-111929617D01*
X104163211Y-111937406D01*
X104151876Y-111944672D01*
X104140177Y-111951399D01*
X104128131Y-111957569D01*
X104115756Y-111963163D01*
X104103070Y-111968165D01*
X104090089Y-111972557D01*
X104076832Y-111976322D01*
X104063317Y-111979441D01*
X104049559Y-111981898D01*
X104035578Y-111983675D01*
X104021391Y-111984754D01*
X104007015Y-111985117D01*
X103992638Y-111984754D01*
X103978451Y-111983675D01*
X103964470Y-111981898D01*
X103950713Y-111979441D01*
X103937197Y-111976322D01*
X103923940Y-111972557D01*
X103910959Y-111968165D01*
X103898273Y-111963163D01*
X103885898Y-111957569D01*
X103873852Y-111951399D01*
X103862153Y-111944672D01*
X103850819Y-111937406D01*
X103839866Y-111929617D01*
X103829312Y-111921324D01*
X103819176Y-111912543D01*
X103809473Y-111903293D01*
X103800223Y-111893591D01*
X103791443Y-111883454D01*
X103783149Y-111872900D01*
X103775360Y-111861947D01*
X103768094Y-111850613D01*
X103761367Y-111838914D01*
X103755198Y-111826868D01*
X103749603Y-111814493D01*
X103744601Y-111801807D01*
X103740209Y-111788826D01*
X103736444Y-111775569D01*
X103733325Y-111762053D01*
X103730868Y-111748296D01*
X103729091Y-111734315D01*
X103728013Y-111720128D01*
X103727649Y-111705752D01*
X103728013Y-111691375D01*
X103729091Y-111677188D01*
X103730868Y-111663207D01*
X103733325Y-111649450D01*
X103736444Y-111635934D01*
X103740209Y-111622677D01*
X103744601Y-111609696D01*
X103749603Y-111597010D01*
X103755198Y-111584635D01*
X103761367Y-111572589D01*
X103768094Y-111560890D01*
X103775360Y-111549556D01*
X103783149Y-111538603D01*
X103791443Y-111528049D01*
X103800223Y-111517912D01*
X103809473Y-111508210D01*
X103819176Y-111498960D01*
X103829312Y-111490179D01*
X103839866Y-111481886D01*
X103850819Y-111474097D01*
X103862153Y-111466831D01*
X103873852Y-111460104D01*
X103885898Y-111453934D01*
X103898273Y-111448340D01*
X103910959Y-111443338D01*
X103923940Y-111438946D01*
X103937197Y-111435181D01*
X103950713Y-111432062D01*
X103964470Y-111429605D01*
X103978451Y-111427828D01*
X103992638Y-111426749D01*
X104007015Y-111426386D01*
X104021391Y-111426749D01*
G37*
D11*
X104002417Y-109235875D02*
X104013000Y-109235875D01*
X104018291Y-109241167D01*
X104023583Y-109241167D01*
X104044750Y-109262334D01*
X104044750Y-109272917D01*
X104050041Y-109278209D01*
X104050041Y-109288792D01*
X104055333Y-109294084D01*
X104055333Y-109325834D01*
X104060625Y-109331125D01*
X104060625Y-109357584D01*
X104065917Y-109362875D01*
X104065917Y-109394625D01*
X104071208Y-109399917D01*
X104071208Y-109426375D01*
X104076500Y-109431667D01*
X104076500Y-109458125D01*
X104081792Y-109463417D01*
X104081792Y-109489875D01*
X104087083Y-109495167D01*
X104087083Y-109526917D01*
X104092375Y-109532209D01*
X104092375Y-109558667D01*
X104097666Y-109563959D01*
X104097666Y-109595709D01*
X104102958Y-109601000D01*
X104102958Y-109627459D01*
X104108250Y-109632750D01*
X104108250Y-109659209D01*
X104113541Y-109664500D01*
X104113541Y-109690959D01*
X104118833Y-109696250D01*
X104118833Y-109722709D01*
X104124125Y-109728000D01*
X104124125Y-109754459D01*
X104129416Y-109759750D01*
X104129416Y-109786209D01*
X104134708Y-109791500D01*
X104134708Y-109823250D01*
X104140000Y-109828542D01*
X104140000Y-109855000D01*
X104145292Y-109860292D01*
X104145292Y-109897334D01*
X104150583Y-109902625D01*
X104150583Y-109934375D01*
X104155875Y-109939667D01*
X104155875Y-109971417D01*
X104161167Y-109976709D01*
X104161167Y-110003167D01*
X104166458Y-110008459D01*
X104166458Y-110034917D01*
X104171750Y-110040209D01*
X104171750Y-110071959D01*
X104177041Y-110077250D01*
X104177041Y-110109000D01*
X104182333Y-110114292D01*
X104182333Y-110140750D01*
X104187625Y-110146042D01*
X104187625Y-110167209D01*
X104192916Y-110172500D01*
X104192916Y-110193667D01*
X104198208Y-110198959D01*
X104198208Y-110225417D01*
X104203500Y-110230709D01*
X104203500Y-110257167D01*
X104208791Y-110262459D01*
X104208791Y-110288917D01*
X104214083Y-110294209D01*
X104214083Y-110325959D01*
X104219375Y-110331250D01*
X104219375Y-110363000D01*
X104224667Y-110368292D01*
X104224667Y-110389459D01*
X104229958Y-110394750D01*
X104229958Y-110426500D01*
X104235250Y-110431792D01*
X104235250Y-110468834D01*
X104240542Y-110474125D01*
X104240542Y-110500584D01*
X104245833Y-110505875D01*
X104245833Y-110542917D01*
X104251125Y-110548209D01*
X104251125Y-110579959D01*
X104256416Y-110585250D01*
X104256416Y-110617000D01*
X104261708Y-110622292D01*
X104261708Y-110654042D01*
X104267000Y-110659334D01*
X104267000Y-110685792D01*
X104272291Y-110691084D01*
X104272291Y-110712250D01*
X104277583Y-110717542D01*
X104277583Y-110738709D01*
X104282875Y-110744000D01*
X104282875Y-110759875D01*
X104288166Y-110765167D01*
X104288166Y-110781042D01*
X104293458Y-110786334D01*
X104293458Y-110802209D01*
X104298750Y-110807500D01*
X104298750Y-110823375D01*
X104304042Y-110828667D01*
X104304042Y-110849834D01*
X104309333Y-110855125D01*
X104309333Y-110871000D01*
X104314625Y-110876292D01*
X104314625Y-110892167D01*
X104319917Y-110897459D01*
X104319917Y-110913334D01*
X104325208Y-110918625D01*
X104325208Y-110939792D01*
X104330500Y-110945084D01*
X104330500Y-110960959D01*
X104335791Y-110966250D01*
X104335791Y-110976834D01*
X104341083Y-110982125D01*
X104341083Y-110992709D01*
X104346375Y-110998000D01*
X104346375Y-111003292D01*
X104351666Y-111008584D01*
X104346375Y-111013875D01*
X104356958Y-111024459D01*
X104356958Y-111029750D01*
X104362250Y-111035042D01*
X104362250Y-111045625D01*
X104367541Y-111050917D01*
X104367541Y-111056209D01*
X104372833Y-111061500D01*
X104372833Y-111066792D01*
X104378125Y-111072084D01*
X104378125Y-111077375D01*
X104383417Y-111082667D01*
X104383417Y-111093250D01*
X104388708Y-111098542D01*
X104388708Y-111103834D01*
X104394000Y-111109125D01*
X104394000Y-111114417D01*
X104399292Y-111119709D01*
X104399292Y-111125000D01*
X104404583Y-111130292D01*
X104404583Y-111135584D01*
X104415166Y-111146167D01*
X104415166Y-111151459D01*
X104425750Y-111162042D01*
X104425750Y-111167333D01*
X104436333Y-111177917D01*
X104436333Y-111183209D01*
X104446916Y-111193792D01*
X104446916Y-111199084D01*
X104462792Y-111214959D01*
X104462792Y-111220250D01*
X104473375Y-111230834D01*
X104473375Y-111236125D01*
X104489250Y-111252000D01*
X104489250Y-111257292D01*
X104499833Y-111267875D01*
X104499833Y-111273167D01*
X104510416Y-111283750D01*
X104510416Y-111289042D01*
X104526291Y-111304917D01*
X104526291Y-111310209D01*
X104536875Y-111320792D01*
X104536875Y-111326083D01*
X104552750Y-111341959D01*
X104552750Y-111347250D01*
X104563333Y-111357834D01*
X104563333Y-111363125D01*
X104573916Y-111373709D01*
X104573916Y-111379000D01*
X104584500Y-111389584D01*
X104584500Y-111394875D01*
X104589791Y-111400167D01*
X104589791Y-111405458D01*
X104595083Y-111410750D01*
X104595083Y-111416042D01*
X104605666Y-111426625D01*
X104605666Y-111437209D01*
X104610958Y-111442500D01*
X104610958Y-111447792D01*
X104616250Y-111453084D01*
X104616250Y-111458375D01*
X104621542Y-111463667D01*
X104621542Y-111468958D01*
X104626833Y-111474250D01*
X104626833Y-111484834D01*
X104632125Y-111490125D01*
X104632125Y-111500709D01*
X104637417Y-111506000D01*
X104637417Y-111521875D01*
X104642708Y-111527167D01*
X104642708Y-111543042D01*
X104648000Y-111548333D01*
X104648000Y-111585375D01*
X104653291Y-111590667D01*
X104653291Y-111648875D01*
X104648000Y-111654167D01*
X104648000Y-111691208D01*
X104642708Y-111696500D01*
X104642708Y-111717667D01*
X104637417Y-111722959D01*
X104637417Y-111738834D01*
X104632125Y-111744125D01*
X104632125Y-111754709D01*
X104626833Y-111760000D01*
X104626833Y-111770583D01*
X104621542Y-111775875D01*
X104621542Y-111781167D01*
X104616250Y-111786458D01*
X104616250Y-111797042D01*
X104610958Y-111802334D01*
X104610958Y-111807625D01*
X104605666Y-111812917D01*
X104605666Y-111818209D01*
X104600375Y-111823500D01*
X104600375Y-111828792D01*
X104595083Y-111834084D01*
X104595083Y-111839375D01*
X104589791Y-111844667D01*
X104589791Y-111849958D01*
X104579208Y-111860542D01*
X104579208Y-111865833D01*
X104568625Y-111876417D01*
X104568625Y-111881709D01*
X104558042Y-111892292D01*
X104558042Y-111897584D01*
X104542167Y-111913459D01*
X104542167Y-111918750D01*
X104441625Y-112019292D01*
X104436333Y-112019292D01*
X104415166Y-112040459D01*
X104409875Y-112040459D01*
X104388708Y-112061625D01*
X104383417Y-112061625D01*
X104367541Y-112077500D01*
X104362250Y-112077500D01*
X104346375Y-112093375D01*
X104341083Y-112093375D01*
X104330500Y-112103958D01*
X104325208Y-112103958D01*
X104293458Y-112135709D01*
X104288166Y-112135709D01*
X104272291Y-112151584D01*
X104267000Y-112151584D01*
X104177041Y-112241542D01*
X104177041Y-112246833D01*
X104150583Y-112273292D01*
X104150583Y-112278584D01*
X104124125Y-112305042D01*
X104124125Y-112310334D01*
X104102958Y-112331500D01*
X104102958Y-112336792D01*
X104087083Y-112352667D01*
X104087083Y-112357959D01*
X104071208Y-112373834D01*
X104071208Y-112379125D01*
X104055333Y-112395000D01*
X104055333Y-112400292D01*
X104044750Y-112410875D01*
X104044750Y-112416167D01*
X104034166Y-112426750D01*
X104034166Y-112432042D01*
X104023583Y-112442625D01*
X104023583Y-112447917D01*
X104018291Y-112453209D01*
X104018291Y-112458500D01*
X104007708Y-112469084D01*
X104007708Y-112474375D01*
X104002417Y-112479667D01*
X104002417Y-112484958D01*
X103997125Y-112490250D01*
X103997125Y-112495542D01*
X103986542Y-112506125D01*
X103986542Y-112511417D01*
X103981250Y-112516709D01*
X103981250Y-112522000D01*
X103970666Y-112532584D01*
X103970666Y-112537875D01*
X103965375Y-112543167D01*
X103965375Y-112548459D01*
X103960083Y-112553750D01*
X103960083Y-112559042D01*
X103949500Y-112569625D01*
X103949500Y-112574917D01*
X103944208Y-112580208D01*
X103944208Y-112585500D01*
X103938916Y-112590792D01*
X103938916Y-112596083D01*
X103933625Y-112601375D01*
X103933625Y-112606667D01*
X103928333Y-112611959D01*
X103928333Y-112617250D01*
X103917750Y-112627834D01*
X103917750Y-112633125D01*
X103912458Y-112638417D01*
X103912458Y-112643708D01*
X103907167Y-112649000D01*
X103907167Y-112654292D01*
X103901875Y-112659583D01*
X103901875Y-112664875D01*
X103891291Y-112675458D01*
X103891291Y-112680750D01*
X103886000Y-112686042D01*
X103886000Y-112691334D01*
X103880708Y-112696625D01*
X103880708Y-112701917D01*
X103875416Y-112707209D01*
X103875416Y-112712500D01*
X103870125Y-112717792D01*
X103870125Y-112723083D01*
X103859541Y-112733667D01*
X103859541Y-112738958D01*
X103854250Y-112744250D01*
X103854250Y-112749542D01*
X103848958Y-112754833D01*
X103848958Y-112760125D01*
X103843667Y-112765417D01*
X103843667Y-112770709D01*
X103838375Y-112776000D01*
X103838375Y-112781292D01*
X103833083Y-112786584D01*
X103833083Y-112791875D01*
X103822500Y-112802458D01*
X103822500Y-112807750D01*
X103817208Y-112813042D01*
X103817208Y-112818333D01*
X103811917Y-112823625D01*
X103811917Y-112828917D01*
X103806625Y-112834208D01*
X103806625Y-112839500D01*
X103801333Y-112844792D01*
X103801333Y-112850084D01*
X103796041Y-112855375D01*
X103796041Y-112860667D01*
X103785458Y-112871250D01*
X103785458Y-112881833D01*
X103774875Y-112892417D01*
X103774875Y-112897708D01*
X103769583Y-112903000D01*
X103769583Y-112908292D01*
X103764292Y-112913583D01*
X103764292Y-112918875D01*
X103759000Y-112924167D01*
X103759000Y-112929459D01*
X103753708Y-112934750D01*
X103753708Y-112940042D01*
X103748417Y-112945334D01*
X103748417Y-112950625D01*
X103743125Y-112955917D01*
X103743125Y-112961208D01*
X103737833Y-112966500D01*
X103737833Y-112971792D01*
X103727250Y-112982375D01*
X103727250Y-112987667D01*
X103721958Y-112992958D01*
X103721958Y-112998250D01*
X103716666Y-113003542D01*
X103716666Y-113008834D01*
X103711375Y-113014125D01*
X103711375Y-113019417D01*
X103706083Y-113024709D01*
X103706083Y-113030000D01*
X103695500Y-113040583D01*
X103695500Y-113045875D01*
X103690208Y-113051167D01*
X103690208Y-113056458D01*
X103684917Y-113061750D01*
X103684917Y-113067042D01*
X103674333Y-113077625D01*
X103674333Y-113082917D01*
X103669042Y-113088209D01*
X103669042Y-113093500D01*
X103658458Y-113104084D01*
X103658458Y-113109375D01*
X103647875Y-113119958D01*
X103647875Y-113125250D01*
X103642583Y-113130542D01*
X103642583Y-113135833D01*
X103632000Y-113146417D01*
X103632000Y-113151708D01*
X103621416Y-113162292D01*
X103621416Y-113167584D01*
X103605542Y-113183459D01*
X103605542Y-113188750D01*
X103589667Y-113204625D01*
X103589667Y-113209917D01*
X103568500Y-113231083D01*
X103568500Y-113236375D01*
X103499708Y-113305167D01*
X103494417Y-113305167D01*
X103452083Y-113347500D01*
X103446792Y-113347500D01*
X103425625Y-113368667D01*
X103420333Y-113368667D01*
X103404458Y-113384542D01*
X103399166Y-113384542D01*
X103383291Y-113400417D01*
X103378000Y-113400417D01*
X103362125Y-113416292D01*
X103356833Y-113416292D01*
X103346250Y-113426875D01*
X103340958Y-113426875D01*
X103330375Y-113437458D01*
X103325083Y-113437458D01*
X103314500Y-113448042D01*
X103309208Y-113448042D01*
X103298625Y-113458625D01*
X103293333Y-113458625D01*
X103282750Y-113469208D01*
X103277458Y-113469208D01*
X103272167Y-113474500D01*
X103266875Y-113474500D01*
X103261583Y-113479792D01*
X103256292Y-113479792D01*
X103251000Y-113485084D01*
X103245708Y-113485084D01*
X103240416Y-113490375D01*
X103235125Y-113490375D01*
X103229833Y-113495667D01*
X103224541Y-113495667D01*
X103219250Y-113500959D01*
X103213958Y-113500959D01*
X103208667Y-113506250D01*
X103203375Y-113506250D01*
X103198083Y-113511542D01*
X103187500Y-113511542D01*
X103182208Y-113516833D01*
X103176917Y-113516833D01*
X103171625Y-113522125D01*
X103161041Y-113522125D01*
X103155750Y-113527417D01*
X103145166Y-113527417D01*
X103139875Y-113532708D01*
X103129292Y-113532708D01*
X103124000Y-113538000D01*
X103108125Y-113538000D01*
X103102833Y-113543292D01*
X103086958Y-113543292D01*
X103081666Y-113548583D01*
X103065791Y-113548583D01*
X103060500Y-113553875D01*
X103039333Y-113553875D01*
X103034042Y-113559167D01*
X103002291Y-113559167D01*
X102997000Y-113564459D01*
X102938792Y-113564459D01*
X102933500Y-113569750D01*
X102896458Y-113569750D01*
X102891167Y-113564459D01*
X102832958Y-113564459D01*
X102827666Y-113559167D01*
X102806500Y-113559167D01*
X102801208Y-113553875D01*
X102780042Y-113553875D01*
X102774750Y-113548583D01*
X102758875Y-113548583D01*
X102753583Y-113543292D01*
X102743000Y-113543292D01*
X102737708Y-113538000D01*
X102727125Y-113538000D01*
X102721833Y-113532708D01*
X102711250Y-113532708D01*
X102705958Y-113527417D01*
X102700666Y-113527417D01*
X102695375Y-113522125D01*
X102690083Y-113522125D01*
X102684792Y-113516833D01*
X102679500Y-113516833D01*
X102674208Y-113511542D01*
X102668917Y-113511542D01*
X102663625Y-113506250D01*
X102658333Y-113506250D01*
X102653042Y-113500959D01*
X102647750Y-113500959D01*
X102642458Y-113495667D01*
X102637167Y-113495667D01*
X102631875Y-113490375D01*
X102626583Y-113490375D01*
X102621291Y-113485084D01*
X102616000Y-113485084D01*
X102605417Y-113474500D01*
X102600125Y-113474500D01*
X102589542Y-113463917D01*
X102584250Y-113463917D01*
X102573667Y-113453333D01*
X102568375Y-113453333D01*
X102552500Y-113437458D01*
X102547208Y-113437458D01*
X102526042Y-113416292D01*
X102520750Y-113416292D01*
X102478417Y-113373958D01*
X102478417Y-113368667D01*
X102451958Y-113342209D01*
X102451958Y-113336917D01*
X102436083Y-113321042D01*
X102436083Y-113315750D01*
X102425500Y-113305167D01*
X102425500Y-113299875D01*
X102414917Y-113289292D01*
X102414917Y-113284000D01*
X102409625Y-113278708D01*
X102409625Y-113273417D01*
X102404333Y-113268125D01*
X102404333Y-113262834D01*
X102399042Y-113257542D01*
X102399042Y-113252250D01*
X102393750Y-113246959D01*
X102393750Y-113241667D01*
X102388458Y-113236375D01*
X102388458Y-113231083D01*
X102383167Y-113225792D01*
X102383167Y-113220500D01*
X102377875Y-113215208D01*
X102377875Y-113204625D01*
X102372583Y-113199333D01*
X102372583Y-113194042D01*
X102367292Y-113188750D01*
X102367292Y-113178167D01*
X102362000Y-113172875D01*
X102362000Y-113162292D01*
X102356708Y-113157000D01*
X102356708Y-113141125D01*
X102351417Y-113135833D01*
X102351417Y-113119958D01*
X102346125Y-113114667D01*
X102346125Y-113093500D01*
X102340833Y-113088209D01*
X102340833Y-113056458D01*
X102335542Y-113051167D01*
X102335542Y-112924167D01*
X102340833Y-112918875D01*
X102340833Y-112887125D01*
X102346125Y-112881833D01*
X102346125Y-112860667D01*
X102351417Y-112855375D01*
X102351417Y-112839500D01*
X102356708Y-112834208D01*
X102356708Y-112818333D01*
X102362000Y-112813042D01*
X102362000Y-112802458D01*
X102367292Y-112797167D01*
X102367292Y-112781292D01*
X102372583Y-112776000D01*
X102372583Y-112770709D01*
X102377875Y-112765417D01*
X102377875Y-112754833D01*
X102383167Y-112749542D01*
X102383167Y-112738958D01*
X102388458Y-112733667D01*
X102388458Y-112723083D01*
X102393750Y-112717792D01*
X102393750Y-112707209D01*
X102399042Y-112701917D01*
X102399042Y-112696625D01*
X102404333Y-112691334D01*
X102404333Y-112686042D01*
X102409625Y-112680750D01*
X102409625Y-112670167D01*
X102414917Y-112664875D01*
X102414917Y-112659583D01*
X102420208Y-112654292D01*
X102420208Y-112649000D01*
X102425500Y-112643708D01*
X102425500Y-112638417D01*
X102430792Y-112633125D01*
X102430792Y-112622542D01*
X102436083Y-112617250D01*
X102436083Y-112611959D01*
X102441375Y-112606667D01*
X102441375Y-112601375D01*
X102446667Y-112596083D01*
X102446667Y-112590792D01*
X102451958Y-112585500D01*
X102451958Y-112580208D01*
X102462541Y-112569625D01*
X102462541Y-112564333D01*
X102467833Y-112559042D01*
X102467833Y-112553750D01*
X102473125Y-112548459D01*
X102473125Y-112543167D01*
X102478417Y-112537875D01*
X102478417Y-112532584D01*
X102483708Y-112527292D01*
X102483708Y-112522000D01*
X102489000Y-112516709D01*
X102489000Y-112511417D01*
X102494292Y-112506125D01*
X102494292Y-112500833D01*
X102499583Y-112495542D01*
X102499583Y-112490250D01*
X102510167Y-112479667D01*
X102510167Y-112469084D01*
X102520750Y-112458500D01*
X102520750Y-112453209D01*
X102526042Y-112447917D01*
X102526042Y-112442625D01*
X102531333Y-112437334D01*
X102531333Y-112432042D01*
X102541916Y-112421458D01*
X102541916Y-112416167D01*
X102547208Y-112410875D01*
X102547208Y-112405583D01*
X102552500Y-112400292D01*
X102552500Y-112395000D01*
X102557792Y-112389709D01*
X102557792Y-112384417D01*
X102568375Y-112373834D01*
X102568375Y-112368542D01*
X102578958Y-112357959D01*
X102578958Y-112352667D01*
X102584250Y-112347375D01*
X102584250Y-112342083D01*
X102594833Y-112331500D01*
X102594833Y-112326208D01*
X102600125Y-112320917D01*
X102600125Y-112315625D01*
X102610708Y-112305042D01*
X102610708Y-112299750D01*
X102616000Y-112294459D01*
X102616000Y-112289167D01*
X102626583Y-112278584D01*
X102626583Y-112273292D01*
X102631875Y-112268000D01*
X102631875Y-112262708D01*
X102637167Y-112257417D01*
X102637167Y-112252125D01*
X102647750Y-112241542D01*
X102647750Y-112236250D01*
X102653042Y-112230959D01*
X102653042Y-112225667D01*
X102663625Y-112215084D01*
X102663625Y-112209792D01*
X102668917Y-112204500D01*
X102668917Y-112199209D01*
X102679500Y-112188625D01*
X102679500Y-112183333D01*
X102684792Y-112178042D01*
X102684792Y-112172750D01*
X102695375Y-112162167D01*
X102695375Y-112156875D01*
X102700666Y-112151584D01*
X102700666Y-112146292D01*
X102711250Y-112135709D01*
X102711250Y-112130417D01*
X102716542Y-112125125D01*
X102716542Y-112119834D01*
X102721833Y-112114542D01*
X102721833Y-112109250D01*
X102732417Y-112098667D01*
X102732417Y-112093375D01*
X102743000Y-112082792D01*
X102743000Y-112077500D01*
X102753583Y-112066917D01*
X102753583Y-112056334D01*
X102764166Y-112045750D01*
X102764166Y-112040459D01*
X102769458Y-112035167D01*
X102769458Y-112029875D01*
X102780042Y-112019292D01*
X102780042Y-112014000D01*
X102785333Y-112008708D01*
X102785333Y-112003417D01*
X102790625Y-111998125D01*
X102790625Y-111992834D01*
X102795917Y-111987542D01*
X102795917Y-111982250D01*
X102806500Y-111971667D01*
X102806500Y-111966375D01*
X102811792Y-111961084D01*
X102811792Y-111955792D01*
X102817083Y-111950500D01*
X102817083Y-111945208D01*
X102827666Y-111934625D01*
X102827666Y-111929333D01*
X102832958Y-111924042D01*
X102832958Y-111918750D01*
X102838250Y-111913459D01*
X102838250Y-111908167D01*
X102848833Y-111897584D01*
X102848833Y-111892292D01*
X102854125Y-111887000D01*
X102854125Y-111881709D01*
X102859417Y-111876417D01*
X102859417Y-111871125D01*
X102870000Y-111860542D01*
X102870000Y-111855250D01*
X102875292Y-111849958D01*
X102875292Y-111844667D01*
X102880583Y-111839375D01*
X102880583Y-111834084D01*
X102891167Y-111823500D01*
X102891167Y-111818209D01*
X102896458Y-111812917D01*
X102896458Y-111807625D01*
X102901750Y-111802334D01*
X102901750Y-111797042D01*
X102912333Y-111786458D01*
X102912333Y-111781167D01*
X102917625Y-111775875D01*
X102917625Y-111770583D01*
X102928208Y-111760000D01*
X102928208Y-111754709D01*
X102933500Y-111749417D01*
X102933500Y-111744125D01*
X102938792Y-111738834D01*
X102938792Y-111733542D01*
X102949375Y-111722959D01*
X102949375Y-111717667D01*
X102954667Y-111712375D01*
X102954667Y-111707083D01*
X102965250Y-111696500D01*
X102965250Y-111691208D01*
X102975833Y-111680625D01*
X102975833Y-111675334D01*
X102981125Y-111670042D01*
X102981125Y-111664750D01*
X102991708Y-111654167D01*
X102991708Y-111648875D01*
X102997000Y-111643584D01*
X102997000Y-111638292D01*
X103007583Y-111627708D01*
X103007583Y-111622417D01*
X103012875Y-111617125D01*
X103012875Y-111611833D01*
X103028750Y-111595959D01*
X103028750Y-111585375D01*
X103034042Y-111580084D01*
X103034042Y-111574792D01*
X103044625Y-111564209D01*
X103044625Y-111558917D01*
X103049917Y-111553625D01*
X103049917Y-111548333D01*
X103055208Y-111543042D01*
X103055208Y-111532458D01*
X103060500Y-111527167D01*
X103060500Y-111516584D01*
X103065791Y-111511292D01*
X103065791Y-111500709D01*
X103071083Y-111495417D01*
X103071083Y-111484834D01*
X103076375Y-111479542D01*
X103076375Y-111468958D01*
X103081666Y-111463667D01*
X103081666Y-111453084D01*
X103086958Y-111447792D01*
X103086958Y-111431917D01*
X103092250Y-111426625D01*
X103092250Y-111410750D01*
X103097542Y-111405458D01*
X103097542Y-111389584D01*
X103102833Y-111384292D01*
X103102833Y-111363125D01*
X103108125Y-111357834D01*
X103108125Y-111331375D01*
X103113417Y-111326083D01*
X103113417Y-111283750D01*
X103118708Y-111278459D01*
X103118708Y-111172625D01*
X103113417Y-111167333D01*
X103113417Y-111109125D01*
X103108125Y-111103834D01*
X103108125Y-111066792D01*
X103102833Y-111061500D01*
X103108125Y-111056209D01*
X103102833Y-111050917D01*
X103102833Y-111003292D01*
X103097542Y-110998000D01*
X103097542Y-110992709D01*
X103102833Y-110987417D01*
X103097542Y-110982125D01*
X103097542Y-110923917D01*
X103092250Y-110918625D01*
X103092250Y-110876292D01*
X103086958Y-110871000D01*
X103086958Y-110844542D01*
X103081666Y-110839250D01*
X103081666Y-110812792D01*
X103076375Y-110807500D01*
X103076375Y-110786334D01*
X103071083Y-110781042D01*
X103071083Y-110759875D01*
X103065791Y-110754584D01*
X103065791Y-110733417D01*
X103060500Y-110728125D01*
X103060500Y-110701667D01*
X103055208Y-110696375D01*
X103055208Y-110669917D01*
X103049917Y-110664625D01*
X103049917Y-110638167D01*
X103044625Y-110632875D01*
X103044625Y-110611709D01*
X103039333Y-110606417D01*
X103039333Y-110585250D01*
X103034042Y-110579959D01*
X103034042Y-110553500D01*
X103028750Y-110548209D01*
X103028750Y-110527042D01*
X103023458Y-110521750D01*
X103023458Y-110495292D01*
X103018167Y-110490000D01*
X103018167Y-110458250D01*
X103012875Y-110452959D01*
X103012875Y-110426500D01*
X103007583Y-110421209D01*
X103007583Y-110389459D01*
X103002291Y-110384167D01*
X103002291Y-110363000D01*
X102997000Y-110357709D01*
X102997000Y-110336542D01*
X102991708Y-110331250D01*
X102991708Y-110304792D01*
X102986416Y-110299500D01*
X102986416Y-110278334D01*
X102981125Y-110273042D01*
X102981125Y-110246584D01*
X102975833Y-110241292D01*
X102975833Y-110220125D01*
X102970542Y-110214834D01*
X102970542Y-110188375D01*
X102965250Y-110183084D01*
X102965250Y-110156625D01*
X102959958Y-110151334D01*
X102959958Y-110130167D01*
X102954667Y-110124875D01*
X102954667Y-110098417D01*
X102949375Y-110093125D01*
X102949375Y-110066667D01*
X102944083Y-110061375D01*
X102944083Y-110034917D01*
X102938792Y-110029625D01*
X102938792Y-110003167D01*
X102933500Y-109997875D01*
X102933500Y-109971417D01*
X102928208Y-109966125D01*
X102928208Y-109934375D01*
X102922916Y-109929084D01*
X102922916Y-109897334D01*
X102917625Y-109892042D01*
X102917625Y-109844417D01*
X102912333Y-109839125D01*
X102912333Y-109812667D01*
X102907041Y-109807375D01*
X102907041Y-109780917D01*
X102901750Y-109775625D01*
X102901750Y-109749167D01*
X102896458Y-109743875D01*
X102896458Y-109717417D01*
X102891167Y-109712125D01*
X102891167Y-109685667D01*
X102885875Y-109680375D01*
X102885875Y-109653917D01*
X102880583Y-109648625D01*
X102880583Y-109622167D01*
X102875292Y-109616875D01*
X102875292Y-109590417D01*
X102870000Y-109585125D01*
X102870000Y-109558667D01*
X102864708Y-109553375D01*
X102864708Y-109521625D01*
X102859417Y-109516334D01*
X102859417Y-109489875D01*
X102854125Y-109484584D01*
X102854125Y-109458125D01*
X102848833Y-109452834D01*
X102848833Y-109421084D01*
X102854125Y-109415792D01*
X102854125Y-109410500D01*
X102859417Y-109405209D01*
X102859417Y-109399917D01*
X102875292Y-109384042D01*
X102880583Y-109384042D01*
X102885875Y-109378750D01*
X102891167Y-109378750D01*
X102896458Y-109373459D01*
X102912333Y-109373459D01*
X102917625Y-109368167D01*
X102949375Y-109368167D01*
X102954667Y-109362875D01*
X102986416Y-109362875D01*
X102991708Y-109357584D01*
X103023458Y-109357584D01*
X103028750Y-109352292D01*
X103065791Y-109352292D01*
X103071083Y-109347000D01*
X103102833Y-109347000D01*
X103108125Y-109341709D01*
X103139875Y-109341709D01*
X103145166Y-109336417D01*
X103182208Y-109336417D01*
X103187500Y-109331125D01*
X103224541Y-109331125D01*
X103229833Y-109325834D01*
X103261583Y-109325834D01*
X103266875Y-109320542D01*
X103309208Y-109320542D01*
X103314500Y-109315250D01*
X103346250Y-109315250D01*
X103351542Y-109309959D01*
X103388583Y-109309959D01*
X103393875Y-109304667D01*
X103430917Y-109304667D01*
X103436208Y-109299375D01*
X103467958Y-109299375D01*
X103473250Y-109294084D01*
X103505000Y-109294084D01*
X103510292Y-109288792D01*
X103547333Y-109288792D01*
X103552625Y-109283500D01*
X103584375Y-109283500D01*
X103589667Y-109278209D01*
X103626708Y-109278209D01*
X103632000Y-109272917D01*
X103663750Y-109272917D01*
X103669042Y-109267625D01*
X103700791Y-109267625D01*
X103706083Y-109262334D01*
X103737833Y-109262334D01*
X103743125Y-109257042D01*
X103774875Y-109257042D01*
X103780166Y-109251750D01*
X103822500Y-109251750D01*
X103827792Y-109246459D01*
X103864833Y-109246459D01*
X103870125Y-109241167D01*
X103907167Y-109241167D01*
X103912458Y-109235875D01*
X103949500Y-109235875D01*
X103954791Y-109230584D01*
X103997125Y-109230584D01*
X104002417Y-109235875D01*
D12*
X101600000Y-109220000D02*
X101642333Y-109220000D01*
X101647625Y-109225292D01*
X101700542Y-109225292D01*
X101705833Y-109230584D01*
X101753458Y-109230584D01*
X101758750Y-109235875D01*
X101801083Y-109235875D01*
X101806375Y-109241167D01*
X101854000Y-109241167D01*
X101859292Y-109246459D01*
X101906917Y-109246459D01*
X101912208Y-109251750D01*
X101959833Y-109251750D01*
X101965125Y-109257042D01*
X102012750Y-109257042D01*
X102018042Y-109262334D01*
X102060375Y-109262334D01*
X102065667Y-109267625D01*
X102108000Y-109267625D01*
X102113292Y-109272917D01*
X102166208Y-109272917D01*
X102171500Y-109278209D01*
X102213833Y-109278209D01*
X102219125Y-109283500D01*
X102266750Y-109283500D01*
X102272042Y-109288792D01*
X102314375Y-109288792D01*
X102319667Y-109294084D01*
X102367292Y-109294084D01*
X102372583Y-109299375D01*
X102414917Y-109299375D01*
X102420208Y-109304667D01*
X102467833Y-109304667D01*
X102473125Y-109309959D01*
X102520750Y-109309959D01*
X102526042Y-109315250D01*
X102568375Y-109315250D01*
X102573667Y-109320542D01*
X102610708Y-109320542D01*
X102616000Y-109325834D01*
X102626583Y-109325834D01*
X102631875Y-109331125D01*
X102637167Y-109331125D01*
X102658333Y-109352292D01*
X102658333Y-109357584D01*
X102663625Y-109362875D01*
X102663625Y-109368167D01*
X102668917Y-109373459D01*
X102668917Y-109431667D01*
X102663625Y-109436959D01*
X102663625Y-109468709D01*
X102658333Y-109474000D01*
X102658333Y-109505750D01*
X102653042Y-109511042D01*
X102653042Y-109542792D01*
X102647750Y-109548084D01*
X102647750Y-109579834D01*
X102642458Y-109585125D01*
X102642458Y-109616875D01*
X102637167Y-109622167D01*
X102637167Y-109653917D01*
X102631875Y-109659209D01*
X102631875Y-109690959D01*
X102626583Y-109696250D01*
X102626583Y-109728000D01*
X102621291Y-109733292D01*
X102621291Y-109759750D01*
X102616000Y-109765042D01*
X102616000Y-109796792D01*
X102610708Y-109802084D01*
X102610708Y-109823250D01*
X102605417Y-109828542D01*
X102605417Y-109865584D01*
X102600125Y-109870875D01*
X102600125Y-109902625D01*
X102594833Y-109907917D01*
X102594833Y-109939667D01*
X102589542Y-109944959D01*
X102589542Y-109976709D01*
X102584250Y-109982000D01*
X102584250Y-110019042D01*
X102578958Y-110024334D01*
X102578958Y-110066667D01*
X102573667Y-110071959D01*
X102573667Y-110114292D01*
X102568375Y-110119584D01*
X102568375Y-110161917D01*
X102563083Y-110167209D01*
X102563083Y-110198959D01*
X102557792Y-110204250D01*
X102557792Y-110246584D01*
X102552500Y-110251875D01*
X102552500Y-110288917D01*
X102547208Y-110294209D01*
X102547208Y-110331250D01*
X102541916Y-110336542D01*
X102541916Y-110368292D01*
X102536625Y-110373584D01*
X102536625Y-110410625D01*
X102531333Y-110415917D01*
X102531333Y-110452959D01*
X102526042Y-110458250D01*
X102526042Y-110495292D01*
X102520750Y-110500584D01*
X102520750Y-110537625D01*
X102515458Y-110542917D01*
X102515458Y-110574667D01*
X102510167Y-110579959D01*
X102510167Y-110606417D01*
X102504875Y-110611709D01*
X102504875Y-110648750D01*
X102499583Y-110654042D01*
X102499583Y-110696375D01*
X102494292Y-110701667D01*
X102494292Y-110733417D01*
X102489000Y-110738709D01*
X102489000Y-110770459D01*
X102483708Y-110775750D01*
X102483708Y-110823375D01*
X102478417Y-110828667D01*
X102478417Y-110855125D01*
X102473125Y-110860417D01*
X102473125Y-110892167D01*
X102467833Y-110897459D01*
X102467833Y-110934500D01*
X102462541Y-110939792D01*
X102462541Y-110955667D01*
X102457250Y-110960959D01*
X102462541Y-110966250D01*
X102462541Y-110971542D01*
X102457250Y-110976834D01*
X102457250Y-111024459D01*
X102451958Y-111029750D01*
X102451958Y-111172625D01*
X102457250Y-111177917D01*
X102457250Y-111225542D01*
X102462541Y-111230834D01*
X102462541Y-111267875D01*
X102467833Y-111273167D01*
X102467833Y-111299625D01*
X102473125Y-111304917D01*
X102473125Y-111331375D01*
X102478417Y-111336667D01*
X102478417Y-111352542D01*
X102483708Y-111357834D01*
X102483708Y-111373709D01*
X102489000Y-111379000D01*
X102489000Y-111394875D01*
X102494292Y-111400167D01*
X102494292Y-111416042D01*
X102499583Y-111421334D01*
X102499583Y-111437209D01*
X102504875Y-111442500D01*
X102504875Y-111458375D01*
X102510167Y-111463667D01*
X102510167Y-111479542D01*
X102515458Y-111484834D01*
X102515458Y-111500709D01*
X102520750Y-111506000D01*
X102520750Y-111521875D01*
X102526042Y-111527167D01*
X102526042Y-111548333D01*
X102531333Y-111553625D01*
X102531333Y-111574792D01*
X102536625Y-111580084D01*
X102536625Y-111606542D01*
X102541916Y-111611833D01*
X102541916Y-111638292D01*
X102547208Y-111643584D01*
X102547208Y-111760000D01*
X102541916Y-111765292D01*
X102541916Y-111786458D01*
X102536625Y-111791750D01*
X102536625Y-111807625D01*
X102531333Y-111812917D01*
X102531333Y-111823500D01*
X102526042Y-111828792D01*
X102526042Y-111839375D01*
X102520750Y-111844667D01*
X102520750Y-111855250D01*
X102515458Y-111860542D01*
X102515458Y-111865833D01*
X102510167Y-111871125D01*
X102510167Y-111881709D01*
X102504875Y-111887000D01*
X102504875Y-111892292D01*
X102499583Y-111897584D01*
X102499583Y-111902875D01*
X102489000Y-111913459D01*
X102489000Y-111918750D01*
X102483708Y-111924042D01*
X102483708Y-111929333D01*
X102478417Y-111934625D01*
X102478417Y-111939917D01*
X102467833Y-111950500D01*
X102467833Y-111955792D01*
X102441375Y-111982250D01*
X102441375Y-111987542D01*
X102436083Y-111987542D01*
X102372583Y-112051042D01*
X102367292Y-112051042D01*
X102335542Y-112082792D01*
X102330250Y-112082792D01*
X102309083Y-112103958D01*
X102303792Y-112103958D01*
X102287917Y-112119834D01*
X102282625Y-112119834D01*
X102272042Y-112130417D01*
X102266750Y-112130417D01*
X102250875Y-112146292D01*
X102245583Y-112146292D01*
X102235000Y-112156875D01*
X102229708Y-112156875D01*
X102219125Y-112167458D01*
X102213833Y-112167458D01*
X102197958Y-112183333D01*
X102192667Y-112183333D01*
X102182083Y-112193917D01*
X102176792Y-112193917D01*
X102166208Y-112204500D01*
X102160917Y-112204500D01*
X102155625Y-112209792D01*
X102150333Y-112209792D01*
X102139750Y-112220375D01*
X102134458Y-112220375D01*
X102129167Y-112225667D01*
X102123875Y-112225667D01*
X102113292Y-112236250D01*
X102108000Y-112236250D01*
X102092125Y-112252125D01*
X102086833Y-112252125D01*
X102070958Y-112268000D01*
X102065667Y-112268000D01*
X102049792Y-112283875D01*
X102044500Y-112283875D01*
X102023333Y-112305042D01*
X102018042Y-112305042D01*
X101933375Y-112389709D01*
X101933375Y-112395000D01*
X101906917Y-112421458D01*
X101906917Y-112426750D01*
X101891042Y-112442625D01*
X101891042Y-112447917D01*
X101885750Y-112453209D01*
X101885750Y-112458500D01*
X101875167Y-112469084D01*
X101875167Y-112474375D01*
X101864583Y-112484958D01*
X101864583Y-112490250D01*
X101854000Y-112500833D01*
X101854000Y-112506125D01*
X101838125Y-112522000D01*
X101838125Y-112527292D01*
X101827542Y-112537875D01*
X101827542Y-112543167D01*
X101816958Y-112553750D01*
X101816958Y-112559042D01*
X101806375Y-112569625D01*
X101806375Y-112574917D01*
X101795792Y-112585500D01*
X101795792Y-112590792D01*
X101785208Y-112601375D01*
X101785208Y-112606667D01*
X101774625Y-112617250D01*
X101774625Y-112622542D01*
X101769333Y-112627834D01*
X101769333Y-112633125D01*
X101758750Y-112643708D01*
X101758750Y-112649000D01*
X101742875Y-112664875D01*
X101742875Y-112670167D01*
X101721708Y-112691334D01*
X101721708Y-112696625D01*
X101711125Y-112707209D01*
X101711125Y-112712500D01*
X101700542Y-112723083D01*
X101700542Y-112728375D01*
X101689958Y-112738958D01*
X101689958Y-112744250D01*
X101679375Y-112754833D01*
X101679375Y-112760125D01*
X101663500Y-112776000D01*
X101663500Y-112781292D01*
X101652917Y-112791875D01*
X101652917Y-112797167D01*
X101637042Y-112813042D01*
X101637042Y-112818333D01*
X101621167Y-112834208D01*
X101621167Y-112839500D01*
X101605292Y-112855375D01*
X101605292Y-112860667D01*
X101589417Y-112876542D01*
X101589417Y-112881833D01*
X101562958Y-112908292D01*
X101562958Y-112913583D01*
X101536500Y-112940042D01*
X101536500Y-112945334D01*
X101499458Y-112982375D01*
X101499458Y-112987667D01*
X101451833Y-113035292D01*
X101451833Y-113040583D01*
X101361875Y-113130542D01*
X101356583Y-113130542D01*
X101340708Y-113146417D01*
X101335417Y-113146417D01*
X101319542Y-113162292D01*
X101314250Y-113162292D01*
X101303667Y-113172875D01*
X101298375Y-113172875D01*
X101287792Y-113183459D01*
X101282500Y-113183459D01*
X101271917Y-113194042D01*
X101266625Y-113194042D01*
X101256042Y-113204625D01*
X101250750Y-113204625D01*
X101240167Y-113215208D01*
X101234875Y-113215208D01*
X101224292Y-113225792D01*
X101219000Y-113225792D01*
X101208417Y-113236375D01*
X101203125Y-113236375D01*
X101197833Y-113241667D01*
X101192542Y-113241667D01*
X101187250Y-113246959D01*
X101181958Y-113246959D01*
X101176667Y-113252250D01*
X101171375Y-113252250D01*
X101166083Y-113257542D01*
X101160792Y-113257542D01*
X101155500Y-113262834D01*
X101150208Y-113262834D01*
X101144917Y-113268125D01*
X101139625Y-113268125D01*
X101134333Y-113273417D01*
X101129042Y-113273417D01*
X101123750Y-113278708D01*
X101118458Y-113278708D01*
X101113167Y-113284000D01*
X101102583Y-113284000D01*
X101097292Y-113289292D01*
X101092000Y-113289292D01*
X101086708Y-113294583D01*
X101081417Y-113294583D01*
X101076125Y-113299875D01*
X101065542Y-113299875D01*
X101060250Y-113305167D01*
X101049667Y-113305167D01*
X101044375Y-113310458D01*
X101033792Y-113310458D01*
X101028500Y-113315750D01*
X101017917Y-113315750D01*
X101012625Y-113321042D01*
X100996750Y-113321042D01*
X100991458Y-113326334D01*
X100980875Y-113326334D01*
X100975583Y-113331625D01*
X100959708Y-113331625D01*
X100954417Y-113336917D01*
X100933250Y-113336917D01*
X100927958Y-113342209D01*
X100906792Y-113342209D01*
X100901500Y-113347500D01*
X100869750Y-113347500D01*
X100864458Y-113352792D01*
X100726875Y-113352792D01*
X100721583Y-113347500D01*
X100695125Y-113347500D01*
X100689833Y-113342209D01*
X100668667Y-113342209D01*
X100663375Y-113336917D01*
X100647500Y-113336917D01*
X100642208Y-113331625D01*
X100631625Y-113331625D01*
X100626333Y-113326334D01*
X100615750Y-113326334D01*
X100610458Y-113321042D01*
X100594583Y-113321042D01*
X100589292Y-113315750D01*
X100584000Y-113315750D01*
X100578708Y-113310458D01*
X100568125Y-113310458D01*
X100562833Y-113305167D01*
X100557542Y-113305167D01*
X100552250Y-113299875D01*
X100546958Y-113299875D01*
X100541667Y-113294583D01*
X100536375Y-113294583D01*
X100531083Y-113289292D01*
X100525792Y-113289292D01*
X100520500Y-113284000D01*
X100515208Y-113284000D01*
X100509917Y-113278708D01*
X100504625Y-113278708D01*
X100499333Y-113273417D01*
X100494042Y-113273417D01*
X100488750Y-113268125D01*
X100483458Y-113268125D01*
X100472875Y-113257542D01*
X100467583Y-113257542D01*
X100457000Y-113246959D01*
X100451708Y-113246959D01*
X100441125Y-113236375D01*
X100435833Y-113236375D01*
X100419958Y-113220500D01*
X100414667Y-113220500D01*
X100340583Y-113146417D01*
X100340583Y-113141125D01*
X100324708Y-113125250D01*
X100324708Y-113119958D01*
X100314125Y-113109375D01*
X100314125Y-113104084D01*
X100303542Y-113093500D01*
X100303542Y-113088209D01*
X100292958Y-113077625D01*
X100292958Y-113072333D01*
X100287667Y-113067042D01*
X100287667Y-113061750D01*
X100277083Y-113051167D01*
X100277083Y-113045875D01*
X100271792Y-113040583D01*
X100271792Y-113035292D01*
X100266500Y-113030000D01*
X100266500Y-113024709D01*
X100261208Y-113019417D01*
X100261208Y-113008834D01*
X100255917Y-113003542D01*
X100255917Y-112998250D01*
X100250625Y-112992958D01*
X100250625Y-112987667D01*
X100245333Y-112982375D01*
X100245333Y-112971792D01*
X100240042Y-112966500D01*
X100240042Y-112955917D01*
X100234750Y-112950625D01*
X100234750Y-112940042D01*
X100229458Y-112934750D01*
X100229458Y-112924167D01*
X100224167Y-112918875D01*
X100224167Y-112903000D01*
X100218875Y-112897708D01*
X100218875Y-112876542D01*
X100213583Y-112871250D01*
X100213583Y-112850084D01*
X100208292Y-112844792D01*
X100208292Y-112797167D01*
X100203000Y-112791875D01*
X100203000Y-112712500D01*
X100208292Y-112707209D01*
X100208292Y-112664875D01*
X100213583Y-112659583D01*
X100213583Y-112633125D01*
X100218875Y-112627834D01*
X100218875Y-112611959D01*
X100224167Y-112606667D01*
X100224167Y-112590792D01*
X100229458Y-112585500D01*
X100229458Y-112569625D01*
X100234750Y-112564333D01*
X100234750Y-112548459D01*
X100240042Y-112543167D01*
X100240042Y-112532584D01*
X100245333Y-112527292D01*
X100245333Y-112516709D01*
X100250625Y-112511417D01*
X100250625Y-112506125D01*
X100255917Y-112500833D01*
X100255917Y-112490250D01*
X100261208Y-112484958D01*
X100261208Y-112479667D01*
X100266500Y-112474375D01*
X100266500Y-112463792D01*
X100271792Y-112458500D01*
X100271792Y-112453209D01*
X100277083Y-112447917D01*
X100277083Y-112437334D01*
X100282375Y-112432042D01*
X100282375Y-112426750D01*
X100287667Y-112421458D01*
X100287667Y-112416167D01*
X100292958Y-112410875D01*
X100292958Y-112400292D01*
X100298250Y-112395000D01*
X100298250Y-112389709D01*
X100303542Y-112384417D01*
X100303542Y-112379125D01*
X100308833Y-112373834D01*
X100308833Y-112368542D01*
X100314125Y-112363250D01*
X100314125Y-112357959D01*
X100319417Y-112352667D01*
X100319417Y-112347375D01*
X100324708Y-112342083D01*
X100324708Y-112336792D01*
X100330000Y-112331500D01*
X100330000Y-112326208D01*
X100335292Y-112320917D01*
X100335292Y-112315625D01*
X100345875Y-112305042D01*
X100345875Y-112299750D01*
X100351167Y-112294459D01*
X100351167Y-112289167D01*
X100361750Y-112278584D01*
X100361750Y-112273292D01*
X100372333Y-112262708D01*
X100372333Y-112257417D01*
X100377625Y-112252125D01*
X100377625Y-112246833D01*
X100388208Y-112236250D01*
X100388208Y-112230959D01*
X100398792Y-112220375D01*
X100398792Y-112215084D01*
X100409375Y-112204500D01*
X100409375Y-112199209D01*
X100419958Y-112188625D01*
X100419958Y-112183333D01*
X100430542Y-112172750D01*
X100430542Y-112167458D01*
X100441125Y-112156875D01*
X100441125Y-112151584D01*
X100451708Y-112141000D01*
X100451708Y-112135709D01*
X100462292Y-112125125D01*
X100462292Y-112119834D01*
X100472875Y-112109250D01*
X100472875Y-112103958D01*
X100483458Y-112093375D01*
X100483458Y-112088083D01*
X100499333Y-112072209D01*
X100499333Y-112066917D01*
X100509917Y-112056334D01*
X100509917Y-112051042D01*
X100520500Y-112040459D01*
X100520500Y-112035167D01*
X100536375Y-112019292D01*
X100536375Y-112014000D01*
X100541667Y-112008708D01*
X100541667Y-112003417D01*
X100557542Y-111987542D01*
X100557542Y-111982250D01*
X100568125Y-111971667D01*
X100568125Y-111966375D01*
X100584000Y-111950500D01*
X100584000Y-111945208D01*
X100594583Y-111934625D01*
X100594583Y-111929333D01*
X100610458Y-111913459D01*
X100610458Y-111908167D01*
X100626333Y-111892292D01*
X100626333Y-111887000D01*
X100636917Y-111876417D01*
X100636917Y-111871125D01*
X100652792Y-111855250D01*
X100652792Y-111849958D01*
X100668667Y-111834084D01*
X100668667Y-111828792D01*
X100684542Y-111812917D01*
X100684542Y-111807625D01*
X100700417Y-111791750D01*
X100700417Y-111786458D01*
X100716292Y-111770583D01*
X100716292Y-111765292D01*
X100732167Y-111749417D01*
X100732167Y-111744125D01*
X100742750Y-111733542D01*
X100742750Y-111728250D01*
X100758625Y-111712375D01*
X100758625Y-111707083D01*
X100774500Y-111691208D01*
X100774500Y-111685917D01*
X100790375Y-111670042D01*
X100790375Y-111664750D01*
X100806250Y-111648875D01*
X100806250Y-111643584D01*
X100822125Y-111627708D01*
X100822125Y-111622417D01*
X100838000Y-111606542D01*
X100838000Y-111601250D01*
X100853875Y-111585375D01*
X100853875Y-111580084D01*
X100869750Y-111564209D01*
X100869750Y-111558917D01*
X100875042Y-111553625D01*
X100875042Y-111548333D01*
X100885625Y-111537750D01*
X100885625Y-111532458D01*
X100901500Y-111516584D01*
X100901500Y-111511292D01*
X100912083Y-111500709D01*
X100912083Y-111495417D01*
X100927958Y-111479542D01*
X100927958Y-111474250D01*
X100938542Y-111463667D01*
X100938542Y-111458375D01*
X100954417Y-111442500D01*
X100954417Y-111437209D01*
X100970292Y-111421334D01*
X100970292Y-111416042D01*
X100980875Y-111405458D01*
X100980875Y-111400167D01*
X100996750Y-111384292D01*
X100996750Y-111379000D01*
X101007333Y-111368417D01*
X101007333Y-111363125D01*
X101017917Y-111352542D01*
X101017917Y-111347250D01*
X101028500Y-111336667D01*
X101028500Y-111331375D01*
X101039083Y-111320792D01*
X101039083Y-111315500D01*
X101049667Y-111304917D01*
X101049667Y-111299625D01*
X101060250Y-111289042D01*
X101060250Y-111283750D01*
X101065542Y-111278459D01*
X101065542Y-111273167D01*
X101076125Y-111262584D01*
X101076125Y-111257292D01*
X101086708Y-111246708D01*
X101086708Y-111241417D01*
X101092000Y-111236125D01*
X101092000Y-111230834D01*
X101097292Y-111225542D01*
X101097292Y-111220250D01*
X101102583Y-111214959D01*
X101102583Y-111209667D01*
X101107875Y-111204375D01*
X101107875Y-111199084D01*
X101118458Y-111188500D01*
X101118458Y-111183209D01*
X101123750Y-111177917D01*
X101123750Y-111172625D01*
X101129042Y-111167333D01*
X101129042Y-111162042D01*
X101134333Y-111156750D01*
X101134333Y-111146167D01*
X101139625Y-111140875D01*
X101139625Y-111135584D01*
X101144917Y-111130292D01*
X101144917Y-111125000D01*
X101150208Y-111119709D01*
X101150208Y-111114417D01*
X101155500Y-111109125D01*
X101155500Y-111103834D01*
X101160792Y-111098542D01*
X101160792Y-111087959D01*
X101166083Y-111082667D01*
X101166083Y-111072084D01*
X101171375Y-111066792D01*
X101171375Y-111061500D01*
X101176667Y-111056209D01*
X101176667Y-111045625D01*
X101181958Y-111040334D01*
X101181958Y-111035042D01*
X101187250Y-111029750D01*
X101187250Y-111019167D01*
X101192542Y-111013875D01*
X101192542Y-111003292D01*
X101197833Y-110998000D01*
X101197833Y-110987417D01*
X101203125Y-110982125D01*
X101203125Y-110966250D01*
X101208417Y-110960959D01*
X101208417Y-110945084D01*
X101213708Y-110939792D01*
X101213708Y-110913334D01*
X101219000Y-110908042D01*
X101219000Y-110886875D01*
X101224292Y-110881584D01*
X101224292Y-110849834D01*
X101229583Y-110844542D01*
X101229583Y-110796917D01*
X101234875Y-110791625D01*
X101234875Y-110754584D01*
X101240167Y-110749292D01*
X101240167Y-110717542D01*
X101245458Y-110712250D01*
X101245458Y-110675209D01*
X101250750Y-110669917D01*
X101250750Y-110643459D01*
X101256042Y-110638167D01*
X101256042Y-110606417D01*
X101261333Y-110601125D01*
X101261333Y-110564084D01*
X101266625Y-110558792D01*
X101266625Y-110532334D01*
X101271917Y-110527042D01*
X101271917Y-110500584D01*
X101277208Y-110495292D01*
X101277208Y-110463542D01*
X101282500Y-110458250D01*
X101282500Y-110426500D01*
X101287792Y-110421209D01*
X101287792Y-110389459D01*
X101293083Y-110384167D01*
X101293083Y-110357709D01*
X101298375Y-110352417D01*
X101298375Y-110325959D01*
X101303667Y-110320667D01*
X101303667Y-110294209D01*
X101308958Y-110288917D01*
X101308958Y-110262459D01*
X101314250Y-110257167D01*
X101314250Y-110230709D01*
X101319542Y-110225417D01*
X101319542Y-110198959D01*
X101324833Y-110193667D01*
X101324833Y-110167209D01*
X101330125Y-110161917D01*
X101330125Y-110135459D01*
X101335417Y-110130167D01*
X101335417Y-110103709D01*
X101340708Y-110098417D01*
X101340708Y-110077250D01*
X101346000Y-110071959D01*
X101346000Y-110045500D01*
X101351292Y-110040209D01*
X101351292Y-110013750D01*
X101356583Y-110008459D01*
X101356583Y-109987292D01*
X101361875Y-109982000D01*
X101361875Y-109950250D01*
X101367167Y-109944959D01*
X101367167Y-109918500D01*
X101372458Y-109913209D01*
X101372458Y-109892042D01*
X101377750Y-109886750D01*
X101377750Y-109860292D01*
X101383042Y-109855000D01*
X101383042Y-109828542D01*
X101388333Y-109823250D01*
X101388333Y-109791500D01*
X101393625Y-109786209D01*
X101393625Y-109765042D01*
X101398917Y-109759750D01*
X101398917Y-109733292D01*
X101404208Y-109728000D01*
X101404208Y-109701542D01*
X101409500Y-109696250D01*
X101409500Y-109664500D01*
X101414792Y-109659209D01*
X101414792Y-109638042D01*
X101420083Y-109632750D01*
X101420083Y-109606292D01*
X101425375Y-109601000D01*
X101425375Y-109574542D01*
X101430667Y-109569250D01*
X101430667Y-109542792D01*
X101435958Y-109537500D01*
X101435958Y-109511042D01*
X101441250Y-109505750D01*
X101441250Y-109479292D01*
X101446542Y-109474000D01*
X101446542Y-109447542D01*
X101451833Y-109442250D01*
X101451833Y-109410500D01*
X101457125Y-109405209D01*
X101457125Y-109378750D01*
X101462417Y-109373459D01*
X101462417Y-109347000D01*
X101467708Y-109341709D01*
X101467708Y-109309959D01*
X101473000Y-109304667D01*
X101473000Y-109278209D01*
X101478292Y-109272917D01*
X101478292Y-109262334D01*
X101483583Y-109257042D01*
X101483583Y-109251750D01*
X101488875Y-109246459D01*
X101488875Y-109241167D01*
X101504750Y-109225292D01*
X101510042Y-109225292D01*
X101515333Y-109220000D01*
X101520625Y-109220000D01*
X101525917Y-109214709D01*
X101594708Y-109214709D01*
X101600000Y-109220000D01*
G36*
X101600000Y-109220000D02*
G01*
X101642333Y-109220000D01*
X101647625Y-109225292D01*
X101700542Y-109225292D01*
X101705833Y-109230584D01*
X101753458Y-109230584D01*
X101758750Y-109235875D01*
X101801083Y-109235875D01*
X101806375Y-109241167D01*
X101854000Y-109241167D01*
X101859292Y-109246459D01*
X101906917Y-109246459D01*
X101912208Y-109251750D01*
X101959833Y-109251750D01*
X101965125Y-109257042D01*
X102012750Y-109257042D01*
X102018042Y-109262334D01*
X102060375Y-109262334D01*
X102065667Y-109267625D01*
X102108000Y-109267625D01*
X102113292Y-109272917D01*
X102166208Y-109272917D01*
X102171500Y-109278209D01*
X102213833Y-109278209D01*
X102219125Y-109283500D01*
X102266750Y-109283500D01*
X102272042Y-109288792D01*
X102314375Y-109288792D01*
X102319667Y-109294084D01*
X102367292Y-109294084D01*
X102372583Y-109299375D01*
X102414917Y-109299375D01*
X102420208Y-109304667D01*
X102467833Y-109304667D01*
X102473125Y-109309959D01*
X102520750Y-109309959D01*
X102526042Y-109315250D01*
X102568375Y-109315250D01*
X102573667Y-109320542D01*
X102610708Y-109320542D01*
X102616000Y-109325834D01*
X102626583Y-109325834D01*
X102631875Y-109331125D01*
X102637167Y-109331125D01*
X102658333Y-109352292D01*
X102658333Y-109357584D01*
X102663625Y-109362875D01*
X102663625Y-109368167D01*
X102668917Y-109373459D01*
X102668917Y-109431667D01*
X102663625Y-109436959D01*
X102663625Y-109468709D01*
X102658333Y-109474000D01*
X102658333Y-109505750D01*
X102653042Y-109511042D01*
X102653042Y-109542792D01*
X102647750Y-109548084D01*
X102647750Y-109579834D01*
X102642458Y-109585125D01*
X102642458Y-109616875D01*
X102637167Y-109622167D01*
X102637167Y-109653917D01*
X102631875Y-109659209D01*
X102631875Y-109690959D01*
X102626583Y-109696250D01*
X102626583Y-109728000D01*
X102621291Y-109733292D01*
X102621291Y-109759750D01*
X102616000Y-109765042D01*
X102616000Y-109796792D01*
X102610708Y-109802084D01*
X102610708Y-109823250D01*
X102605417Y-109828542D01*
X102605417Y-109865584D01*
X102600125Y-109870875D01*
X102600125Y-109902625D01*
X102594833Y-109907917D01*
X102594833Y-109939667D01*
X102589542Y-109944959D01*
X102589542Y-109976709D01*
X102584250Y-109982000D01*
X102584250Y-110019042D01*
X102578958Y-110024334D01*
X102578958Y-110066667D01*
X102573667Y-110071959D01*
X102573667Y-110114292D01*
X102568375Y-110119584D01*
X102568375Y-110161917D01*
X102563083Y-110167209D01*
X102563083Y-110198959D01*
X102557792Y-110204250D01*
X102557792Y-110246584D01*
X102552500Y-110251875D01*
X102552500Y-110288917D01*
X102547208Y-110294209D01*
X102547208Y-110331250D01*
X102541916Y-110336542D01*
X102541916Y-110368292D01*
X102536625Y-110373584D01*
X102536625Y-110410625D01*
X102531333Y-110415917D01*
X102531333Y-110452959D01*
X102526042Y-110458250D01*
X102526042Y-110495292D01*
X102520750Y-110500584D01*
X102520750Y-110537625D01*
X102515458Y-110542917D01*
X102515458Y-110574667D01*
X102510167Y-110579959D01*
X102510167Y-110606417D01*
X102504875Y-110611709D01*
X102504875Y-110648750D01*
X102499583Y-110654042D01*
X102499583Y-110696375D01*
X102494292Y-110701667D01*
X102494292Y-110733417D01*
X102489000Y-110738709D01*
X102489000Y-110770459D01*
X102483708Y-110775750D01*
X102483708Y-110823375D01*
X102478417Y-110828667D01*
X102478417Y-110855125D01*
X102473125Y-110860417D01*
X102473125Y-110892167D01*
X102467833Y-110897459D01*
X102467833Y-110934500D01*
X102462541Y-110939792D01*
X102462541Y-110955667D01*
X102457250Y-110960959D01*
X102462541Y-110966250D01*
X102462541Y-110971542D01*
X102457250Y-110976834D01*
X102457250Y-111024459D01*
X102451958Y-111029750D01*
X102451958Y-111172625D01*
X102457250Y-111177917D01*
X102457250Y-111225542D01*
X102462541Y-111230834D01*
X102462541Y-111267875D01*
X102467833Y-111273167D01*
X102467833Y-111299625D01*
X102473125Y-111304917D01*
X102473125Y-111331375D01*
X102478417Y-111336667D01*
X102478417Y-111352542D01*
X102483708Y-111357834D01*
X102483708Y-111373709D01*
X102489000Y-111379000D01*
X102489000Y-111394875D01*
X102494292Y-111400167D01*
X102494292Y-111416042D01*
X102499583Y-111421334D01*
X102499583Y-111437209D01*
X102504875Y-111442500D01*
X102504875Y-111458375D01*
X102510167Y-111463667D01*
X102510167Y-111479542D01*
X102515458Y-111484834D01*
X102515458Y-111500709D01*
X102520750Y-111506000D01*
X102520750Y-111521875D01*
X102526042Y-111527167D01*
X102526042Y-111548333D01*
X102531333Y-111553625D01*
X102531333Y-111574792D01*
X102536625Y-111580084D01*
X102536625Y-111606542D01*
X102541916Y-111611833D01*
X102541916Y-111638292D01*
X102547208Y-111643584D01*
X102547208Y-111760000D01*
X102541916Y-111765292D01*
X102541916Y-111786458D01*
X102536625Y-111791750D01*
X102536625Y-111807625D01*
X102531333Y-111812917D01*
X102531333Y-111823500D01*
X102526042Y-111828792D01*
X102526042Y-111839375D01*
X102520750Y-111844667D01*
X102520750Y-111855250D01*
X102515458Y-111860542D01*
X102515458Y-111865833D01*
X102510167Y-111871125D01*
X102510167Y-111881709D01*
X102504875Y-111887000D01*
X102504875Y-111892292D01*
X102499583Y-111897584D01*
X102499583Y-111902875D01*
X102489000Y-111913459D01*
X102489000Y-111918750D01*
X102483708Y-111924042D01*
X102483708Y-111929333D01*
X102478417Y-111934625D01*
X102478417Y-111939917D01*
X102467833Y-111950500D01*
X102467833Y-111955792D01*
X102441375Y-111982250D01*
X102441375Y-111987542D01*
X102436083Y-111987542D01*
X102372583Y-112051042D01*
X102367292Y-112051042D01*
X102335542Y-112082792D01*
X102330250Y-112082792D01*
X102309083Y-112103958D01*
X102303792Y-112103958D01*
X102287917Y-112119834D01*
X102282625Y-112119834D01*
X102272042Y-112130417D01*
X102266750Y-112130417D01*
X102250875Y-112146292D01*
X102245583Y-112146292D01*
X102235000Y-112156875D01*
X102229708Y-112156875D01*
X102219125Y-112167458D01*
X102213833Y-112167458D01*
X102197958Y-112183333D01*
X102192667Y-112183333D01*
X102182083Y-112193917D01*
X102176792Y-112193917D01*
X102166208Y-112204500D01*
X102160917Y-112204500D01*
X102155625Y-112209792D01*
X102150333Y-112209792D01*
X102139750Y-112220375D01*
X102134458Y-112220375D01*
X102129167Y-112225667D01*
X102123875Y-112225667D01*
X102113292Y-112236250D01*
X102108000Y-112236250D01*
X102092125Y-112252125D01*
X102086833Y-112252125D01*
X102070958Y-112268000D01*
X102065667Y-112268000D01*
X102049792Y-112283875D01*
X102044500Y-112283875D01*
X102023333Y-112305042D01*
X102018042Y-112305042D01*
X101933375Y-112389709D01*
X101933375Y-112395000D01*
X101906917Y-112421458D01*
X101906917Y-112426750D01*
X101891042Y-112442625D01*
X101891042Y-112447917D01*
X101885750Y-112453209D01*
X101885750Y-112458500D01*
X101875167Y-112469084D01*
X101875167Y-112474375D01*
X101864583Y-112484958D01*
X101864583Y-112490250D01*
X101854000Y-112500833D01*
X101854000Y-112506125D01*
X101838125Y-112522000D01*
X101838125Y-112527292D01*
X101827542Y-112537875D01*
X101827542Y-112543167D01*
X101816958Y-112553750D01*
X101816958Y-112559042D01*
X101806375Y-112569625D01*
X101806375Y-112574917D01*
X101795792Y-112585500D01*
X101795792Y-112590792D01*
X101785208Y-112601375D01*
X101785208Y-112606667D01*
X101774625Y-112617250D01*
X101774625Y-112622542D01*
X101769333Y-112627834D01*
X101769333Y-112633125D01*
X101758750Y-112643708D01*
X101758750Y-112649000D01*
X101742875Y-112664875D01*
X101742875Y-112670167D01*
X101721708Y-112691334D01*
X101721708Y-112696625D01*
X101711125Y-112707209D01*
X101711125Y-112712500D01*
X101700542Y-112723083D01*
X101700542Y-112728375D01*
X101689958Y-112738958D01*
X101689958Y-112744250D01*
X101679375Y-112754833D01*
X101679375Y-112760125D01*
X101663500Y-112776000D01*
X101663500Y-112781292D01*
X101652917Y-112791875D01*
X101652917Y-112797167D01*
X101637042Y-112813042D01*
X101637042Y-112818333D01*
X101621167Y-112834208D01*
X101621167Y-112839500D01*
X101605292Y-112855375D01*
X101605292Y-112860667D01*
X101589417Y-112876542D01*
X101589417Y-112881833D01*
X101562958Y-112908292D01*
X101562958Y-112913583D01*
X101536500Y-112940042D01*
X101536500Y-112945334D01*
X101499458Y-112982375D01*
X101499458Y-112987667D01*
X101451833Y-113035292D01*
X101451833Y-113040583D01*
X101361875Y-113130542D01*
X101356583Y-113130542D01*
X101340708Y-113146417D01*
X101335417Y-113146417D01*
X101319542Y-113162292D01*
X101314250Y-113162292D01*
X101303667Y-113172875D01*
X101298375Y-113172875D01*
X101287792Y-113183459D01*
X101282500Y-113183459D01*
X101271917Y-113194042D01*
X101266625Y-113194042D01*
X101256042Y-113204625D01*
X101250750Y-113204625D01*
X101240167Y-113215208D01*
X101234875Y-113215208D01*
X101224292Y-113225792D01*
X101219000Y-113225792D01*
X101208417Y-113236375D01*
X101203125Y-113236375D01*
X101197833Y-113241667D01*
X101192542Y-113241667D01*
X101187250Y-113246959D01*
X101181958Y-113246959D01*
X101176667Y-113252250D01*
X101171375Y-113252250D01*
X101166083Y-113257542D01*
X101160792Y-113257542D01*
X101155500Y-113262834D01*
X101150208Y-113262834D01*
X101144917Y-113268125D01*
X101139625Y-113268125D01*
X101134333Y-113273417D01*
X101129042Y-113273417D01*
X101123750Y-113278708D01*
X101118458Y-113278708D01*
X101113167Y-113284000D01*
X101102583Y-113284000D01*
X101097292Y-113289292D01*
X101092000Y-113289292D01*
X101086708Y-113294583D01*
X101081417Y-113294583D01*
X101076125Y-113299875D01*
X101065542Y-113299875D01*
X101060250Y-113305167D01*
X101049667Y-113305167D01*
X101044375Y-113310458D01*
X101033792Y-113310458D01*
X101028500Y-113315750D01*
X101017917Y-113315750D01*
X101012625Y-113321042D01*
X100996750Y-113321042D01*
X100991458Y-113326334D01*
X100980875Y-113326334D01*
X100975583Y-113331625D01*
X100959708Y-113331625D01*
X100954417Y-113336917D01*
X100933250Y-113336917D01*
X100927958Y-113342209D01*
X100906792Y-113342209D01*
X100901500Y-113347500D01*
X100869750Y-113347500D01*
X100864458Y-113352792D01*
X100726875Y-113352792D01*
X100721583Y-113347500D01*
X100695125Y-113347500D01*
X100689833Y-113342209D01*
X100668667Y-113342209D01*
X100663375Y-113336917D01*
X100647500Y-113336917D01*
X100642208Y-113331625D01*
X100631625Y-113331625D01*
X100626333Y-113326334D01*
X100615750Y-113326334D01*
X100610458Y-113321042D01*
X100594583Y-113321042D01*
X100589292Y-113315750D01*
X100584000Y-113315750D01*
X100578708Y-113310458D01*
X100568125Y-113310458D01*
X100562833Y-113305167D01*
X100557542Y-113305167D01*
X100552250Y-113299875D01*
X100546958Y-113299875D01*
X100541667Y-113294583D01*
X100536375Y-113294583D01*
X100531083Y-113289292D01*
X100525792Y-113289292D01*
X100520500Y-113284000D01*
X100515208Y-113284000D01*
X100509917Y-113278708D01*
X100504625Y-113278708D01*
X100499333Y-113273417D01*
X100494042Y-113273417D01*
X100488750Y-113268125D01*
X100483458Y-113268125D01*
X100472875Y-113257542D01*
X100467583Y-113257542D01*
X100457000Y-113246959D01*
X100451708Y-113246959D01*
X100441125Y-113236375D01*
X100435833Y-113236375D01*
X100419958Y-113220500D01*
X100414667Y-113220500D01*
X100340583Y-113146417D01*
X100340583Y-113141125D01*
X100324708Y-113125250D01*
X100324708Y-113119958D01*
X100314125Y-113109375D01*
X100314125Y-113104084D01*
X100303542Y-113093500D01*
X100303542Y-113088209D01*
X100292958Y-113077625D01*
X100292958Y-113072333D01*
X100287667Y-113067042D01*
X100287667Y-113061750D01*
X100277083Y-113051167D01*
X100277083Y-113045875D01*
X100271792Y-113040583D01*
X100271792Y-113035292D01*
X100266500Y-113030000D01*
X100266500Y-113024709D01*
X100261208Y-113019417D01*
X100261208Y-113008834D01*
X100255917Y-113003542D01*
X100255917Y-112998250D01*
X100250625Y-112992958D01*
X100250625Y-112987667D01*
X100245333Y-112982375D01*
X100245333Y-112971792D01*
X100240042Y-112966500D01*
X100240042Y-112955917D01*
X100234750Y-112950625D01*
X100234750Y-112940042D01*
X100229458Y-112934750D01*
X100229458Y-112924167D01*
X100224167Y-112918875D01*
X100224167Y-112903000D01*
X100218875Y-112897708D01*
X100218875Y-112876542D01*
X100213583Y-112871250D01*
X100213583Y-112850084D01*
X100208292Y-112844792D01*
X100208292Y-112797167D01*
X100203000Y-112791875D01*
X100203000Y-112712500D01*
X100208292Y-112707209D01*
X100208292Y-112664875D01*
X100213583Y-112659583D01*
X100213583Y-112633125D01*
X100218875Y-112627834D01*
X100218875Y-112611959D01*
X100224167Y-112606667D01*
X100224167Y-112590792D01*
X100229458Y-112585500D01*
X100229458Y-112569625D01*
X100234750Y-112564333D01*
X100234750Y-112548459D01*
X100240042Y-112543167D01*
X100240042Y-112532584D01*
X100245333Y-112527292D01*
X100245333Y-112516709D01*
X100250625Y-112511417D01*
X100250625Y-112506125D01*
X100255917Y-112500833D01*
X100255917Y-112490250D01*
X100261208Y-112484958D01*
X100261208Y-112479667D01*
X100266500Y-112474375D01*
X100266500Y-112463792D01*
X100271792Y-112458500D01*
X100271792Y-112453209D01*
X100277083Y-112447917D01*
X100277083Y-112437334D01*
X100282375Y-112432042D01*
X100282375Y-112426750D01*
X100287667Y-112421458D01*
X100287667Y-112416167D01*
X100292958Y-112410875D01*
X100292958Y-112400292D01*
X100298250Y-112395000D01*
X100298250Y-112389709D01*
X100303542Y-112384417D01*
X100303542Y-112379125D01*
X100308833Y-112373834D01*
X100308833Y-112368542D01*
X100314125Y-112363250D01*
X100314125Y-112357959D01*
X100319417Y-112352667D01*
X100319417Y-112347375D01*
X100324708Y-112342083D01*
X100324708Y-112336792D01*
X100330000Y-112331500D01*
X100330000Y-112326208D01*
X100335292Y-112320917D01*
X100335292Y-112315625D01*
X100345875Y-112305042D01*
X100345875Y-112299750D01*
X100351167Y-112294459D01*
X100351167Y-112289167D01*
X100361750Y-112278584D01*
X100361750Y-112273292D01*
X100372333Y-112262708D01*
X100372333Y-112257417D01*
X100377625Y-112252125D01*
X100377625Y-112246833D01*
X100388208Y-112236250D01*
X100388208Y-112230959D01*
X100398792Y-112220375D01*
X100398792Y-112215084D01*
X100409375Y-112204500D01*
X100409375Y-112199209D01*
X100419958Y-112188625D01*
X100419958Y-112183333D01*
X100430542Y-112172750D01*
X100430542Y-112167458D01*
X100441125Y-112156875D01*
X100441125Y-112151584D01*
X100451708Y-112141000D01*
X100451708Y-112135709D01*
X100462292Y-112125125D01*
X100462292Y-112119834D01*
X100472875Y-112109250D01*
X100472875Y-112103958D01*
X100483458Y-112093375D01*
X100483458Y-112088083D01*
X100499333Y-112072209D01*
X100499333Y-112066917D01*
X100509917Y-112056334D01*
X100509917Y-112051042D01*
X100520500Y-112040459D01*
X100520500Y-112035167D01*
X100536375Y-112019292D01*
X100536375Y-112014000D01*
X100541667Y-112008708D01*
X100541667Y-112003417D01*
X100557542Y-111987542D01*
X100557542Y-111982250D01*
X100568125Y-111971667D01*
X100568125Y-111966375D01*
X100584000Y-111950500D01*
X100584000Y-111945208D01*
X100594583Y-111934625D01*
X100594583Y-111929333D01*
X100610458Y-111913459D01*
X100610458Y-111908167D01*
X100626333Y-111892292D01*
X100626333Y-111887000D01*
X100636917Y-111876417D01*
X100636917Y-111871125D01*
X100652792Y-111855250D01*
X100652792Y-111849958D01*
X100668667Y-111834084D01*
X100668667Y-111828792D01*
X100684542Y-111812917D01*
X100684542Y-111807625D01*
X100700417Y-111791750D01*
X100700417Y-111786458D01*
X100716292Y-111770583D01*
X100716292Y-111765292D01*
X100732167Y-111749417D01*
X100732167Y-111744125D01*
X100742750Y-111733542D01*
X100742750Y-111728250D01*
X100758625Y-111712375D01*
X100758625Y-111707083D01*
X100774500Y-111691208D01*
X100774500Y-111685917D01*
X100790375Y-111670042D01*
X100790375Y-111664750D01*
X100806250Y-111648875D01*
X100806250Y-111643584D01*
X100822125Y-111627708D01*
X100822125Y-111622417D01*
X100838000Y-111606542D01*
X100838000Y-111601250D01*
X100853875Y-111585375D01*
X100853875Y-111580084D01*
X100869750Y-111564209D01*
X100869750Y-111558917D01*
X100875042Y-111553625D01*
X100875042Y-111548333D01*
X100885625Y-111537750D01*
X100885625Y-111532458D01*
X100901500Y-111516584D01*
X100901500Y-111511292D01*
X100912083Y-111500709D01*
X100912083Y-111495417D01*
X100927958Y-111479542D01*
X100927958Y-111474250D01*
X100938542Y-111463667D01*
X100938542Y-111458375D01*
X100954417Y-111442500D01*
X100954417Y-111437209D01*
X100970292Y-111421334D01*
X100970292Y-111416042D01*
X100980875Y-111405458D01*
X100980875Y-111400167D01*
X100996750Y-111384292D01*
X100996750Y-111379000D01*
X101007333Y-111368417D01*
X101007333Y-111363125D01*
X101017917Y-111352542D01*
X101017917Y-111347250D01*
X101028500Y-111336667D01*
X101028500Y-111331375D01*
X101039083Y-111320792D01*
X101039083Y-111315500D01*
X101049667Y-111304917D01*
X101049667Y-111299625D01*
X101060250Y-111289042D01*
X101060250Y-111283750D01*
X101065542Y-111278459D01*
X101065542Y-111273167D01*
X101076125Y-111262584D01*
X101076125Y-111257292D01*
X101086708Y-111246708D01*
X101086708Y-111241417D01*
X101092000Y-111236125D01*
X101092000Y-111230834D01*
X101097292Y-111225542D01*
X101097292Y-111220250D01*
X101102583Y-111214959D01*
X101102583Y-111209667D01*
X101107875Y-111204375D01*
X101107875Y-111199084D01*
X101118458Y-111188500D01*
X101118458Y-111183209D01*
X101123750Y-111177917D01*
X101123750Y-111172625D01*
X101129042Y-111167333D01*
X101129042Y-111162042D01*
X101134333Y-111156750D01*
X101134333Y-111146167D01*
X101139625Y-111140875D01*
X101139625Y-111135584D01*
X101144917Y-111130292D01*
X101144917Y-111125000D01*
X101150208Y-111119709D01*
X101150208Y-111114417D01*
X101155500Y-111109125D01*
X101155500Y-111103834D01*
X101160792Y-111098542D01*
X101160792Y-111087959D01*
X101166083Y-111082667D01*
X101166083Y-111072084D01*
X101171375Y-111066792D01*
X101171375Y-111061500D01*
X101176667Y-111056209D01*
X101176667Y-111045625D01*
X101181958Y-111040334D01*
X101181958Y-111035042D01*
X101187250Y-111029750D01*
X101187250Y-111019167D01*
X101192542Y-111013875D01*
X101192542Y-111003292D01*
X101197833Y-110998000D01*
X101197833Y-110987417D01*
X101203125Y-110982125D01*
X101203125Y-110966250D01*
X101208417Y-110960959D01*
X101208417Y-110945084D01*
X101213708Y-110939792D01*
X101213708Y-110913334D01*
X101219000Y-110908042D01*
X101219000Y-110886875D01*
X101224292Y-110881584D01*
X101224292Y-110849834D01*
X101229583Y-110844542D01*
X101229583Y-110796917D01*
X101234875Y-110791625D01*
X101234875Y-110754584D01*
X101240167Y-110749292D01*
X101240167Y-110717542D01*
X101245458Y-110712250D01*
X101245458Y-110675209D01*
X101250750Y-110669917D01*
X101250750Y-110643459D01*
X101256042Y-110638167D01*
X101256042Y-110606417D01*
X101261333Y-110601125D01*
X101261333Y-110564084D01*
X101266625Y-110558792D01*
X101266625Y-110532334D01*
X101271917Y-110527042D01*
X101271917Y-110500584D01*
X101277208Y-110495292D01*
X101277208Y-110463542D01*
X101282500Y-110458250D01*
X101282500Y-110426500D01*
X101287792Y-110421209D01*
X101287792Y-110389459D01*
X101293083Y-110384167D01*
X101293083Y-110357709D01*
X101298375Y-110352417D01*
X101298375Y-110325959D01*
X101303667Y-110320667D01*
X101303667Y-110294209D01*
X101308958Y-110288917D01*
X101308958Y-110262459D01*
X101314250Y-110257167D01*
X101314250Y-110230709D01*
X101319542Y-110225417D01*
X101319542Y-110198959D01*
X101324833Y-110193667D01*
X101324833Y-110167209D01*
X101330125Y-110161917D01*
X101330125Y-110135459D01*
X101335417Y-110130167D01*
X101335417Y-110103709D01*
X101340708Y-110098417D01*
X101340708Y-110077250D01*
X101346000Y-110071959D01*
X101346000Y-110045500D01*
X101351292Y-110040209D01*
X101351292Y-110013750D01*
X101356583Y-110008459D01*
X101356583Y-109987292D01*
X101361875Y-109982000D01*
X101361875Y-109950250D01*
X101367167Y-109944959D01*
X101367167Y-109918500D01*
X101372458Y-109913209D01*
X101372458Y-109892042D01*
X101377750Y-109886750D01*
X101377750Y-109860292D01*
X101383042Y-109855000D01*
X101383042Y-109828542D01*
X101388333Y-109823250D01*
X101388333Y-109791500D01*
X101393625Y-109786209D01*
X101393625Y-109765042D01*
X101398917Y-109759750D01*
X101398917Y-109733292D01*
X101404208Y-109728000D01*
X101404208Y-109701542D01*
X101409500Y-109696250D01*
X101409500Y-109664500D01*
X101414792Y-109659209D01*
X101414792Y-109638042D01*
X101420083Y-109632750D01*
X101420083Y-109606292D01*
X101425375Y-109601000D01*
X101425375Y-109574542D01*
X101430667Y-109569250D01*
X101430667Y-109542792D01*
X101435958Y-109537500D01*
X101435958Y-109511042D01*
X101441250Y-109505750D01*
X101441250Y-109479292D01*
X101446542Y-109474000D01*
X101446542Y-109447542D01*
X101451833Y-109442250D01*
X101451833Y-109410500D01*
X101457125Y-109405209D01*
X101457125Y-109378750D01*
X101462417Y-109373459D01*
X101462417Y-109347000D01*
X101467708Y-109341709D01*
X101467708Y-109309959D01*
X101473000Y-109304667D01*
X101473000Y-109278209D01*
X101478292Y-109272917D01*
X101478292Y-109262334D01*
X101483583Y-109257042D01*
X101483583Y-109251750D01*
X101488875Y-109246459D01*
X101488875Y-109241167D01*
X101504750Y-109225292D01*
X101510042Y-109225292D01*
X101515333Y-109220000D01*
X101520625Y-109220000D01*
X101525917Y-109214709D01*
X101594708Y-109214709D01*
X101600000Y-109220000D01*
G37*
D10*
G36*
X103847281Y-110594546D02*
G01*
X103861469Y-110595625D01*
X103875450Y-110597401D01*
X103889207Y-110599858D01*
X103902723Y-110602977D01*
X103915980Y-110606742D01*
X103928960Y-110611134D01*
X103941647Y-110616136D01*
X103954022Y-110621731D01*
X103966067Y-110627900D01*
X103977766Y-110634627D01*
X103989101Y-110641894D01*
X104000054Y-110649682D01*
X104010608Y-110657976D01*
X104020744Y-110666756D01*
X104030447Y-110676007D01*
X104039697Y-110685709D01*
X104048477Y-110695845D01*
X104056771Y-110706399D01*
X104064560Y-110717352D01*
X104071826Y-110728687D01*
X104078553Y-110740386D01*
X104084722Y-110752431D01*
X104090317Y-110764806D01*
X104095319Y-110777493D01*
X104099711Y-110790473D01*
X104103476Y-110803730D01*
X104106595Y-110817246D01*
X104109052Y-110831003D01*
X104110829Y-110844984D01*
X104111907Y-110859172D01*
X104112271Y-110873548D01*
X104111907Y-110887924D01*
X104110829Y-110902111D01*
X104109052Y-110916093D01*
X104106595Y-110929850D01*
X104103476Y-110943366D01*
X104099711Y-110956623D01*
X104095319Y-110969603D01*
X104090317Y-110982290D01*
X104084722Y-110994664D01*
X104078553Y-111006710D01*
X104071826Y-111018409D01*
X104064560Y-111029744D01*
X104056771Y-111040697D01*
X104048477Y-111051250D01*
X104039697Y-111061387D01*
X104030447Y-111071089D01*
X104020744Y-111080339D01*
X104010608Y-111089120D01*
X104000054Y-111097413D01*
X103989101Y-111105202D01*
X103977766Y-111112469D01*
X103966067Y-111119196D01*
X103954022Y-111125365D01*
X103941647Y-111130960D01*
X103928960Y-111135962D01*
X103915980Y-111140354D01*
X103902723Y-111144118D01*
X103889207Y-111147238D01*
X103875450Y-111149695D01*
X103861469Y-111151471D01*
X103847281Y-111152550D01*
X103832905Y-111152914D01*
X103818529Y-111152550D01*
X103804342Y-111151471D01*
X103790360Y-111149695D01*
X103776603Y-111147238D01*
X103763087Y-111144118D01*
X103749830Y-111140354D01*
X103736850Y-111135962D01*
X103724163Y-111130960D01*
X103711789Y-111125365D01*
X103699743Y-111119196D01*
X103688044Y-111112469D01*
X103676709Y-111105202D01*
X103665756Y-111097413D01*
X103655203Y-111089120D01*
X103645066Y-111080339D01*
X103635364Y-111071089D01*
X103626114Y-111061387D01*
X103617333Y-111051250D01*
X103609040Y-111040697D01*
X103601251Y-111029744D01*
X103593984Y-111018409D01*
X103587257Y-111006710D01*
X103581088Y-110994664D01*
X103575493Y-110982290D01*
X103570491Y-110969603D01*
X103566099Y-110956623D01*
X103562335Y-110943366D01*
X103559215Y-110929850D01*
X103556758Y-110916093D01*
X103554982Y-110902111D01*
X103553903Y-110887924D01*
X103553540Y-110873548D01*
X103553903Y-110859172D01*
X103554982Y-110844984D01*
X103556758Y-110831003D01*
X103559215Y-110817246D01*
X103562335Y-110803730D01*
X103566099Y-110790473D01*
X103570491Y-110777493D01*
X103575493Y-110764806D01*
X103581088Y-110752431D01*
X103587257Y-110740386D01*
X103593984Y-110728687D01*
X103601251Y-110717352D01*
X103609040Y-110706399D01*
X103617333Y-110695845D01*
X103626114Y-110685709D01*
X103635364Y-110676007D01*
X103645066Y-110666756D01*
X103655203Y-110657976D01*
X103665756Y-110649682D01*
X103676709Y-110641894D01*
X103688044Y-110634627D01*
X103699743Y-110627900D01*
X103711789Y-110621731D01*
X103724163Y-110616136D01*
X103736850Y-110611134D01*
X103749830Y-110606742D01*
X103763087Y-110602977D01*
X103776603Y-110599858D01*
X103790360Y-110597401D01*
X103804342Y-110595625D01*
X103818529Y-110594546D01*
X103832905Y-110594182D01*
X103847281Y-110594546D01*
G37*
G36*
X103327286Y-110026447D02*
G01*
X103341474Y-110027526D01*
X103355455Y-110029302D01*
X103369212Y-110031759D01*
X103382728Y-110034878D01*
X103395985Y-110038643D01*
X103408965Y-110043035D01*
X103421652Y-110048037D01*
X103434027Y-110053632D01*
X103446072Y-110059801D01*
X103457771Y-110066528D01*
X103469106Y-110073794D01*
X103480059Y-110081583D01*
X103490613Y-110089877D01*
X103500749Y-110098657D01*
X103510452Y-110107908D01*
X103519702Y-110117610D01*
X103528482Y-110127746D01*
X103536776Y-110138300D01*
X103544565Y-110149253D01*
X103551831Y-110160588D01*
X103558558Y-110172287D01*
X103564727Y-110184332D01*
X103570322Y-110196707D01*
X103575324Y-110209394D01*
X103579716Y-110222374D01*
X103583481Y-110235631D01*
X103586600Y-110249147D01*
X103589057Y-110262904D01*
X103590833Y-110276885D01*
X103591912Y-110291073D01*
X103592276Y-110305449D01*
X103591912Y-110319825D01*
X103590833Y-110334012D01*
X103589057Y-110347993D01*
X103586600Y-110361751D01*
X103583481Y-110375267D01*
X103579716Y-110388524D01*
X103575324Y-110401504D01*
X103570322Y-110414191D01*
X103564727Y-110426565D01*
X103558558Y-110438611D01*
X103551831Y-110450310D01*
X103544565Y-110461645D01*
X103536776Y-110472598D01*
X103528482Y-110483151D01*
X103519702Y-110493288D01*
X103510452Y-110502990D01*
X103500749Y-110512240D01*
X103490613Y-110521021D01*
X103480059Y-110529314D01*
X103469106Y-110537103D01*
X103457771Y-110544370D01*
X103446072Y-110551097D01*
X103434027Y-110557266D01*
X103421652Y-110562861D01*
X103408965Y-110567863D01*
X103395985Y-110572255D01*
X103382728Y-110576019D01*
X103369212Y-110579139D01*
X103355455Y-110581596D01*
X103341474Y-110583372D01*
X103327286Y-110584451D01*
X103312910Y-110584815D01*
X103298534Y-110584451D01*
X103284347Y-110583372D01*
X103270366Y-110581596D01*
X103256608Y-110579139D01*
X103243092Y-110576019D01*
X103229835Y-110572255D01*
X103216855Y-110567863D01*
X103204168Y-110562861D01*
X103191794Y-110557266D01*
X103179748Y-110551097D01*
X103168049Y-110544370D01*
X103156714Y-110537103D01*
X103145761Y-110529314D01*
X103135208Y-110521021D01*
X103125071Y-110512240D01*
X103115369Y-110502990D01*
X103106119Y-110493288D01*
X103097338Y-110483151D01*
X103089045Y-110472598D01*
X103081256Y-110461645D01*
X103073989Y-110450310D01*
X103067262Y-110438611D01*
X103061093Y-110426565D01*
X103055498Y-110414191D01*
X103050496Y-110401504D01*
X103046104Y-110388524D01*
X103042340Y-110375267D01*
X103039220Y-110361751D01*
X103036763Y-110347993D01*
X103034987Y-110334012D01*
X103033908Y-110319825D01*
X103033544Y-110305449D01*
X103033908Y-110291073D01*
X103034987Y-110276885D01*
X103036763Y-110262904D01*
X103039220Y-110249147D01*
X103042340Y-110235631D01*
X103046104Y-110222374D01*
X103050496Y-110209394D01*
X103055498Y-110196707D01*
X103061093Y-110184332D01*
X103067262Y-110172287D01*
X103073989Y-110160588D01*
X103081256Y-110149253D01*
X103089045Y-110138300D01*
X103097338Y-110127746D01*
X103106119Y-110117610D01*
X103115369Y-110107908D01*
X103125071Y-110098657D01*
X103135208Y-110089877D01*
X103145761Y-110081583D01*
X103156714Y-110073794D01*
X103168049Y-110066528D01*
X103179748Y-110059801D01*
X103191794Y-110053632D01*
X103204168Y-110048037D01*
X103216855Y-110043035D01*
X103229835Y-110038643D01*
X103243092Y-110034878D01*
X103256608Y-110031759D01*
X103270366Y-110029302D01*
X103284347Y-110027526D01*
X103298534Y-110026447D01*
X103312910Y-110026083D01*
X103327286Y-110026447D01*
G37*
D13*
X138791658Y-110283935D02*
X138315467Y-110617268D01*
X138791658Y-110855363D02*
X137791658Y-110855363D01*
X137791658Y-110855363D02*
X137791658Y-110474411D01*
X137791658Y-110474411D02*
X137839277Y-110379173D01*
X137839277Y-110379173D02*
X137886896Y-110331554D01*
X137886896Y-110331554D02*
X137982134Y-110283935D01*
X137982134Y-110283935D02*
X138124991Y-110283935D01*
X138124991Y-110283935D02*
X138220229Y-110331554D01*
X138220229Y-110331554D02*
X138267848Y-110379173D01*
X138267848Y-110379173D02*
X138315467Y-110474411D01*
X138315467Y-110474411D02*
X138315467Y-110855363D01*
X138744039Y-109474411D02*
X138791658Y-109569649D01*
X138791658Y-109569649D02*
X138791658Y-109760125D01*
X138791658Y-109760125D02*
X138744039Y-109855363D01*
X138744039Y-109855363D02*
X138648800Y-109902982D01*
X138648800Y-109902982D02*
X138267848Y-109902982D01*
X138267848Y-109902982D02*
X138172610Y-109855363D01*
X138172610Y-109855363D02*
X138124991Y-109760125D01*
X138124991Y-109760125D02*
X138124991Y-109569649D01*
X138124991Y-109569649D02*
X138172610Y-109474411D01*
X138172610Y-109474411D02*
X138267848Y-109426792D01*
X138267848Y-109426792D02*
X138363086Y-109426792D01*
X138363086Y-109426792D02*
X138458324Y-109902982D01*
X138124991Y-109093458D02*
X138791658Y-108855363D01*
X138791658Y-108855363D02*
X138124991Y-108617268D01*
X138791658Y-106950601D02*
X138791658Y-107522029D01*
X138791658Y-107236315D02*
X137791658Y-107236315D01*
X137791658Y-107236315D02*
X137934515Y-107331553D01*
X137934515Y-107331553D02*
X138029753Y-107426791D01*
X138029753Y-107426791D02*
X138077372Y-107522029D01*
X138696419Y-106522029D02*
X138744039Y-106474410D01*
X138744039Y-106474410D02*
X138791658Y-106522029D01*
X138791658Y-106522029D02*
X138744039Y-106569648D01*
X138744039Y-106569648D02*
X138696419Y-106522029D01*
X138696419Y-106522029D02*
X138791658Y-106522029D01*
X137886896Y-106093458D02*
X137839277Y-106045839D01*
X137839277Y-106045839D02*
X137791658Y-105950601D01*
X137791658Y-105950601D02*
X137791658Y-105712506D01*
X137791658Y-105712506D02*
X137839277Y-105617268D01*
X137839277Y-105617268D02*
X137886896Y-105569649D01*
X137886896Y-105569649D02*
X137982134Y-105522030D01*
X137982134Y-105522030D02*
X138077372Y-105522030D01*
X138077372Y-105522030D02*
X138220229Y-105569649D01*
X138220229Y-105569649D02*
X138791658Y-106141077D01*
X138791658Y-106141077D02*
X138791658Y-105522030D01*
D14*
X136032419Y-113646591D02*
X137032419Y-112979925D01*
X136032419Y-112979925D02*
X137032419Y-113646591D01*
X136746704Y-112646591D02*
X136746704Y-112170401D01*
X137032419Y-112741829D02*
X136032419Y-112408496D01*
X136032419Y-112408496D02*
X137032419Y-112075163D01*
X137032419Y-111218020D02*
X137032419Y-111789448D01*
X137032419Y-111503734D02*
X136032419Y-111503734D01*
X136032419Y-111503734D02*
X136175276Y-111598972D01*
X136175276Y-111598972D02*
X136270514Y-111694210D01*
X136270514Y-111694210D02*
X136318133Y-111789448D01*
X136032419Y-110313258D02*
X136032419Y-110789448D01*
X136032419Y-110789448D02*
X136508609Y-110837067D01*
X136508609Y-110837067D02*
X136460990Y-110789448D01*
X136460990Y-110789448D02*
X136413371Y-110694210D01*
X136413371Y-110694210D02*
X136413371Y-110456115D01*
X136413371Y-110456115D02*
X136460990Y-110360877D01*
X136460990Y-110360877D02*
X136508609Y-110313258D01*
X136508609Y-110313258D02*
X136603847Y-110265639D01*
X136603847Y-110265639D02*
X136841942Y-110265639D01*
X136841942Y-110265639D02*
X136937180Y-110313258D01*
X136937180Y-110313258D02*
X136984800Y-110360877D01*
X136984800Y-110360877D02*
X137032419Y-110456115D01*
X137032419Y-110456115D02*
X137032419Y-110694210D01*
X137032419Y-110694210D02*
X136984800Y-110789448D01*
X136984800Y-110789448D02*
X136937180Y-110837067D01*
X136365752Y-109408496D02*
X137032419Y-109408496D01*
X135984800Y-109646591D02*
X136699085Y-109884686D01*
X136699085Y-109884686D02*
X136699085Y-109265639D01*
X137032419Y-108360877D02*
X137032419Y-108932305D01*
X137032419Y-108646591D02*
X136032419Y-108646591D01*
X136032419Y-108646591D02*
X136175276Y-108741829D01*
X136175276Y-108741829D02*
X136270514Y-108837067D01*
X136270514Y-108837067D02*
X136318133Y-108932305D01*
X136746704Y-107218019D02*
X136746704Y-106741829D01*
X137032419Y-107313257D02*
X136032419Y-106979924D01*
X136032419Y-106979924D02*
X137032419Y-106646591D01*
X136937180Y-105741829D02*
X136984800Y-105789448D01*
X136984800Y-105789448D02*
X137032419Y-105932305D01*
X137032419Y-105932305D02*
X137032419Y-106027543D01*
X137032419Y-106027543D02*
X136984800Y-106170400D01*
X136984800Y-106170400D02*
X136889561Y-106265638D01*
X136889561Y-106265638D02*
X136794323Y-106313257D01*
X136794323Y-106313257D02*
X136603847Y-106360876D01*
X136603847Y-106360876D02*
X136460990Y-106360876D01*
X136460990Y-106360876D02*
X136270514Y-106313257D01*
X136270514Y-106313257D02*
X136175276Y-106265638D01*
X136175276Y-106265638D02*
X136080038Y-106170400D01*
X136080038Y-106170400D02*
X136032419Y-106027543D01*
X136032419Y-106027543D02*
X136032419Y-105932305D01*
X136032419Y-105932305D02*
X136080038Y-105789448D01*
X136080038Y-105789448D02*
X136127657Y-105741829D01*
X136032419Y-105456114D02*
X136032419Y-104884686D01*
X137032419Y-105170400D02*
X136032419Y-105170400D01*
X137032419Y-104551352D02*
X136032419Y-104551352D01*
X136032419Y-104218019D02*
X137032419Y-103884686D01*
X137032419Y-103884686D02*
X136032419Y-103551353D01*
X136508609Y-103218019D02*
X136508609Y-102884686D01*
X137032419Y-102741829D02*
X137032419Y-103218019D01*
X137032419Y-103218019D02*
X136032419Y-103218019D01*
X136032419Y-103218019D02*
X136032419Y-102741829D01*
X99344813Y-114102475D02*
X99535289Y-114102475D01*
X99535289Y-114102475D02*
X99630527Y-114150094D01*
X99630527Y-114150094D02*
X99725765Y-114245332D01*
X99725765Y-114245332D02*
X99773384Y-114435808D01*
X99773384Y-114435808D02*
X99773384Y-114769141D01*
X99773384Y-114769141D02*
X99725765Y-114959617D01*
X99725765Y-114959617D02*
X99630527Y-115054856D01*
X99630527Y-115054856D02*
X99535289Y-115102475D01*
X99535289Y-115102475D02*
X99344813Y-115102475D01*
X99344813Y-115102475D02*
X99249575Y-115054856D01*
X99249575Y-115054856D02*
X99154337Y-114959617D01*
X99154337Y-114959617D02*
X99106718Y-114769141D01*
X99106718Y-114769141D02*
X99106718Y-114435808D01*
X99106718Y-114435808D02*
X99154337Y-114245332D01*
X99154337Y-114245332D02*
X99249575Y-114150094D01*
X99249575Y-114150094D02*
X99344813Y-114102475D01*
X100630527Y-115102475D02*
X100630527Y-114102475D01*
X100630527Y-115054856D02*
X100535289Y-115102475D01*
X100535289Y-115102475D02*
X100344813Y-115102475D01*
X100344813Y-115102475D02*
X100249575Y-115054856D01*
X100249575Y-115054856D02*
X100201956Y-115007236D01*
X100201956Y-115007236D02*
X100154337Y-114911998D01*
X100154337Y-114911998D02*
X100154337Y-114626284D01*
X100154337Y-114626284D02*
X100201956Y-114531046D01*
X100201956Y-114531046D02*
X100249575Y-114483427D01*
X100249575Y-114483427D02*
X100344813Y-114435808D01*
X100344813Y-114435808D02*
X100535289Y-114435808D01*
X100535289Y-114435808D02*
X100630527Y-114483427D01*
X101535289Y-115102475D02*
X101535289Y-114102475D01*
X101535289Y-115054856D02*
X101440051Y-115102475D01*
X101440051Y-115102475D02*
X101249575Y-115102475D01*
X101249575Y-115102475D02*
X101154337Y-115054856D01*
X101154337Y-115054856D02*
X101106718Y-115007236D01*
X101106718Y-115007236D02*
X101059099Y-114911998D01*
X101059099Y-114911998D02*
X101059099Y-114626284D01*
X101059099Y-114626284D02*
X101106718Y-114531046D01*
X101106718Y-114531046D02*
X101154337Y-114483427D01*
X101154337Y-114483427D02*
X101249575Y-114435808D01*
X101249575Y-114435808D02*
X101440051Y-114435808D01*
X101440051Y-114435808D02*
X101535289Y-114483427D01*
X101963861Y-115054856D02*
X102059099Y-115102475D01*
X102059099Y-115102475D02*
X102249575Y-115102475D01*
X102249575Y-115102475D02*
X102344813Y-115054856D01*
X102344813Y-115054856D02*
X102392432Y-114959617D01*
X102392432Y-114959617D02*
X102392432Y-114911998D01*
X102392432Y-114911998D02*
X102344813Y-114816760D01*
X102344813Y-114816760D02*
X102249575Y-114769141D01*
X102249575Y-114769141D02*
X102106718Y-114769141D01*
X102106718Y-114769141D02*
X102011480Y-114721522D01*
X102011480Y-114721522D02*
X101963861Y-114626284D01*
X101963861Y-114626284D02*
X101963861Y-114578665D01*
X101963861Y-114578665D02*
X102011480Y-114483427D01*
X102011480Y-114483427D02*
X102106718Y-114435808D01*
X102106718Y-114435808D02*
X102249575Y-114435808D01*
X102249575Y-114435808D02*
X102344813Y-114483427D01*
X102963861Y-115102475D02*
X102868623Y-115054856D01*
X102868623Y-115054856D02*
X102821004Y-115007236D01*
X102821004Y-115007236D02*
X102773385Y-114911998D01*
X102773385Y-114911998D02*
X102773385Y-114626284D01*
X102773385Y-114626284D02*
X102821004Y-114531046D01*
X102821004Y-114531046D02*
X102868623Y-114483427D01*
X102868623Y-114483427D02*
X102963861Y-114435808D01*
X102963861Y-114435808D02*
X103106718Y-114435808D01*
X103106718Y-114435808D02*
X103201956Y-114483427D01*
X103201956Y-114483427D02*
X103249575Y-114531046D01*
X103249575Y-114531046D02*
X103297194Y-114626284D01*
X103297194Y-114626284D02*
X103297194Y-114911998D01*
X103297194Y-114911998D02*
X103249575Y-115007236D01*
X103249575Y-115007236D02*
X103201956Y-115054856D01*
X103201956Y-115054856D02*
X103106718Y-115102475D01*
X103106718Y-115102475D02*
X102963861Y-115102475D01*
X104154337Y-115054856D02*
X104059099Y-115102475D01*
X104059099Y-115102475D02*
X103868623Y-115102475D01*
X103868623Y-115102475D02*
X103773385Y-115054856D01*
X103773385Y-115054856D02*
X103725766Y-115007236D01*
X103725766Y-115007236D02*
X103678147Y-114911998D01*
X103678147Y-114911998D02*
X103678147Y-114626284D01*
X103678147Y-114626284D02*
X103725766Y-114531046D01*
X103725766Y-114531046D02*
X103773385Y-114483427D01*
X103773385Y-114483427D02*
X103868623Y-114435808D01*
X103868623Y-114435808D02*
X104059099Y-114435808D01*
X104059099Y-114435808D02*
X104154337Y-114483427D01*
X104582909Y-115102475D02*
X104582909Y-114102475D01*
X104678147Y-114721522D02*
X104963861Y-115102475D01*
X104963861Y-114435808D02*
X104582909Y-114816760D01*
X105344814Y-115054856D02*
X105440052Y-115102475D01*
X105440052Y-115102475D02*
X105630528Y-115102475D01*
X105630528Y-115102475D02*
X105725766Y-115054856D01*
X105725766Y-115054856D02*
X105773385Y-114959617D01*
X105773385Y-114959617D02*
X105773385Y-114911998D01*
X105773385Y-114911998D02*
X105725766Y-114816760D01*
X105725766Y-114816760D02*
X105630528Y-114769141D01*
X105630528Y-114769141D02*
X105487671Y-114769141D01*
X105487671Y-114769141D02*
X105392433Y-114721522D01*
X105392433Y-114721522D02*
X105344814Y-114626284D01*
X105344814Y-114626284D02*
X105344814Y-114578665D01*
X105344814Y-114578665D02*
X105392433Y-114483427D01*
X105392433Y-114483427D02*
X105487671Y-114435808D01*
X105487671Y-114435808D02*
X105630528Y-114435808D01*
X105630528Y-114435808D02*
X105725766Y-114483427D01*
X100868623Y-116712419D02*
X100868623Y-115712419D01*
X100868623Y-116093371D02*
X100963861Y-116045752D01*
X100963861Y-116045752D02*
X101154337Y-116045752D01*
X101154337Y-116045752D02*
X101249575Y-116093371D01*
X101249575Y-116093371D02*
X101297194Y-116140990D01*
X101297194Y-116140990D02*
X101344813Y-116236228D01*
X101344813Y-116236228D02*
X101344813Y-116521942D01*
X101344813Y-116521942D02*
X101297194Y-116617180D01*
X101297194Y-116617180D02*
X101249575Y-116664800D01*
X101249575Y-116664800D02*
X101154337Y-116712419D01*
X101154337Y-116712419D02*
X100963861Y-116712419D01*
X100963861Y-116712419D02*
X100868623Y-116664800D01*
X102249575Y-115712419D02*
X101773385Y-115712419D01*
X101773385Y-115712419D02*
X101725766Y-116188609D01*
X101725766Y-116188609D02*
X101773385Y-116140990D01*
X101773385Y-116140990D02*
X101868623Y-116093371D01*
X101868623Y-116093371D02*
X102106718Y-116093371D01*
X102106718Y-116093371D02*
X102201956Y-116140990D01*
X102201956Y-116140990D02*
X102249575Y-116188609D01*
X102249575Y-116188609D02*
X102297194Y-116283847D01*
X102297194Y-116283847D02*
X102297194Y-116521942D01*
X102297194Y-116521942D02*
X102249575Y-116617180D01*
X102249575Y-116617180D02*
X102201956Y-116664800D01*
X102201956Y-116664800D02*
X102106718Y-116712419D01*
X102106718Y-116712419D02*
X101868623Y-116712419D01*
X101868623Y-116712419D02*
X101773385Y-116664800D01*
X101773385Y-116664800D02*
X101725766Y-116617180D01*
X102678147Y-116664800D02*
X102773385Y-116712419D01*
X102773385Y-116712419D02*
X102963861Y-116712419D01*
X102963861Y-116712419D02*
X103059099Y-116664800D01*
X103059099Y-116664800D02*
X103106718Y-116569561D01*
X103106718Y-116569561D02*
X103106718Y-116521942D01*
X103106718Y-116521942D02*
X103059099Y-116426704D01*
X103059099Y-116426704D02*
X102963861Y-116379085D01*
X102963861Y-116379085D02*
X102821004Y-116379085D01*
X102821004Y-116379085D02*
X102725766Y-116331466D01*
X102725766Y-116331466D02*
X102678147Y-116236228D01*
X102678147Y-116236228D02*
X102678147Y-116188609D01*
X102678147Y-116188609D02*
X102725766Y-116093371D01*
X102725766Y-116093371D02*
X102821004Y-116045752D01*
X102821004Y-116045752D02*
X102963861Y-116045752D01*
X102963861Y-116045752D02*
X103059099Y-116093371D01*
X103963861Y-116045752D02*
X103963861Y-116712419D01*
X103725766Y-115664800D02*
X103487671Y-116379085D01*
X103487671Y-116379085D02*
X104106718Y-116379085D01*
D13*
X125050933Y-84444819D02*
X124717600Y-83968628D01*
X124479505Y-84444819D02*
X124479505Y-83444819D01*
X124479505Y-83444819D02*
X124860457Y-83444819D01*
X124860457Y-83444819D02*
X124955695Y-83492438D01*
X124955695Y-83492438D02*
X125003314Y-83540057D01*
X125003314Y-83540057D02*
X125050933Y-83635295D01*
X125050933Y-83635295D02*
X125050933Y-83778152D01*
X125050933Y-83778152D02*
X125003314Y-83873390D01*
X125003314Y-83873390D02*
X124955695Y-83921009D01*
X124955695Y-83921009D02*
X124860457Y-83968628D01*
X124860457Y-83968628D02*
X124479505Y-83968628D01*
X126003314Y-84444819D02*
X125431886Y-84444819D01*
X125717600Y-84444819D02*
X125717600Y-83444819D01*
X125717600Y-83444819D02*
X125622362Y-83587676D01*
X125622362Y-83587676D02*
X125527124Y-83682914D01*
X125527124Y-83682914D02*
X125431886Y-83730533D01*
X124289028Y-86148152D02*
X124289028Y-86814819D01*
X124050933Y-85767200D02*
X123812838Y-86481485D01*
X123812838Y-86481485D02*
X124431885Y-86481485D01*
X124812838Y-86719580D02*
X124860457Y-86767200D01*
X124860457Y-86767200D02*
X124812838Y-86814819D01*
X124812838Y-86814819D02*
X124765219Y-86767200D01*
X124765219Y-86767200D02*
X124812838Y-86719580D01*
X124812838Y-86719580D02*
X124812838Y-86814819D01*
X125193790Y-85814819D02*
X125860456Y-85814819D01*
X125860456Y-85814819D02*
X125431885Y-86814819D01*
X126241409Y-86814819D02*
X126241409Y-85814819D01*
X126336647Y-86433866D02*
X126622361Y-86814819D01*
X126622361Y-86148152D02*
X126241409Y-86529104D01*
X125050933Y-99684819D02*
X124717600Y-99208628D01*
X124479505Y-99684819D02*
X124479505Y-98684819D01*
X124479505Y-98684819D02*
X124860457Y-98684819D01*
X124860457Y-98684819D02*
X124955695Y-98732438D01*
X124955695Y-98732438D02*
X125003314Y-98780057D01*
X125003314Y-98780057D02*
X125050933Y-98875295D01*
X125050933Y-98875295D02*
X125050933Y-99018152D01*
X125050933Y-99018152D02*
X125003314Y-99113390D01*
X125003314Y-99113390D02*
X124955695Y-99161009D01*
X124955695Y-99161009D02*
X124860457Y-99208628D01*
X124860457Y-99208628D02*
X124479505Y-99208628D01*
X125908076Y-99018152D02*
X125908076Y-99684819D01*
X125669981Y-98637200D02*
X125431886Y-99351485D01*
X125431886Y-99351485D02*
X126050933Y-99351485D01*
X124289028Y-101388152D02*
X124289028Y-102054819D01*
X124050933Y-101007200D02*
X123812838Y-101721485D01*
X123812838Y-101721485D02*
X124431885Y-101721485D01*
X124812838Y-101959580D02*
X124860457Y-102007200D01*
X124860457Y-102007200D02*
X124812838Y-102054819D01*
X124812838Y-102054819D02*
X124765219Y-102007200D01*
X124765219Y-102007200D02*
X124812838Y-101959580D01*
X124812838Y-101959580D02*
X124812838Y-102054819D01*
X125193790Y-101054819D02*
X125860456Y-101054819D01*
X125860456Y-101054819D02*
X125431885Y-102054819D01*
X126241409Y-102054819D02*
X126241409Y-101054819D01*
X126336647Y-101673866D02*
X126622361Y-102054819D01*
X126622361Y-101388152D02*
X126241409Y-101769104D01*
X106584761Y-86910057D02*
X106489523Y-86862438D01*
X106489523Y-86862438D02*
X106394285Y-86767200D01*
X106394285Y-86767200D02*
X106251428Y-86624342D01*
X106251428Y-86624342D02*
X106156190Y-86576723D01*
X106156190Y-86576723D02*
X106060952Y-86576723D01*
X106108571Y-86814819D02*
X106013333Y-86767200D01*
X106013333Y-86767200D02*
X105918095Y-86671961D01*
X105918095Y-86671961D02*
X105870476Y-86481485D01*
X105870476Y-86481485D02*
X105870476Y-86148152D01*
X105870476Y-86148152D02*
X105918095Y-85957676D01*
X105918095Y-85957676D02*
X106013333Y-85862438D01*
X106013333Y-85862438D02*
X106108571Y-85814819D01*
X106108571Y-85814819D02*
X106299047Y-85814819D01*
X106299047Y-85814819D02*
X106394285Y-85862438D01*
X106394285Y-85862438D02*
X106489523Y-85957676D01*
X106489523Y-85957676D02*
X106537142Y-86148152D01*
X106537142Y-86148152D02*
X106537142Y-86481485D01*
X106537142Y-86481485D02*
X106489523Y-86671961D01*
X106489523Y-86671961D02*
X106394285Y-86767200D01*
X106394285Y-86767200D02*
X106299047Y-86814819D01*
X106299047Y-86814819D02*
X106108571Y-86814819D01*
X106918095Y-85910057D02*
X106965714Y-85862438D01*
X106965714Y-85862438D02*
X107060952Y-85814819D01*
X107060952Y-85814819D02*
X107299047Y-85814819D01*
X107299047Y-85814819D02*
X107394285Y-85862438D01*
X107394285Y-85862438D02*
X107441904Y-85910057D01*
X107441904Y-85910057D02*
X107489523Y-86005295D01*
X107489523Y-86005295D02*
X107489523Y-86100533D01*
X107489523Y-86100533D02*
X107441904Y-86243390D01*
X107441904Y-86243390D02*
X106870476Y-86814819D01*
X106870476Y-86814819D02*
X107489523Y-86814819D01*
X103965714Y-88450057D02*
X104013333Y-88402438D01*
X104013333Y-88402438D02*
X104108571Y-88354819D01*
X104108571Y-88354819D02*
X104346666Y-88354819D01*
X104346666Y-88354819D02*
X104441904Y-88402438D01*
X104441904Y-88402438D02*
X104489523Y-88450057D01*
X104489523Y-88450057D02*
X104537142Y-88545295D01*
X104537142Y-88545295D02*
X104537142Y-88640533D01*
X104537142Y-88640533D02*
X104489523Y-88783390D01*
X104489523Y-88783390D02*
X103918095Y-89354819D01*
X103918095Y-89354819D02*
X104537142Y-89354819D01*
X104965714Y-89354819D02*
X104965714Y-88354819D01*
X104965714Y-88354819D02*
X105537142Y-89354819D01*
X105537142Y-89354819D02*
X105537142Y-88354819D01*
X105918095Y-88354819D02*
X106537142Y-88354819D01*
X106537142Y-88354819D02*
X106203809Y-88735771D01*
X106203809Y-88735771D02*
X106346666Y-88735771D01*
X106346666Y-88735771D02*
X106441904Y-88783390D01*
X106441904Y-88783390D02*
X106489523Y-88831009D01*
X106489523Y-88831009D02*
X106537142Y-88926247D01*
X106537142Y-88926247D02*
X106537142Y-89164342D01*
X106537142Y-89164342D02*
X106489523Y-89259580D01*
X106489523Y-89259580D02*
X106441904Y-89307200D01*
X106441904Y-89307200D02*
X106346666Y-89354819D01*
X106346666Y-89354819D02*
X106060952Y-89354819D01*
X106060952Y-89354819D02*
X105965714Y-89307200D01*
X105965714Y-89307200D02*
X105918095Y-89259580D01*
X107013333Y-89354819D02*
X107203809Y-89354819D01*
X107203809Y-89354819D02*
X107299047Y-89307200D01*
X107299047Y-89307200D02*
X107346666Y-89259580D01*
X107346666Y-89259580D02*
X107441904Y-89116723D01*
X107441904Y-89116723D02*
X107489523Y-88926247D01*
X107489523Y-88926247D02*
X107489523Y-88545295D01*
X107489523Y-88545295D02*
X107441904Y-88450057D01*
X107441904Y-88450057D02*
X107394285Y-88402438D01*
X107394285Y-88402438D02*
X107299047Y-88354819D01*
X107299047Y-88354819D02*
X107108571Y-88354819D01*
X107108571Y-88354819D02*
X107013333Y-88402438D01*
X107013333Y-88402438D02*
X106965714Y-88450057D01*
X106965714Y-88450057D02*
X106918095Y-88545295D01*
X106918095Y-88545295D02*
X106918095Y-88783390D01*
X106918095Y-88783390D02*
X106965714Y-88878628D01*
X106965714Y-88878628D02*
X107013333Y-88926247D01*
X107013333Y-88926247D02*
X107108571Y-88973866D01*
X107108571Y-88973866D02*
X107299047Y-88973866D01*
X107299047Y-88973866D02*
X107394285Y-88926247D01*
X107394285Y-88926247D02*
X107441904Y-88878628D01*
X107441904Y-88878628D02*
X107489523Y-88783390D01*
X108108571Y-88354819D02*
X108203809Y-88354819D01*
X108203809Y-88354819D02*
X108299047Y-88402438D01*
X108299047Y-88402438D02*
X108346666Y-88450057D01*
X108346666Y-88450057D02*
X108394285Y-88545295D01*
X108394285Y-88545295D02*
X108441904Y-88735771D01*
X108441904Y-88735771D02*
X108441904Y-88973866D01*
X108441904Y-88973866D02*
X108394285Y-89164342D01*
X108394285Y-89164342D02*
X108346666Y-89259580D01*
X108346666Y-89259580D02*
X108299047Y-89307200D01*
X108299047Y-89307200D02*
X108203809Y-89354819D01*
X108203809Y-89354819D02*
X108108571Y-89354819D01*
X108108571Y-89354819D02*
X108013333Y-89307200D01*
X108013333Y-89307200D02*
X107965714Y-89259580D01*
X107965714Y-89259580D02*
X107918095Y-89164342D01*
X107918095Y-89164342D02*
X107870476Y-88973866D01*
X107870476Y-88973866D02*
X107870476Y-88735771D01*
X107870476Y-88735771D02*
X107918095Y-88545295D01*
X107918095Y-88545295D02*
X107965714Y-88450057D01*
X107965714Y-88450057D02*
X108013333Y-88402438D01*
X108013333Y-88402438D02*
X108108571Y-88354819D01*
X109299047Y-88688152D02*
X109299047Y-89354819D01*
X109060952Y-88307200D02*
X108822857Y-89021485D01*
X108822857Y-89021485D02*
X109441904Y-89021485D01*
X106584761Y-81830057D02*
X106489523Y-81782438D01*
X106489523Y-81782438D02*
X106394285Y-81687200D01*
X106394285Y-81687200D02*
X106251428Y-81544342D01*
X106251428Y-81544342D02*
X106156190Y-81496723D01*
X106156190Y-81496723D02*
X106060952Y-81496723D01*
X106108571Y-81734819D02*
X106013333Y-81687200D01*
X106013333Y-81687200D02*
X105918095Y-81591961D01*
X105918095Y-81591961D02*
X105870476Y-81401485D01*
X105870476Y-81401485D02*
X105870476Y-81068152D01*
X105870476Y-81068152D02*
X105918095Y-80877676D01*
X105918095Y-80877676D02*
X106013333Y-80782438D01*
X106013333Y-80782438D02*
X106108571Y-80734819D01*
X106108571Y-80734819D02*
X106299047Y-80734819D01*
X106299047Y-80734819D02*
X106394285Y-80782438D01*
X106394285Y-80782438D02*
X106489523Y-80877676D01*
X106489523Y-80877676D02*
X106537142Y-81068152D01*
X106537142Y-81068152D02*
X106537142Y-81401485D01*
X106537142Y-81401485D02*
X106489523Y-81591961D01*
X106489523Y-81591961D02*
X106394285Y-81687200D01*
X106394285Y-81687200D02*
X106299047Y-81734819D01*
X106299047Y-81734819D02*
X106108571Y-81734819D01*
X107489523Y-81734819D02*
X106918095Y-81734819D01*
X107203809Y-81734819D02*
X107203809Y-80734819D01*
X107203809Y-80734819D02*
X107108571Y-80877676D01*
X107108571Y-80877676D02*
X107013333Y-80972914D01*
X107013333Y-80972914D02*
X106918095Y-81020533D01*
X103965714Y-83370057D02*
X104013333Y-83322438D01*
X104013333Y-83322438D02*
X104108571Y-83274819D01*
X104108571Y-83274819D02*
X104346666Y-83274819D01*
X104346666Y-83274819D02*
X104441904Y-83322438D01*
X104441904Y-83322438D02*
X104489523Y-83370057D01*
X104489523Y-83370057D02*
X104537142Y-83465295D01*
X104537142Y-83465295D02*
X104537142Y-83560533D01*
X104537142Y-83560533D02*
X104489523Y-83703390D01*
X104489523Y-83703390D02*
X103918095Y-84274819D01*
X103918095Y-84274819D02*
X104537142Y-84274819D01*
X104965714Y-84274819D02*
X104965714Y-83274819D01*
X104965714Y-83274819D02*
X105537142Y-84274819D01*
X105537142Y-84274819D02*
X105537142Y-83274819D01*
X105918095Y-83274819D02*
X106537142Y-83274819D01*
X106537142Y-83274819D02*
X106203809Y-83655771D01*
X106203809Y-83655771D02*
X106346666Y-83655771D01*
X106346666Y-83655771D02*
X106441904Y-83703390D01*
X106441904Y-83703390D02*
X106489523Y-83751009D01*
X106489523Y-83751009D02*
X106537142Y-83846247D01*
X106537142Y-83846247D02*
X106537142Y-84084342D01*
X106537142Y-84084342D02*
X106489523Y-84179580D01*
X106489523Y-84179580D02*
X106441904Y-84227200D01*
X106441904Y-84227200D02*
X106346666Y-84274819D01*
X106346666Y-84274819D02*
X106060952Y-84274819D01*
X106060952Y-84274819D02*
X105965714Y-84227200D01*
X105965714Y-84227200D02*
X105918095Y-84179580D01*
X107013333Y-84274819D02*
X107203809Y-84274819D01*
X107203809Y-84274819D02*
X107299047Y-84227200D01*
X107299047Y-84227200D02*
X107346666Y-84179580D01*
X107346666Y-84179580D02*
X107441904Y-84036723D01*
X107441904Y-84036723D02*
X107489523Y-83846247D01*
X107489523Y-83846247D02*
X107489523Y-83465295D01*
X107489523Y-83465295D02*
X107441904Y-83370057D01*
X107441904Y-83370057D02*
X107394285Y-83322438D01*
X107394285Y-83322438D02*
X107299047Y-83274819D01*
X107299047Y-83274819D02*
X107108571Y-83274819D01*
X107108571Y-83274819D02*
X107013333Y-83322438D01*
X107013333Y-83322438D02*
X106965714Y-83370057D01*
X106965714Y-83370057D02*
X106918095Y-83465295D01*
X106918095Y-83465295D02*
X106918095Y-83703390D01*
X106918095Y-83703390D02*
X106965714Y-83798628D01*
X106965714Y-83798628D02*
X107013333Y-83846247D01*
X107013333Y-83846247D02*
X107108571Y-83893866D01*
X107108571Y-83893866D02*
X107299047Y-83893866D01*
X107299047Y-83893866D02*
X107394285Y-83846247D01*
X107394285Y-83846247D02*
X107441904Y-83798628D01*
X107441904Y-83798628D02*
X107489523Y-83703390D01*
X108108571Y-83274819D02*
X108203809Y-83274819D01*
X108203809Y-83274819D02*
X108299047Y-83322438D01*
X108299047Y-83322438D02*
X108346666Y-83370057D01*
X108346666Y-83370057D02*
X108394285Y-83465295D01*
X108394285Y-83465295D02*
X108441904Y-83655771D01*
X108441904Y-83655771D02*
X108441904Y-83893866D01*
X108441904Y-83893866D02*
X108394285Y-84084342D01*
X108394285Y-84084342D02*
X108346666Y-84179580D01*
X108346666Y-84179580D02*
X108299047Y-84227200D01*
X108299047Y-84227200D02*
X108203809Y-84274819D01*
X108203809Y-84274819D02*
X108108571Y-84274819D01*
X108108571Y-84274819D02*
X108013333Y-84227200D01*
X108013333Y-84227200D02*
X107965714Y-84179580D01*
X107965714Y-84179580D02*
X107918095Y-84084342D01*
X107918095Y-84084342D02*
X107870476Y-83893866D01*
X107870476Y-83893866D02*
X107870476Y-83655771D01*
X107870476Y-83655771D02*
X107918095Y-83465295D01*
X107918095Y-83465295D02*
X107965714Y-83370057D01*
X107965714Y-83370057D02*
X108013333Y-83322438D01*
X108013333Y-83322438D02*
X108108571Y-83274819D01*
X109299047Y-83608152D02*
X109299047Y-84274819D01*
X109060952Y-83227200D02*
X108822857Y-83941485D01*
X108822857Y-83941485D02*
X109441904Y-83941485D01*
X139232856Y-78437080D02*
X139185237Y-78484700D01*
X139185237Y-78484700D02*
X139042380Y-78532319D01*
X139042380Y-78532319D02*
X138947142Y-78532319D01*
X138947142Y-78532319D02*
X138804285Y-78484700D01*
X138804285Y-78484700D02*
X138709047Y-78389461D01*
X138709047Y-78389461D02*
X138661428Y-78294223D01*
X138661428Y-78294223D02*
X138613809Y-78103747D01*
X138613809Y-78103747D02*
X138613809Y-77960890D01*
X138613809Y-77960890D02*
X138661428Y-77770414D01*
X138661428Y-77770414D02*
X138709047Y-77675176D01*
X138709047Y-77675176D02*
X138804285Y-77579938D01*
X138804285Y-77579938D02*
X138947142Y-77532319D01*
X138947142Y-77532319D02*
X139042380Y-77532319D01*
X139042380Y-77532319D02*
X139185237Y-77579938D01*
X139185237Y-77579938D02*
X139232856Y-77627557D01*
X139661428Y-78532319D02*
X139661428Y-77532319D01*
X139661428Y-77532319D02*
X140232856Y-78532319D01*
X140232856Y-78532319D02*
X140232856Y-77532319D01*
X141232856Y-78532319D02*
X140661428Y-78532319D01*
X140947142Y-78532319D02*
X140947142Y-77532319D01*
X140947142Y-77532319D02*
X140851904Y-77675176D01*
X140851904Y-77675176D02*
X140756666Y-77770414D01*
X140756666Y-77770414D02*
X140661428Y-77818033D01*
X125050933Y-94604819D02*
X124717600Y-94128628D01*
X124479505Y-94604819D02*
X124479505Y-93604819D01*
X124479505Y-93604819D02*
X124860457Y-93604819D01*
X124860457Y-93604819D02*
X124955695Y-93652438D01*
X124955695Y-93652438D02*
X125003314Y-93700057D01*
X125003314Y-93700057D02*
X125050933Y-93795295D01*
X125050933Y-93795295D02*
X125050933Y-93938152D01*
X125050933Y-93938152D02*
X125003314Y-94033390D01*
X125003314Y-94033390D02*
X124955695Y-94081009D01*
X124955695Y-94081009D02*
X124860457Y-94128628D01*
X124860457Y-94128628D02*
X124479505Y-94128628D01*
X125384267Y-93604819D02*
X126003314Y-93604819D01*
X126003314Y-93604819D02*
X125669981Y-93985771D01*
X125669981Y-93985771D02*
X125812838Y-93985771D01*
X125812838Y-93985771D02*
X125908076Y-94033390D01*
X125908076Y-94033390D02*
X125955695Y-94081009D01*
X125955695Y-94081009D02*
X126003314Y-94176247D01*
X126003314Y-94176247D02*
X126003314Y-94414342D01*
X126003314Y-94414342D02*
X125955695Y-94509580D01*
X125955695Y-94509580D02*
X125908076Y-94557200D01*
X125908076Y-94557200D02*
X125812838Y-94604819D01*
X125812838Y-94604819D02*
X125527124Y-94604819D01*
X125527124Y-94604819D02*
X125431886Y-94557200D01*
X125431886Y-94557200D02*
X125384267Y-94509580D01*
X124289028Y-96308152D02*
X124289028Y-96974819D01*
X124050933Y-95927200D02*
X123812838Y-96641485D01*
X123812838Y-96641485D02*
X124431885Y-96641485D01*
X124812838Y-96879580D02*
X124860457Y-96927200D01*
X124860457Y-96927200D02*
X124812838Y-96974819D01*
X124812838Y-96974819D02*
X124765219Y-96927200D01*
X124765219Y-96927200D02*
X124812838Y-96879580D01*
X124812838Y-96879580D02*
X124812838Y-96974819D01*
X125193790Y-95974819D02*
X125860456Y-95974819D01*
X125860456Y-95974819D02*
X125431885Y-96974819D01*
X126241409Y-96974819D02*
X126241409Y-95974819D01*
X126336647Y-96593866D02*
X126622361Y-96974819D01*
X126622361Y-96308152D02*
X126241409Y-96689104D01*
X106584761Y-102150057D02*
X106489523Y-102102438D01*
X106489523Y-102102438D02*
X106394285Y-102007200D01*
X106394285Y-102007200D02*
X106251428Y-101864342D01*
X106251428Y-101864342D02*
X106156190Y-101816723D01*
X106156190Y-101816723D02*
X106060952Y-101816723D01*
X106108571Y-102054819D02*
X106013333Y-102007200D01*
X106013333Y-102007200D02*
X105918095Y-101911961D01*
X105918095Y-101911961D02*
X105870476Y-101721485D01*
X105870476Y-101721485D02*
X105870476Y-101388152D01*
X105870476Y-101388152D02*
X105918095Y-101197676D01*
X105918095Y-101197676D02*
X106013333Y-101102438D01*
X106013333Y-101102438D02*
X106108571Y-101054819D01*
X106108571Y-101054819D02*
X106299047Y-101054819D01*
X106299047Y-101054819D02*
X106394285Y-101102438D01*
X106394285Y-101102438D02*
X106489523Y-101197676D01*
X106489523Y-101197676D02*
X106537142Y-101388152D01*
X106537142Y-101388152D02*
X106537142Y-101721485D01*
X106537142Y-101721485D02*
X106489523Y-101911961D01*
X106489523Y-101911961D02*
X106394285Y-102007200D01*
X106394285Y-102007200D02*
X106299047Y-102054819D01*
X106299047Y-102054819D02*
X106108571Y-102054819D01*
X107394285Y-101388152D02*
X107394285Y-102054819D01*
X107156190Y-101007200D02*
X106918095Y-101721485D01*
X106918095Y-101721485D02*
X107537142Y-101721485D01*
X103965714Y-103690057D02*
X104013333Y-103642438D01*
X104013333Y-103642438D02*
X104108571Y-103594819D01*
X104108571Y-103594819D02*
X104346666Y-103594819D01*
X104346666Y-103594819D02*
X104441904Y-103642438D01*
X104441904Y-103642438D02*
X104489523Y-103690057D01*
X104489523Y-103690057D02*
X104537142Y-103785295D01*
X104537142Y-103785295D02*
X104537142Y-103880533D01*
X104537142Y-103880533D02*
X104489523Y-104023390D01*
X104489523Y-104023390D02*
X103918095Y-104594819D01*
X103918095Y-104594819D02*
X104537142Y-104594819D01*
X104965714Y-104594819D02*
X104965714Y-103594819D01*
X104965714Y-103594819D02*
X105537142Y-104594819D01*
X105537142Y-104594819D02*
X105537142Y-103594819D01*
X105918095Y-103594819D02*
X106537142Y-103594819D01*
X106537142Y-103594819D02*
X106203809Y-103975771D01*
X106203809Y-103975771D02*
X106346666Y-103975771D01*
X106346666Y-103975771D02*
X106441904Y-104023390D01*
X106441904Y-104023390D02*
X106489523Y-104071009D01*
X106489523Y-104071009D02*
X106537142Y-104166247D01*
X106537142Y-104166247D02*
X106537142Y-104404342D01*
X106537142Y-104404342D02*
X106489523Y-104499580D01*
X106489523Y-104499580D02*
X106441904Y-104547200D01*
X106441904Y-104547200D02*
X106346666Y-104594819D01*
X106346666Y-104594819D02*
X106060952Y-104594819D01*
X106060952Y-104594819D02*
X105965714Y-104547200D01*
X105965714Y-104547200D02*
X105918095Y-104499580D01*
X107013333Y-104594819D02*
X107203809Y-104594819D01*
X107203809Y-104594819D02*
X107299047Y-104547200D01*
X107299047Y-104547200D02*
X107346666Y-104499580D01*
X107346666Y-104499580D02*
X107441904Y-104356723D01*
X107441904Y-104356723D02*
X107489523Y-104166247D01*
X107489523Y-104166247D02*
X107489523Y-103785295D01*
X107489523Y-103785295D02*
X107441904Y-103690057D01*
X107441904Y-103690057D02*
X107394285Y-103642438D01*
X107394285Y-103642438D02*
X107299047Y-103594819D01*
X107299047Y-103594819D02*
X107108571Y-103594819D01*
X107108571Y-103594819D02*
X107013333Y-103642438D01*
X107013333Y-103642438D02*
X106965714Y-103690057D01*
X106965714Y-103690057D02*
X106918095Y-103785295D01*
X106918095Y-103785295D02*
X106918095Y-104023390D01*
X106918095Y-104023390D02*
X106965714Y-104118628D01*
X106965714Y-104118628D02*
X107013333Y-104166247D01*
X107013333Y-104166247D02*
X107108571Y-104213866D01*
X107108571Y-104213866D02*
X107299047Y-104213866D01*
X107299047Y-104213866D02*
X107394285Y-104166247D01*
X107394285Y-104166247D02*
X107441904Y-104118628D01*
X107441904Y-104118628D02*
X107489523Y-104023390D01*
X108108571Y-103594819D02*
X108203809Y-103594819D01*
X108203809Y-103594819D02*
X108299047Y-103642438D01*
X108299047Y-103642438D02*
X108346666Y-103690057D01*
X108346666Y-103690057D02*
X108394285Y-103785295D01*
X108394285Y-103785295D02*
X108441904Y-103975771D01*
X108441904Y-103975771D02*
X108441904Y-104213866D01*
X108441904Y-104213866D02*
X108394285Y-104404342D01*
X108394285Y-104404342D02*
X108346666Y-104499580D01*
X108346666Y-104499580D02*
X108299047Y-104547200D01*
X108299047Y-104547200D02*
X108203809Y-104594819D01*
X108203809Y-104594819D02*
X108108571Y-104594819D01*
X108108571Y-104594819D02*
X108013333Y-104547200D01*
X108013333Y-104547200D02*
X107965714Y-104499580D01*
X107965714Y-104499580D02*
X107918095Y-104404342D01*
X107918095Y-104404342D02*
X107870476Y-104213866D01*
X107870476Y-104213866D02*
X107870476Y-103975771D01*
X107870476Y-103975771D02*
X107918095Y-103785295D01*
X107918095Y-103785295D02*
X107965714Y-103690057D01*
X107965714Y-103690057D02*
X108013333Y-103642438D01*
X108013333Y-103642438D02*
X108108571Y-103594819D01*
X109299047Y-103928152D02*
X109299047Y-104594819D01*
X109060952Y-103547200D02*
X108822857Y-104261485D01*
X108822857Y-104261485D02*
X109441904Y-104261485D01*
X106584761Y-97070057D02*
X106489523Y-97022438D01*
X106489523Y-97022438D02*
X106394285Y-96927200D01*
X106394285Y-96927200D02*
X106251428Y-96784342D01*
X106251428Y-96784342D02*
X106156190Y-96736723D01*
X106156190Y-96736723D02*
X106060952Y-96736723D01*
X106108571Y-96974819D02*
X106013333Y-96927200D01*
X106013333Y-96927200D02*
X105918095Y-96831961D01*
X105918095Y-96831961D02*
X105870476Y-96641485D01*
X105870476Y-96641485D02*
X105870476Y-96308152D01*
X105870476Y-96308152D02*
X105918095Y-96117676D01*
X105918095Y-96117676D02*
X106013333Y-96022438D01*
X106013333Y-96022438D02*
X106108571Y-95974819D01*
X106108571Y-95974819D02*
X106299047Y-95974819D01*
X106299047Y-95974819D02*
X106394285Y-96022438D01*
X106394285Y-96022438D02*
X106489523Y-96117676D01*
X106489523Y-96117676D02*
X106537142Y-96308152D01*
X106537142Y-96308152D02*
X106537142Y-96641485D01*
X106537142Y-96641485D02*
X106489523Y-96831961D01*
X106489523Y-96831961D02*
X106394285Y-96927200D01*
X106394285Y-96927200D02*
X106299047Y-96974819D01*
X106299047Y-96974819D02*
X106108571Y-96974819D01*
X106870476Y-95974819D02*
X107489523Y-95974819D01*
X107489523Y-95974819D02*
X107156190Y-96355771D01*
X107156190Y-96355771D02*
X107299047Y-96355771D01*
X107299047Y-96355771D02*
X107394285Y-96403390D01*
X107394285Y-96403390D02*
X107441904Y-96451009D01*
X107441904Y-96451009D02*
X107489523Y-96546247D01*
X107489523Y-96546247D02*
X107489523Y-96784342D01*
X107489523Y-96784342D02*
X107441904Y-96879580D01*
X107441904Y-96879580D02*
X107394285Y-96927200D01*
X107394285Y-96927200D02*
X107299047Y-96974819D01*
X107299047Y-96974819D02*
X107013333Y-96974819D01*
X107013333Y-96974819D02*
X106918095Y-96927200D01*
X106918095Y-96927200D02*
X106870476Y-96879580D01*
X103965714Y-98610057D02*
X104013333Y-98562438D01*
X104013333Y-98562438D02*
X104108571Y-98514819D01*
X104108571Y-98514819D02*
X104346666Y-98514819D01*
X104346666Y-98514819D02*
X104441904Y-98562438D01*
X104441904Y-98562438D02*
X104489523Y-98610057D01*
X104489523Y-98610057D02*
X104537142Y-98705295D01*
X104537142Y-98705295D02*
X104537142Y-98800533D01*
X104537142Y-98800533D02*
X104489523Y-98943390D01*
X104489523Y-98943390D02*
X103918095Y-99514819D01*
X103918095Y-99514819D02*
X104537142Y-99514819D01*
X104965714Y-99514819D02*
X104965714Y-98514819D01*
X104965714Y-98514819D02*
X105537142Y-99514819D01*
X105537142Y-99514819D02*
X105537142Y-98514819D01*
X105918095Y-98514819D02*
X106537142Y-98514819D01*
X106537142Y-98514819D02*
X106203809Y-98895771D01*
X106203809Y-98895771D02*
X106346666Y-98895771D01*
X106346666Y-98895771D02*
X106441904Y-98943390D01*
X106441904Y-98943390D02*
X106489523Y-98991009D01*
X106489523Y-98991009D02*
X106537142Y-99086247D01*
X106537142Y-99086247D02*
X106537142Y-99324342D01*
X106537142Y-99324342D02*
X106489523Y-99419580D01*
X106489523Y-99419580D02*
X106441904Y-99467200D01*
X106441904Y-99467200D02*
X106346666Y-99514819D01*
X106346666Y-99514819D02*
X106060952Y-99514819D01*
X106060952Y-99514819D02*
X105965714Y-99467200D01*
X105965714Y-99467200D02*
X105918095Y-99419580D01*
X107013333Y-99514819D02*
X107203809Y-99514819D01*
X107203809Y-99514819D02*
X107299047Y-99467200D01*
X107299047Y-99467200D02*
X107346666Y-99419580D01*
X107346666Y-99419580D02*
X107441904Y-99276723D01*
X107441904Y-99276723D02*
X107489523Y-99086247D01*
X107489523Y-99086247D02*
X107489523Y-98705295D01*
X107489523Y-98705295D02*
X107441904Y-98610057D01*
X107441904Y-98610057D02*
X107394285Y-98562438D01*
X107394285Y-98562438D02*
X107299047Y-98514819D01*
X107299047Y-98514819D02*
X107108571Y-98514819D01*
X107108571Y-98514819D02*
X107013333Y-98562438D01*
X107013333Y-98562438D02*
X106965714Y-98610057D01*
X106965714Y-98610057D02*
X106918095Y-98705295D01*
X106918095Y-98705295D02*
X106918095Y-98943390D01*
X106918095Y-98943390D02*
X106965714Y-99038628D01*
X106965714Y-99038628D02*
X107013333Y-99086247D01*
X107013333Y-99086247D02*
X107108571Y-99133866D01*
X107108571Y-99133866D02*
X107299047Y-99133866D01*
X107299047Y-99133866D02*
X107394285Y-99086247D01*
X107394285Y-99086247D02*
X107441904Y-99038628D01*
X107441904Y-99038628D02*
X107489523Y-98943390D01*
X108108571Y-98514819D02*
X108203809Y-98514819D01*
X108203809Y-98514819D02*
X108299047Y-98562438D01*
X108299047Y-98562438D02*
X108346666Y-98610057D01*
X108346666Y-98610057D02*
X108394285Y-98705295D01*
X108394285Y-98705295D02*
X108441904Y-98895771D01*
X108441904Y-98895771D02*
X108441904Y-99133866D01*
X108441904Y-99133866D02*
X108394285Y-99324342D01*
X108394285Y-99324342D02*
X108346666Y-99419580D01*
X108346666Y-99419580D02*
X108299047Y-99467200D01*
X108299047Y-99467200D02*
X108203809Y-99514819D01*
X108203809Y-99514819D02*
X108108571Y-99514819D01*
X108108571Y-99514819D02*
X108013333Y-99467200D01*
X108013333Y-99467200D02*
X107965714Y-99419580D01*
X107965714Y-99419580D02*
X107918095Y-99324342D01*
X107918095Y-99324342D02*
X107870476Y-99133866D01*
X107870476Y-99133866D02*
X107870476Y-98895771D01*
X107870476Y-98895771D02*
X107918095Y-98705295D01*
X107918095Y-98705295D02*
X107965714Y-98610057D01*
X107965714Y-98610057D02*
X108013333Y-98562438D01*
X108013333Y-98562438D02*
X108108571Y-98514819D01*
X109299047Y-98848152D02*
X109299047Y-99514819D01*
X109060952Y-98467200D02*
X108822857Y-99181485D01*
X108822857Y-99181485D02*
X109441904Y-99181485D01*
X125050933Y-89524819D02*
X124717600Y-89048628D01*
X124479505Y-89524819D02*
X124479505Y-88524819D01*
X124479505Y-88524819D02*
X124860457Y-88524819D01*
X124860457Y-88524819D02*
X124955695Y-88572438D01*
X124955695Y-88572438D02*
X125003314Y-88620057D01*
X125003314Y-88620057D02*
X125050933Y-88715295D01*
X125050933Y-88715295D02*
X125050933Y-88858152D01*
X125050933Y-88858152D02*
X125003314Y-88953390D01*
X125003314Y-88953390D02*
X124955695Y-89001009D01*
X124955695Y-89001009D02*
X124860457Y-89048628D01*
X124860457Y-89048628D02*
X124479505Y-89048628D01*
X125431886Y-88620057D02*
X125479505Y-88572438D01*
X125479505Y-88572438D02*
X125574743Y-88524819D01*
X125574743Y-88524819D02*
X125812838Y-88524819D01*
X125812838Y-88524819D02*
X125908076Y-88572438D01*
X125908076Y-88572438D02*
X125955695Y-88620057D01*
X125955695Y-88620057D02*
X126003314Y-88715295D01*
X126003314Y-88715295D02*
X126003314Y-88810533D01*
X126003314Y-88810533D02*
X125955695Y-88953390D01*
X125955695Y-88953390D02*
X125384267Y-89524819D01*
X125384267Y-89524819D02*
X126003314Y-89524819D01*
X124289028Y-91228152D02*
X124289028Y-91894819D01*
X124050933Y-90847200D02*
X123812838Y-91561485D01*
X123812838Y-91561485D02*
X124431885Y-91561485D01*
X124812838Y-91799580D02*
X124860457Y-91847200D01*
X124860457Y-91847200D02*
X124812838Y-91894819D01*
X124812838Y-91894819D02*
X124765219Y-91847200D01*
X124765219Y-91847200D02*
X124812838Y-91799580D01*
X124812838Y-91799580D02*
X124812838Y-91894819D01*
X125193790Y-90894819D02*
X125860456Y-90894819D01*
X125860456Y-90894819D02*
X125431885Y-91894819D01*
X126241409Y-91894819D02*
X126241409Y-90894819D01*
X126336647Y-91513866D02*
X126622361Y-91894819D01*
X126622361Y-91228152D02*
X126241409Y-91609104D01*
D15*
%TO.C,R1*%
X121177600Y-86360000D02*
X121947600Y-86360000D01*
X129257600Y-86360000D02*
X128487600Y-86360000D01*
X121947600Y-84990000D02*
X128487600Y-84990000D01*
X128487600Y-87730000D01*
X121947600Y-87730000D01*
X121947600Y-84990000D01*
D16*
%TO.C,CN2*%
X108977200Y-106925100D02*
X108977200Y-127245100D01*
D17*
X111253000Y-117108400D02*
X111256900Y-117036800D01*
X111256900Y-117036800D02*
X111296700Y-116941300D01*
X111268900Y-117231900D02*
X111253000Y-117108400D01*
X111268900Y-117343300D02*
X111268900Y-117231900D01*
X111296700Y-116941300D02*
X111344500Y-116885500D01*
X111316700Y-117434900D02*
X111268900Y-117343300D01*
X111344500Y-116885500D02*
X111396300Y-116821800D01*
X111368400Y-118223100D02*
X112100900Y-118219100D01*
X111376400Y-117522500D02*
X111316700Y-117434900D01*
X111396300Y-116821800D02*
X111428100Y-116794000D01*
X111428100Y-116794000D02*
X111507700Y-116738200D01*
X111432100Y-117598100D02*
X111376400Y-117522500D01*
X111507700Y-116738200D02*
X111579400Y-116690500D01*
X111531700Y-117661800D02*
X111432100Y-117598100D01*
X111579400Y-116690500D02*
X111627200Y-116666600D01*
X111627200Y-116666600D02*
X111710800Y-116642700D01*
X111663000Y-117693600D02*
X111531700Y-117661800D01*
X111710800Y-116642700D02*
X111790400Y-116634700D01*
X111790400Y-116634700D02*
X111854100Y-116630700D01*
X111822300Y-117721500D02*
X111663000Y-117693600D01*
X111854100Y-116630700D02*
X111913800Y-116646700D01*
X111913800Y-116646700D02*
X111989500Y-116682500D01*
X111973500Y-117717500D02*
X111822300Y-117721500D01*
X111989500Y-116682500D02*
X112049100Y-116702400D01*
X112049100Y-116702400D02*
X112108900Y-116738200D01*
X112100900Y-118219100D02*
X112120800Y-117598100D01*
X112108900Y-116738200D02*
X112148700Y-116774100D01*
X112120800Y-117598100D02*
X111973500Y-117717500D01*
X112148700Y-116774100D02*
X112180500Y-116801900D01*
X112180500Y-116801900D02*
X112204400Y-116833800D01*
X112204400Y-116833800D02*
X112240300Y-116869600D01*
X112240300Y-116869600D02*
X112248200Y-116873600D01*
X113933900Y-114655800D02*
X115097400Y-114646600D01*
X114163600Y-115767400D02*
X114165500Y-114119300D01*
X114354000Y-115767200D02*
X114163600Y-115767400D01*
X115097400Y-114646600D02*
X115102200Y-114868400D01*
X115102200Y-114868400D02*
X114354000Y-115767200D01*
X118625100Y-117145100D02*
X118632300Y-117090700D01*
X118632300Y-117090700D02*
X118661300Y-117025500D01*
X118632300Y-117206700D02*
X118625100Y-117145100D01*
X118645000Y-117277300D02*
X118632300Y-117206700D01*
X118661300Y-117025500D02*
X118688500Y-116976600D01*
X118674000Y-117344400D02*
X118645000Y-117277300D01*
X118688500Y-116976600D02*
X118719300Y-116918600D01*
X118706600Y-117880600D02*
X118728300Y-117813600D01*
X118706600Y-117953000D02*
X118706600Y-117880600D01*
X118719300Y-116918600D02*
X118753700Y-116882400D01*
X118721100Y-118025500D02*
X118706600Y-117953000D01*
X118728300Y-117813600D02*
X118775500Y-117726600D01*
X118748300Y-118092500D02*
X118721100Y-118025500D01*
X118753700Y-116882400D02*
X118809900Y-116837100D01*
X118775500Y-117491100D02*
X118674000Y-117344400D01*
X118775500Y-117726600D02*
X118824300Y-117650500D01*
X118802600Y-118170400D02*
X118748300Y-118092500D01*
X118809900Y-116837100D02*
X118858800Y-116804500D01*
X118824300Y-117650500D02*
X118880500Y-117616100D01*
X118858800Y-116804500D02*
X118905900Y-116777300D01*
X118876900Y-117529100D02*
X118775500Y-117491100D01*
X118880500Y-117616100D02*
X118981900Y-117592500D01*
X118893200Y-118246500D02*
X118802600Y-118170400D01*
X118905900Y-116777300D02*
X118978300Y-116739300D01*
X118978300Y-116739300D02*
X119009100Y-116719400D01*
X118981900Y-117592500D02*
X119132300Y-117588900D01*
X119009100Y-116719400D02*
X119056300Y-116710300D01*
X119021800Y-118293600D02*
X118893200Y-118246500D01*
X119056300Y-116710300D02*
X119103300Y-116708500D01*
X119103300Y-116708500D02*
X119135900Y-116710300D01*
X119132300Y-117588900D02*
X119195700Y-117590700D01*
X119135900Y-116710300D02*
X119204800Y-116717500D01*
X119146800Y-118308100D02*
X119021800Y-118293600D01*
X119195700Y-117590700D02*
X118876900Y-117529100D01*
X119204800Y-116717500D02*
X119271800Y-116728400D01*
X119271800Y-116728400D02*
X119313500Y-116739300D01*
X119313500Y-116739300D02*
X119375100Y-116766500D01*
X119337100Y-118297300D02*
X119146800Y-118308100D01*
X119375100Y-116766500D02*
X119427600Y-116799100D01*
X119407900Y-111805800D02*
X119424300Y-111872800D01*
X119411500Y-111691700D02*
X119407900Y-111805800D01*
X119424300Y-111872800D02*
X119436900Y-111948900D01*
X119426100Y-111628300D02*
X119411500Y-111691700D01*
X119427600Y-116799100D02*
X119518200Y-116882400D01*
X119436900Y-111948900D02*
X119476800Y-112037700D01*
X119451400Y-111570300D02*
X119426100Y-111628300D01*
X119456600Y-118264600D02*
X119337100Y-118297300D01*
X119460500Y-112727900D02*
X119532900Y-112787700D01*
X119476800Y-112037700D02*
X119540200Y-112081200D01*
X119494900Y-111508700D02*
X119451400Y-111570300D01*
X119518200Y-116882400D02*
X119635900Y-116971200D01*
X119532900Y-111468900D02*
X119494900Y-111508700D01*
X119532900Y-112787700D02*
X119585500Y-112842000D01*
X119540200Y-112081200D02*
X119601800Y-112122800D01*
X119550800Y-118192200D02*
X119456600Y-118264600D01*
X119585500Y-111436300D02*
X119532900Y-111468900D01*
X119585500Y-112842000D02*
X119654300Y-112887300D01*
X119601800Y-112122800D02*
X119674300Y-112159100D01*
X119634100Y-118114300D02*
X119550800Y-118192200D01*
X119641700Y-111407300D02*
X119585500Y-111436300D01*
X119654300Y-112887300D02*
X119710500Y-112918100D01*
X119674300Y-112159100D02*
X119784700Y-112197100D01*
X119710500Y-112918100D02*
X119779300Y-112936300D01*
X119712300Y-111387300D02*
X119641700Y-111407300D01*
X119779300Y-112936300D02*
X119875300Y-112938100D01*
X119784700Y-112197100D02*
X119810100Y-112202600D01*
X119804700Y-111376500D02*
X119712300Y-111387300D01*
X119810100Y-112202600D02*
X119882600Y-112213400D01*
X119875300Y-112938100D02*
X119967700Y-112938100D01*
X119882600Y-112213400D02*
X119969500Y-112218900D01*
X119913400Y-111376500D02*
X119804700Y-111376500D01*
X119967700Y-112938100D02*
X120052900Y-112927200D01*
X119969500Y-112218900D02*
X120002100Y-112217000D01*
X120002100Y-112217000D02*
X120101800Y-112211600D01*
X120007600Y-111389200D02*
X119913400Y-111376500D01*
X120052900Y-112927200D02*
X120188700Y-112880100D01*
X120080100Y-111412700D02*
X120007600Y-111389200D01*
X120101800Y-112211600D02*
X120159700Y-112206200D01*
X120125300Y-111432600D02*
X120080100Y-111412700D01*
X120159700Y-112206200D02*
X120266700Y-112184400D01*
X120165200Y-111456200D02*
X120125300Y-111432600D01*
X120188700Y-112880100D02*
X120275700Y-112858400D01*
X120199600Y-111487000D02*
X120165200Y-111456200D01*
X120246700Y-111535900D02*
X120199600Y-111487000D01*
X120266700Y-112184400D02*
X120355400Y-112148200D01*
X120275700Y-112858400D02*
X120340900Y-112796800D01*
X120284700Y-111566700D02*
X120246700Y-111535900D01*
X120339100Y-111604700D02*
X120284700Y-111566700D01*
X120340900Y-112796800D02*
X120369900Y-112726100D01*
X120369900Y-112726100D02*
X120400700Y-112659100D01*
X120377100Y-111633700D02*
X120339100Y-111604700D01*
X120400700Y-112659100D02*
X120435100Y-112583000D01*
X120409700Y-111671800D02*
X120377100Y-111633700D01*
X120435100Y-111726100D02*
X120409700Y-111671800D01*
X120435100Y-112583000D02*
X120444100Y-112530500D01*
X120444100Y-112530500D02*
X120474900Y-112445300D01*
X120453200Y-111767800D02*
X120435100Y-111726100D01*
X120467700Y-111836600D02*
X120453200Y-111767800D01*
X120474900Y-111903600D02*
X120467700Y-111836600D01*
X120474900Y-112445300D02*
X120485900Y-112381900D01*
X120480400Y-111976100D02*
X120474900Y-111903600D01*
X120485900Y-112170000D02*
X120487700Y-112131900D01*
X120485900Y-112262300D02*
X120485900Y-112170000D01*
X120485900Y-112381900D02*
X120487700Y-112313100D01*
X120487700Y-112131900D02*
X120480400Y-111976100D01*
X120487700Y-112313100D02*
X120485900Y-112262300D01*
X124104900Y-109928500D02*
X124142600Y-109834200D01*
X124112000Y-110022700D02*
X124104900Y-109928500D01*
X124114300Y-110095700D02*
X124112000Y-110022700D01*
X124142600Y-109834200D02*
X124199100Y-109758900D01*
X124144900Y-110159300D02*
X124114300Y-110095700D01*
X124199100Y-109758900D02*
X124276900Y-109681200D01*
X124201500Y-110218100D02*
X124144900Y-110159300D01*
X124269800Y-110277000D02*
X124201500Y-110218100D01*
X124276900Y-109681200D02*
X124432300Y-109563400D01*
X124352200Y-110312300D02*
X124269800Y-110277000D01*
X124432300Y-109563400D02*
X124514700Y-109504500D01*
X124455900Y-110321800D02*
X124352200Y-110312300D01*
X124514700Y-109504500D02*
X124611300Y-109448000D01*
X124571300Y-110319400D02*
X124455900Y-110321800D01*
X124611300Y-109448000D02*
X124700800Y-109375000D01*
X124686700Y-110314700D02*
X124571300Y-110319400D01*
X124700800Y-109375000D02*
X124771400Y-109304300D01*
X124771400Y-109304300D02*
X124835000Y-109221900D01*
X124802100Y-110291100D02*
X124686700Y-110314700D01*
X124835000Y-109221900D02*
X124952800Y-109057000D01*
X124865600Y-110253500D02*
X124802100Y-110291100D01*
X124936300Y-110180500D02*
X124865600Y-110253500D01*
X124945700Y-108734400D02*
X124034300Y-108739100D01*
X124952800Y-109057000D02*
X124995100Y-108948600D01*
X124983400Y-108835600D02*
X124945700Y-108734400D01*
X124995100Y-108948600D02*
X124983400Y-108835600D01*
X125032900Y-110067400D02*
X124936300Y-110180500D01*
X125082300Y-109923700D02*
X125032900Y-110067400D01*
X126409400Y-118216800D02*
X126453200Y-116576700D01*
X126692100Y-117858500D02*
X126409400Y-118216800D01*
D16*
X129614700Y-106925100D02*
X108977200Y-106925100D01*
X129614700Y-127245100D02*
X129614700Y-106925100D01*
D15*
%TO.C,R4*%
X121177600Y-101600000D02*
X121947600Y-101600000D01*
X129257600Y-101600000D02*
X128487600Y-101600000D01*
X121947600Y-100230000D02*
X128487600Y-100230000D01*
X128487600Y-102970000D01*
X121947600Y-102970000D01*
X121947600Y-100230000D01*
%TO.C,Q2*%
X111230000Y-93290000D02*
X114830000Y-93290000D01*
X111191522Y-93278478D02*
G75*
G02*
X113030000Y-88839999I1838478J1838478D01*
G01*
X113030000Y-88840000D02*
G75*
G02*
X114868478Y-93278478I0J-2600000D01*
G01*
%TO.C,Q1*%
X111230000Y-88210000D02*
X114830000Y-88210000D01*
X111191522Y-88198478D02*
G75*
G02*
X113030000Y-83759999I1838478J1838478D01*
G01*
X113030000Y-83760000D02*
G75*
G02*
X114868478Y-88198478I0J-2600000D01*
G01*
%TO.C,CN1*%
X101576667Y-76337500D02*
X101576667Y-80077500D01*
X101576667Y-80077500D02*
X137183333Y-80077500D01*
X137183333Y-80077500D02*
X137183333Y-76337500D01*
X137423333Y-78077500D02*
X137423333Y-80317500D01*
X137423333Y-80317500D02*
X133230000Y-80317500D01*
%TO.C,R3*%
X121177600Y-96520000D02*
X121947600Y-96520000D01*
X129257600Y-96520000D02*
X128487600Y-96520000D01*
X121947600Y-95150000D02*
X128487600Y-95150000D01*
X128487600Y-97890000D01*
X121947600Y-97890000D01*
X121947600Y-95150000D01*
%TO.C,Q4*%
X111230000Y-103450000D02*
X114830000Y-103450000D01*
X111191522Y-103438478D02*
G75*
G02*
X113030000Y-98999999I1838478J1838478D01*
G01*
X113030000Y-99000000D02*
G75*
G02*
X114868478Y-103438478I0J-2600000D01*
G01*
%TO.C,Q3*%
X111230000Y-98370000D02*
X114830000Y-98370000D01*
X111191522Y-98358478D02*
G75*
G02*
X113030000Y-93919999I1838478J1838478D01*
G01*
X113030000Y-93920000D02*
G75*
G02*
X114868478Y-98358478I0J-2600000D01*
G01*
%TO.C,R2*%
X121177600Y-91440000D02*
X121947600Y-91440000D01*
X129257600Y-91440000D02*
X128487600Y-91440000D01*
X121947600Y-90070000D02*
X128487600Y-90070000D01*
X128487600Y-92810000D01*
X121947600Y-92810000D01*
X121947600Y-90070000D01*
%TD*%
%LPC*%
D18*
%TO.C,R1*%
X120137600Y-86360000D03*
X130297600Y-86360000D03*
%TD*%
D19*
%TO.C,CN2*%
X126764200Y-114669100D03*
X124264200Y-124669100D03*
X124264200Y-112169100D03*
X114264200Y-124669100D03*
X119264200Y-114669100D03*
X114264200Y-112129100D03*
X111764200Y-114669100D03*
X119264200Y-109669100D03*
%TD*%
D18*
%TO.C,R4*%
X120137600Y-101600000D03*
X130297600Y-101600000D03*
%TD*%
D20*
%TO.C,Q2*%
X111760000Y-91440000D03*
D21*
X113030000Y-91440000D03*
X114300000Y-91440000D03*
%TD*%
D20*
%TO.C,Q1*%
X111760000Y-86360000D03*
D21*
X113030000Y-86360000D03*
X114300000Y-86360000D03*
%TD*%
D22*
%TO.C,CN1*%
X136000000Y-78077500D03*
X133230000Y-78077500D03*
X130460000Y-78077500D03*
X127690000Y-78077500D03*
X124920000Y-78077500D03*
X122150000Y-78077500D03*
X119380000Y-78077500D03*
X116610000Y-78077500D03*
X113840000Y-78077500D03*
X111070000Y-78077500D03*
X108300000Y-78077500D03*
X105530000Y-78077500D03*
X102760000Y-78077500D03*
%TD*%
D18*
%TO.C,R3*%
X120137600Y-96520000D03*
X130297600Y-96520000D03*
%TD*%
D20*
%TO.C,Q4*%
X111760000Y-101600000D03*
D21*
X113030000Y-101600000D03*
X114300000Y-101600000D03*
%TD*%
D20*
%TO.C,Q3*%
X111760000Y-96520000D03*
D21*
X113030000Y-96520000D03*
X114300000Y-96520000D03*
%TD*%
D18*
%TO.C,R2*%
X120137600Y-91440000D03*
X130297600Y-91440000D03*
%TD*%
%LPD*%
M02*
