%TF.GenerationSoftware,KiCad,Pcbnew,9.0.5-1.fc42*%
%TF.CreationDate,2025-11-09T17:22:30+08:00*%
%TF.ProjectId,b5s4-XA1541-active,62357334-2d58-4413-9135-34312d616374,1.1*%
%TF.SameCoordinates,Original*%
%TF.FileFunction,Plated,1,2,PTH,Drill*%
%TF.FilePolarity,Positive*%
%FSLAX46Y46*%
G04 Gerber Fmt 4.6, Leading zero omitted, Abs format (unit mm)*
G04 Created by KiCad (PCBNEW 9.0.5-1.fc42) date 2025-11-09 17:22:30*
%MOMM*%
%LPD*%
G01*
G04 APERTURE LIST*
%TA.AperFunction,ViaDrill*%
%ADD10C,0.300000*%
%TD*%
%TA.AperFunction,ComponentDrill*%
%ADD11C,0.750000*%
%TD*%
%TA.AperFunction,ComponentDrill*%
%ADD12C,0.800000*%
%TD*%
%TA.AperFunction,ComponentDrill*%
%ADD13C,1.600000*%
%TD*%
G04 APERTURE END LIST*
D10*
X99060000Y-78740000D03*
X99060000Y-86360000D03*
X99060000Y-101600000D03*
X99060000Y-109220000D03*
X101600000Y-86360000D03*
X101600000Y-101600000D03*
X101600000Y-106680000D03*
X106680000Y-121920000D03*
X106909781Y-82607445D03*
X108348400Y-95332200D03*
X111792500Y-89000300D03*
X114300000Y-119380000D03*
X115830500Y-101129200D03*
X116369264Y-93268681D03*
X116369264Y-98080632D03*
X116716071Y-108441501D03*
X116840000Y-81280000D03*
X119380000Y-121920000D03*
X124460000Y-104140000D03*
X124460000Y-119380000D03*
X129312300Y-80601600D03*
X130588364Y-88846887D03*
X132080000Y-109220000D03*
X132080000Y-114300000D03*
X132080000Y-121920000D03*
X132174100Y-82830400D03*
X134148257Y-86863513D03*
X137160000Y-83820000D03*
X137160000Y-88900000D03*
X139700000Y-83820000D03*
X139700000Y-99060000D03*
X139700000Y-116840000D03*
D11*
%TO.C,Q1*%
X111760000Y-86360000D03*
%TO.C,Q2*%
X111760000Y-91440000D03*
%TO.C,Q3*%
X111760000Y-96520000D03*
%TO.C,Q4*%
X111760000Y-101600000D03*
%TO.C,Q1*%
X113030000Y-86360000D03*
%TO.C,Q2*%
X113030000Y-91440000D03*
%TO.C,Q3*%
X113030000Y-96520000D03*
%TO.C,Q4*%
X113030000Y-101600000D03*
%TO.C,Q1*%
X114300000Y-86360000D03*
%TO.C,Q2*%
X114300000Y-91440000D03*
%TO.C,Q3*%
X114300000Y-96520000D03*
%TO.C,Q4*%
X114300000Y-101600000D03*
D12*
%TO.C,R1*%
X120137600Y-86360000D03*
%TO.C,R2*%
X120137600Y-91440000D03*
%TO.C,R3*%
X120137600Y-96520000D03*
%TO.C,R4*%
X120137600Y-101600000D03*
%TO.C,R1*%
X130297600Y-86360000D03*
%TO.C,R2*%
X130297600Y-91440000D03*
%TO.C,R3*%
X130297600Y-96520000D03*
%TO.C,R4*%
X130297600Y-101600000D03*
D13*
%TO.C,CN2*%
X111764200Y-114669100D03*
X114264200Y-112129100D03*
X114264200Y-124669100D03*
X119264200Y-109669100D03*
X119264200Y-114669100D03*
X124264200Y-112169100D03*
X124264200Y-124669100D03*
X126764200Y-114669100D03*
M02*
